NotoSerifHentaigana.glyphspackage
{
export = 0;
glyphname = "a-hira";
layers = (
{
layerId = m01;
shapes = (
{
closed = 1;
nodes = (
(412,375,o),
(413,392,o),
(414,411,c),
(472,439,o),
(527,453,o),
(595,455,c),
(565,387,o),
(498,293,o),
(431,223,c),
(420,257,o),
(412,301,o),
(412,360,cs)
);
},
{
closed = 1;
nodes = (
(189,96,o),
(178,108,o),
(178,139,cs),
(178,210,o),
(257,318,o),
(379,392,c),
(378,379,o),
(378,367,o),
(378,356,cs),
(378,303,o),
(384,239,o),
(395,188,c),
(340,137,o),
(269,96,o),
(216,96,cs)
);
},
{
closed = 1;
nodes = (
(445,611,l),
(451,637,o),
(457,659,o),
(462,675,cs),
(470,710,o),
(486,709,o),
(486,728,cs),
(486,744,o),
(443,778,o),
(386,778,cs),
(377,778,o),
(360,777,o),
(344,776,c),
(343,752,l),
(364,750,o),
(383,748,o),
(402,742,cs),
(416,737,o),
(420,733,o),
(420,716,cs),
(420,699,o),
(413,656,o),
(405,601,c)
);
},
{
closed = 1;
nodes = (
(402,588,l),
(395,538,o),
(386,480,o),
(382,428,c),
(276,372,o),
(137,255,o),
(137,122,cs),
(137,73,o),
(160,50,o),
(203,50,cs),
(262,50,o),
(333,83,o),
(406,147,c),
(417,114,o),
(431,92,o),
(448,92,cs),
(460,92,o),
(471,97,o),
(471,112,cs),
(471,131,o),
(459,152,o),
(445,184,c),
(531,271,o),
(605,376,o),
(643,453,c),
(764,440,o),
(837,352,o),
(837,254,cs),
(837,90,o),
(670,11,o),
(433,-14,c),
(438,-37,l),
(689,-29,o),
(888,59,o),
(888,241,cs),
(888,350,o),
(807,462,o),
(655,480,c),
(660,494,o),
(658,504,o),
(648,516,cs),
(628,538,o),
(597,550,o),
(562,560,c),
(552,542,l),
(593,520,o),
(611,510,o),
(605,482,c),
(533,481,o),
(466,466,o),
(418,445,c),
(423,494,o),
(432,548,o),
(442,593,c)
);
},
{
closed = 1;
nodes = (
(429,582,ls),
(541,597,o),
(674,637,o),
(714,656,cs),
(729,663,o),
(731,669,o),
(731,677,cs),
(731,689,o),
(716,699,o),
(690,699,cs),
(669,699,o),
(591,646,o),
(429,620,c),
(418,617,l),
(382,612,o),
(347,611,o),
(314,611,cs),
(266,611,o),
(237,616,o),
(183,662,c),
(165,644,l),
(216,582,o),
(253,573,o),
(310,573,cs),
(343,573,o),
(379,577,o),
(410,580,cs)
);
}
);
width = 1000;
},
{
layerId = "22BF860B-E605-42C1-AA52-30D9AB94E7CE";
shapes = (
{
closed = 1;
nodes = (
(422,378,o),
(423,395,o),
(424,414,c),
(481,440,o),
(533,453,o),
(590,455,c),
(564,392,o),
(501,304,o),
(440,239,c),
(430,271,o),
(422,310,o),
(422,362,cs)
);
},
{
closed = 1;
nodes = (
(194,106,o),
(185,116,o),
(185,142,cs),
(185,209,o),
(255,312,o),
(366,382,c),
(365,369,o),
(365,357,o),
(365,345,cs),
(365,292,o),
(371,234,o),
(382,185,c),
(328,141,o),
(264,106,o),
(217,106,cs)
);
},
{
closed = 1;
nodes = (
(552,545,l),
(587,524,o),
(602,510,o),
(600,486,c),
(538,484,o),
(478,472,o),
(429,454,c),
(434,494,o),
(441,536,o),
(449,575,c),
(557,592,o),
(669,624,o),
(712,643,cs),
(732,651,o),
(740,661,o),
(740,676,cs),
(740,697,o),
(718,710,o),
(679,710,cs),
(662,710,o),
(594,665,o),
(463,637,c),
(467,651,o),
(470,663,o),
(473,674,cs),
(481,710,o),
(502,716,o),
(502,738,cs),
(502,759,o),
(446,793,o),
(388,793,cs),
(373,793,o),
(350,786,o),
(332,780,c),
(331,761,l),
(352,758,o),
(372,754,o),
(389,748,cs),
(404,743,o),
(408,738,o),
(408,720,cs),
(408,702,o),
(403,668,o),
(397,626,c),
(367,622,o),
(337,620,o),
(306,620,cs),
(254,620,o),
(220,630,o),
(168,670,c),
(153,656,l),
(191,587,o),
(226,560,o),
(296,560,cs),
(326,560,o),
(358,562,o),
(388,566,c),
(381,521,o),
(374,473,o),
(370,428,c),
(248,366,o),
(121,246,o),
(121,114,cs),
(121,60,o),
(148,33,o),
(195,33,cs),
(255,33,o),
(329,65,o),
(402,126,c),
(414,99,o),
(431,81,o),
(450,81,cs),
(470,81,o),
(485,90,o),
(485,113,cs),
(485,135,o),
(474,156,o),
(462,184,c),
(542,268,o),
(614,371,o),
(647,452,c),
(755,435,o),
(819,356,o),
(819,260,cs),
(819,110,o),
(678,12,o),
(429,-25,c),
(433,-46,l),
(701,-41,o),
(900,45,o),
(900,240,cs),
(900,355,o),
(812,465,o),
(659,483,c),
(662,497,o),
(659,508,o),
(649,519,cs),
(629,540,o),
(598,551,o),
(562,560,c)
);
}
);
width = 1000;
},
{
layerId = "027B829E-3619-44FF-8C68-78647B0AD671";
shapes = (
{
closed = 1;
nodes = (
(440,382,o),
(441,400,o),
(443,418,c),
(494,441,o),
(538,452,o),
(580,454,c),
(560,399,o),
(508,324,o),
(455,267,c),
(446,294,o),
(440,326,o),
(440,365,cs)
);
},
{
closed = 1;
nodes = (
(204,124,o),
(198,131,o),
(198,146,cs),
(198,206,o),
(253,299,o),
(343,363,c),
(342,350,o),
(342,337,o),
(342,325,cs),
(342,275,o),
(347,225,o),
(357,182,c),
(308,149,o),
(255,124,o),
(218,124,cs)
);
},
{
closed = 1;
nodes = (
(553,549,l),
(576,532,o),
(587,514,o),
(588,493,c),
(541,491,o),
(494,483,o),
(449,469,c),
(453,498,o),
(459,528,o),
(465,558,c),
(568,576,o),
(659,600,o),
(709,619,cs),
(738,630,o),
(755,647,o),
(755,675,cs),
(755,711,o),
(722,729,o),
(659,729,cs),
(649,729,o),
(588,691,o),
(490,664,c),
(492,673,ls),
(501,711,o),
(531,728,o),
(531,757,cs),
(531,787,o),
(450,820,o),
(391,820,cs),
(367,820,o),
(332,802,o),
(310,787,c),
(311,777,l),
(331,772,o),
(353,766,o),
(367,760,cs),
(384,753,o),
(388,747,o),
(388,728,cs),
(388,707,o),
(385,677,o),
(380,643,c),
(352,639,o),
(322,637,o),
(292,637,cs),
(233,637,o),
(191,656,o),
(142,684,c),
(133,677,l),
(146,596,o),
(179,538,o),
(270,538,cs),
(300,538,o),
(333,540,o),
(365,543,c),
(359,506,o),
(353,467,o),
(349,429,c),
(203,356,o),
(92,231,o),
(92,101,cs),
(92,37,o),
(128,4,o),
(181,4,cs),
(246,4,o),
(324,35,o),
(396,93,c),
(411,73,o),
(431,61,o),
(454,61,cs),
(488,61,o),
(511,77,o),
(511,114,cs),
(511,140,o),
(502,162,o),
(491,186,c),
(562,266,o),
(626,364,o),
(655,447,c),
(737,426,o),
(787,360,o),
(787,271,cs),
(787,146,o),
(693,14,o),
(422,-44,c),
(425,-62,l),
(721,-63,o),
(920,21,o),
(920,237,cs),
(920,362,o),
(820,471,o),
(664,491,c),
(664,503,o),
(660,514,o),
(651,523,cs),
(631,543,o),
(601,554,o),
(561,559,c)
);
}
);
width = 1000;
}
);
unicode = 12354;
}
{
glyphname = "voicedcomb-kana";
layers = (
{
layerId = m01;
shapes = (
{
closed = 1;
nodes = (
(-256,655,o),
(-256,666,qs),
(-256,694,o),
(-294,729,qs),
(-312,746,o),
(-365,782,o),
(-403,800,q),
(-419,780,l),
(-387,759,o),
(-342,716,o),
(-326,697,qs),
(-309,677,o),
(-289,644,o),
(-278,644,qs),
(-268,644,o)
);
},
{
closed = 1;
nodes = (
(-159,737,o),
(-159,749,qs),
(-159,779,o),
(-198,812,qs),
(-216,827,o),
(-270,859,o),
(-308,875,q),
(-323,856,l),
(-290,834,o),
(-248,798,o),
(-230,778,qs),
(-213,759,o),
(-192,726,o),
(-181,726,qs),
(-172,726,o)
);
}
);
width = 0;
},
{
layerId = "22BF860B-E605-42C1-AA52-30D9AB94E7CE";
shapes = (
{
closed = 1;
nodes = (
(-256,664,o),
(-256,678,qs),
(-256,705,o),
(-291,738,qs),
(-312,758,o),
(-373,792,o),
(-414,806,q),
(-427,789,l),
(-394,764,o),
(-350,713,o),
(-335,693,qs),
(-319,674,o),
(-299,647,o),
(-287,647,qs),
(-272,647,o)
);
},
{
closed = 1;
nodes = (
(-157,740,o),
(-157,754,qs),
(-157,787,o),
(-195,818,qs),
(-214,834,o),
(-274,863,o),
(-316,876,q),
(-329,859,l),
(-293,833,o),
(-252,790,o),
(-236,771,qs),
(-220,752,o),
(-199,724,o),
(-186,724,qs),
(-173,724,o)
);
}
);
width = 0;
},
{
layerId = "027B829E-3619-44FF-8C68-78647B0AD671";
shapes = (
{
closed = 1;
nodes = (
(-257,679,o),
(-257,697,qs),
(-257,724,o),
(-285,752,qs),
(-311,778,o),
(-386,808,o),
(-432,817,q),
(-441,804,l),
(-406,771,o),
(-364,707,o),
(-349,686,qs),
(-336,669,o),
(-315,652,o),
(-302,652,qs),
(-280,652,o)
);
},
{
closed = 1;
nodes = (
(-154,744,o),
(-154,763,qs),
(-154,801,o),
(-189,827,qs),
(-212,845,o),
(-280,870,o),
(-330,877,q),
(-339,865,l),
(-298,831,o),
(-259,776,o),
(-246,759,qs),
(-232,740,o),
(-211,721,o),
(-195,721,qs),
(-176,721,o)
);
}
);
width = 0;
}
);
unicode = 12441;
}
{
glyphname = "semivoicedcomb-kana";
layers = (
{
layerId = m01;
shapes = (
{
closed = 1;
nodes = (
(-183,689,o),
(-154,738,o),
(-154,768,qs),
(-154,798,o),
(-183,847,o),
(-233,877,o),
(-263,877,qs),
(-293,877,o),
(-342,847,o),
(-372,798,o),
(-372,768,qs),
(-372,738,o),
(-342,689,o),
(-293,659,o),
(-263,659,qs),
(-233,659,o)
);
},
{
closed = 1;
nodes = (
(-342,735,o),
(-342,768,qs),
(-342,801,o),
(-296,847,o),
(-263,847,qs),
(-230,847,o),
(-184,801,o),
(-184,768,qs),
(-184,735,o),
(-230,689,o),
(-263,689,qs),
(-296,689,o)
);
}
);
width = 0;
},
{
layerId = "22BF860B-E605-42C1-AA52-30D9AB94E7CE";
shapes = (
{
closed = 1;
nodes = (
(-178,678,o),
(-147,730,o),
(-147,762,qs),
(-147,794,o),
(-178,846,o),
(-230,877,o),
(-262,877,qs),
(-294,877,o),
(-346,846,o),
(-377,794,o),
(-377,762,qs),
(-377,730,o),
(-346,678,o),
(-294,647,o),
(-262,647,qs),
(-230,647,o)
);
},
{
closed = 1;
nodes = (
(-341,729,o),
(-341,762,qs),
(-341,795,o),
(-295,841,o),
(-262,841,qs),
(-229,841,o),
(-183,795,o),
(-183,762,qs),
(-183,729,o),
(-229,683,o),
(-262,683,qs),
(-295,683,o)
);
}
);
width = 0;
},
{
layerId = "027B829E-3619-44FF-8C68-78647B0AD671";
shapes = (
{
closed = 1;
nodes = (
(-169,660,o),
(-135,717,o),
(-135,752,qs),
(-135,787,o),
(-169,843,o),
(-225,877,o),
(-260,877,qs),
(-295,877,o),
(-352,843,o),
(-386,787,o),
(-386,752,qs),
(-386,717,o),
(-352,660,o),
(-295,626,o),
(-260,626,qs),
(-225,626,o)
);
},
{
closed = 1;
nodes = (
(-339,719,o),
(-339,752,qs),
(-339,784,o),
(-293,830,o),
(-260,830,qs),
(-228,830,o),
(-182,784,o),
(-182,752,qs),
(-182,719,o),
(-228,673,o),
(-260,673,qs),
(-293,673,o)
);
}
);
width = 0;
}
);
unicode = 12442;
}
{
export = 0;
glyphname = "ho-kata";
layers = (
{
layerId = m01;
width = 1000;
},
{
layerId = "22BF860B-E605-42C1-AA52-30D9AB94E7CE";
shapes = (
{
closed = 1;
nodes = (
(295,349,l),
(276,295,o),
(249,245,o),
(182,192,cs),
(145,163,o),
(123,157,o),
(123,126,cs),
(123,103,o),
(139,85,o),
(164,85,cs),
(242,85,o),
(312,232,o),
(319,344,c)
);
},
{
closed = 1;
nodes = (
(394,712,l),
(444,704,o),
(467,697,o),
(472,668,cs),
(476,648,o),
(478,587,o),
(479,525,c),
(402,516,o),
(243,497,o),
(197,497,cs),
(173,496,o),
(154,519,o),
(133,546,c),
(116,539,l),
(118,520,o),
(120,493,o),
(127,479,cs),
(144,445,o),
(183,413,o),
(207,413,cs),
(232,413,o),
(244,432,o),
(283,440,cs),
(334,451,o),
(416,464,o),
(480,471,c),
(481,391,ls),
(481,306,o),
(481,148,o),
(477,100,cs),
(476,86,o),
(469,85,o),
(457,87,cs),
(432,91,o),
(394,103,o),
(358,114,c),
(349,94,l),
(382,75,o),
(414,49,o),
(431,28,cs),
(453,-3,o),
(452,-23,o),
(484,-23,cs),
(524,-23,o),
(552,27,o),
(552,72,cs),
(552,103,o),
(546,307,o),
(546,390,cs),
(546,415,o),
(546,446,o),
(547,478,c),
(613,486,o),
(689,493,o),
(729,493,cs),
(776,493,o),
(807,489,o),
(839,489,cs),
(865,489,o),
(876,498,o),
(876,520,cs),
(876,550,o),
(820,575,o),
(781,575,cs),
(758,575,o),
(749,559,o),
(548,533,c),
(549,574,o),
(550,611,o),
(553,634,cs),
(555,663,o),
(575,666,o),
(575,686,cs),
(575,711,o),
(518,745,o),
(474,747,cs),
(449,747,o),
(417,740,o),
(393,732,c)
);
},
{
closed = 1;
nodes = (
(663,343,l),
(732,291,o),
(774,228,o),
(802,175,cs),
(820,142,o),
(833,108,o),
(865,108,cs),
(893,108,o),
(907,131,o),
(903,163,cs),
(889,250,o),
(783,324,o),
(675,360,c)
);
}
);
width = 1000;
},
{
layerId = "027B829E-3619-44FF-8C68-78647B0AD671";
shapes = (
{
closed = 1;
nodes = (
(285,367,l),
(266,317,o),
(236,276,o),
(188,236,cs),
(128,187,o),
(99,180,o),
(99,125,cs),
(99,83,o),
(127,56,o),
(166,56,cs),
(272,56,o),
(312,240,o),
(301,366,c)
);
},
{
closed = 1;
nodes = (
(366,729,l),
(402,717,o),
(430,708,o),
(441,687,cs),
(447,676,o),
(451,616,o),
(453,550,c),
(368,541,o),
(230,528,o),
(184,528,cs),
(151,528,o),
(137,539,o),
(109,572,c),
(97,568,l),
(94,549,o),
(92,510,o),
(100,489,cs),
(118,443,o),
(166,398,o),
(203,398,cs),
(233,398,o),
(258,422,o),
(294,431,cs),
(338,443,o),
(397,454,o),
(456,461,c),
(457,395,ls),
(458,310,o),
(460,173,o),
(455,118,cs),
(454,105,o),
(449,102,o),
(438,102,cs),
(412,102,o),
(375,107,o),
(329,115,c),
(323,101,l),
(359,76,o),
(384,46,o),
(395,21,cs),
(420,-31,o),
(421,-50,o),
(471,-50,cs),
(532,-50,o),
(581,26,o),
(581,83,cs),
(581,129,o),
(568,277,o),
(568,395,cs),
(568,418,o),
(568,445,o),
(568,472,c),
(627,477,o),
(680,480,o),
(717,480,cs),
(784,480,o),
(820,471,o),
(863,471,cs),
(893,471,o),
(911,486,o),
(911,516,cs),
(911,574,o),
(829,604,o),
(780,604,cs),
(752,604,o),
(747,590,o),
(572,565,c),
(574,592,o),
(576,617,o),
(581,637,cs),
(586,664,o),
(603,675,o),
(603,701,cs),
(603,737,o),
(522,778,o),
(466,778,cs),
(427,778,o),
(389,759,o),
(365,743,c)
);
},
{
closed = 1;
nodes = (
(654,361,l),
(719,299,o),
(750,240,o),
(784,157,cs),
(798,122,o),
(816,82,o),
(863,82,cs),
(906,82,o),
(932,115,o),
(931,160,cs),
(926,273,o),
(796,353,o),
(662,374,c)
);
}
);
width = 1000;
}
);
unicode = 12507;
}
{
glyphname = "archaicE-katakana";
layers = (
{
layerId = m01;
shapes = (
{
closed = 1;
nodes = (
(452,629,o),
(539,660,o),
(585,665,cs),
(613,668,o),
(623,669,o),
(637,669,cs),
(660,669,o),
(667,679,o),
(667,690,cs),
(667,711,o),
(636,723,o),
(612,723,cs),
(596,723,o),
(588,721,o),
(565,722,cs),
(496,725,o),
(435,754,o),
(390,798,c),
(375,785,l),
(417,723,o),
(511,677,o),
(540,676,c),
(546,694,l),
(523,684,o),
(452,656,o),
(403,633,c),
(412,615,l)
);
},
{
closed = 1;
nodes = (
(310,52,o),
(583,208,o),
(746,451,cs),
(753,461,o),
(762,466,o),
(769,472,cs),
(777,478,o),
(792,483,o),
(792,492,cs),
(792,522,o),
(727,548,o),
(705,548,cs),
(689,548,o),
(687,536,o),
(671,533,cs),
(582,514,o),
(370,462,o),
(342,462,cs),
(309,462,o),
(288,486,o),
(280,523,c),
(262,517,l),
(256,503,o),
(256,494,o),
(256,482,cs),
(256,449,o),
(321,406,o),
(343,406,cs),
(365,406,o),
(375,421,o),
(392,427,cs),
(444,446,o),
(675,507,o),
(695,507,cs),
(705,507,o),
(712,504,o),
(712,496,cs),
(712,488,o),
(705,480,o),
(697,467,cs),
(571,256,o),
(310,92,o),
(84,2,c),
(93,-16,l)
);
}
);
width = 1000;
},
{
layerId = "22BF860B-E605-42C1-AA52-30D9AB94E7CE";
shapes = (
{
closed = 1;
nodes = (
(445,644,o),
(509,664,o),
(548,668,cs),
(587,671,o),
(607,664,o),
(629,664,cs),
(656,664,o),
(678,675,o),
(678,698,cs),
(678,730,o),
(640,750,o),
(608,750,cs),
(592,750,o),
(577,747,o),
(550,748,cs),
(489,749,o),
(424,770,o),
(375,812,c),
(364,800,l),
(398,734,o),
(496,681,o),
(529,680,c),
(524,713,l),
(497,698,o),
(439,670,o),
(394,644,c),
(401,630,l)
);
},
{
closed = 1;
nodes = (
(324,45,o),
(582,188,o),
(753,429,cs),
(765,446,o),
(779,453,o),
(788,458,cs),
(804,466,o),
(819,473,o),
(819,486,cs),
(819,520,o),
(746,572,o),
(701,572,cs),
(687,572,o),
(676,560,o),
(659,556,cs),
(565,536,o),
(357,491,o),
(326,491,cs),
(297,491,o),
(275,509,o),
(267,546,c),
(252,543,l),
(240,524,o),
(235,508,o),
(235,489,cs),
(235,452,o),
(295,407,o),
(328,407,cs),
(354,407,o),
(366,424,o),
(388,435,cs),
(446,463,o),
(656,516,o),
(679,516,cs),
(689,516,o),
(695,513,o),
(695,507,cs),
(695,499,o),
(686,483,o),
(676,467,cs),
(566,280,o),
(325,98,o),
(73,-6,c),
(82,-25,l)
);
}
);
width = 1000;
},
{
layerId = "027B829E-3619-44FF-8C68-78647B0AD671";
shapes = (
{
closed = 1;
nodes = (
(432,669,o),
(459,670,o),
(485,672,cs),
(543,677,o),
(581,655,o),
(615,655,cs),
(648,655,o),
(697,669,o),
(697,710,cs),
(697,761,o),
(646,795,o),
(602,795,cs),
(586,795,o),
(559,790,o),
(526,790,cs),
(477,790,o),
(405,797,o),
(350,834,c),
(345,826,l),
(367,753,o),
(471,687,o),
(510,686,c),
(486,744,l),
(453,722,o),
(417,692,o),
(378,662,c),
(382,655,l)
);
},
{
closed = 1;
nodes = (
(347,32,o),
(581,154,o),
(764,393,cs),
(784,420,o),
(808,431,o),
(820,435,cs),
(849,445,o),
(863,455,o),
(863,477,cs),
(863,517,o),
(778,612,o),
(694,612,cs),
(684,612,o),
(658,599,o),
(639,595,cs),
(537,573,o),
(336,539,o),
(300,539,cs),
(277,539,o),
(254,547,o),
(246,584,c),
(236,585,l),
(213,560,o),
(199,531,o),
(199,501,cs),
(199,458,o),
(251,409,o),
(303,409,cs),
(336,409,o),
(351,430,o),
(381,449,cs),
(449,491,o),
(623,531,o),
(653,531,cs),
(663,531,o),
(667,529,o),
(667,524,cs),
(667,516,o),
(653,488,o),
(641,467,cs),
(558,320,o),
(350,107,o),
(55,-19,c),
(64,-40,l)
);
}
);
width = 1000;
}
);
script = " other";
unicode = 110592;
}
{
category = Letter;
glyphname = "a-1-kana";
layers = (
{
backgroundImage = {
imagePath = _sketch/u1B002.png;
locked = 1;
pos = (0,-120);
};
layerId = m01;
shapes = (
{
closed = 1;
nodes = (
(521,289,o),
(552,365,o),
(585,472,c),
(568,474,l),
(539,384,o),
(496,313,o),
(403,220,cs),
(347,165,o),
(262,96,o),
(206,96,cs),
(189,96,o),
(178,108,o),
(178,139,cs),
(178,213,o),
(264,328,o),
(396,402,cs),
(464,438,o),
(527,459,o),
(608,455,cs),
(768,447,o),
(837,356,o),
(837,254,cs),
(837,90,o),
(670,11,o),
(433,-14,c),
(438,-37,l),
(689,-29,o),
(888,59,o),
(888,241,cs),
(888,354,o),
(811,482,o),
(619,482,cs),
(538,482,o),
(462,467,o),
(390,433,cs),
(282,381,o),
(137,258,o),
(137,122,cs),
(137,73,o),
(160,50,o),
(203,50,cs),
(255,50,o),
(341,117,o),
(417,187,cs)
);
},
{
closed = 1;
nodes = (
(286,554,o),
(253,554,cs),
(224,554,o),
(212,561,o),
(212,589,cs),
(212,599,o),
(214,610,o),
(216,623,c),
(188,625,l),
(182,608,o),
(179,593,o),
(179,580,cs),
(179,524,o),
(227,505,o),
(257,505,cs),
(291,505,o),
(303,526,o),
(364,551,cs),
(465,592,o),
(573,652,o),
(688,652,cs),
(742,652,o),
(792,635,o),
(792,605,cs),
(792,581,o),
(761,565,o),
(719,565,cs),
(657,565,o),
(615,577,o),
(587,592,c),
(585,569,l),
(645,544,o),
(672,532,o),
(736,532,cs),
(774,532,o),
(838,550,o),
(838,594,cs),
(838,653,o),
(764,678,o),
(689,678,cs),
(551,678,o)
);
},
{
closed = 1;
nodes = (
(411,149,o),
(474,44,o),
(510,44,cs),
(521,44,o),
(537,49,o),
(537,73,cs),
(537,78,o),
(527,94,o),
(527,104,cs),
(527,159,o),
(577,425,o),
(585,472,c),
(568,474,l),
(559,405,o),
(507,174,o),
(498,140,cs),
(493,121,o),
(484,106,o),
(470,124,cs),
(450,149,o),
(441,174,o),
(424,236,cs),
(414,272,o),
(412,297,o),
(412,360,cs),
(412,457,o),
(432,584,o),
(466,686,c),
(474,721,o),
(490,720,o),
(490,739,cs),
(490,755,o),
(447,789,o),
(390,789,cs),
(381,789,o),
(364,788,o),
(348,787,c),
(347,763,l),
(368,761,o),
(387,759,o),
(406,753,cs),
(420,748,o),
(424,744,o),
(424,727,cs),
(424,711,o),
(417,656,o),
(405,602,cs),
(390,531,o),
(378,410,o),
(378,356,cs),
(378,297,o),
(385,248,o),
(399,195,cs)
);
}
);
width = 1000;
},
{
layerId = "22BF860B-E605-42C1-AA52-30D9AB94E7CE";
shapes = (
{
closed = 1;
nodes = (
(513,269,o),
(540,365,o),
(573,472,c),
(556,474,l),
(527,384,o),
(489,317,o),
(396,224,cs),
(340,169,o),
(263,107,o),
(215,107,cs),
(198,107,o),
(187,116,o),
(187,147,cs),
(187,214,o),
(261,320,o),
(390,392,cs),
(461,430,o),
(527,448,o),
(601,445,cs),
(752,440,o),
(816,356,o),
(816,254,cs),
(816,99,o),
(660,8,o),
(430,-26,c),
(434,-45,l),
(701,-42,o),
(901,43,o),
(901,237,cs),
(901,361,o),
(806,483,o),
(614,483,cs),
(537,483,o),
(458,469,o),
(383,434,cs),
(278,383,o),
(121,269,o),
(121,115,cs),
(121,63,o),
(149,31,o),
(196,31,cs),
(256,31,o),
(347,102,o),
(419,173,cs)
);
},
{
closed = 1;
nodes = (
(289,572,o),
(252,572,cs),
(227,572,o),
(216,579,o),
(216,600,cs),
(216,611,o),
(220,624,o),
(223,637,c),
(203,640,l),
(177,627,o),
(157,604,o),
(157,584,cs),
(157,532,o),
(210,499,o),
(247,499,cs),
(293,499,o),
(307,526,o),
(368,552,cs),
(473,597,o),
(586,647,o),
(681,647,cs),
(723,647,o),
(764,634,o),
(764,611,cs),
(764,589,o),
(734,577,o),
(696,577,cs),
(642,577,o),
(601,586,o),
(572,599,c),
(569,581,l),
(624,541,o),
(665,522,o),
(729,522,cs),
(789,522,o),
(850,549,o),
(850,599,cs),
(850,658,o),
(779,689,o),
(692,689,cs),
(543,689,o)
);
},
{
closed = 1;
nodes = (
(409,128,o),
(471,49,o),
(519,49,cs),
(545,49,o),
(565,64,o),
(565,88,cs),
(565,100,o),
(552,109,o),
(550,127,cs),
(548,174,o),
(569,422,o),
(573,472,c),
(556,474,l),
(547,405,o),
(516,195,o),
(510,158,cs),
(506,140,o),
(498,128,o),
(484,142,cs),
(460,163,o),
(451,186,o),
(435,238,cs),
(422,277,o),
(420,309,o),
(420,372,cs),
(420,466,o),
(436,583,o),
(471,685,c),
(480,720,o),
(501,728,o),
(501,747,cs),
(501,770,o),
(444,803,o),
(387,803,cs),
(374,803,o),
(348,796,o),
(330,787,c),
(330,768,l),
(351,766,o),
(368,765,o),
(387,759,cs),
(401,754,o),
(405,749,o),
(405,732,cs),
(405,716,o),
(397,656,o),
(387,593,cs),
(375,522,o),
(363,410,o),
(363,356,cs),
(363,282,o),
(373,232,o),
(390,182,cs)
);
}
);
width = 1000;
},
{
background = {
shapes = (
{
closed = 1;
nodes = (
(440,382,o),
(441,400,o),
(443,418,c),
(494,441,o),
(538,452,o),
(580,454,c),
(560,399,o),
(508,324,o),
(455,267,c),
(446,294,o),
(440,326,o),
(440,365,cs)
);
},
{
closed = 1;
nodes = (
(204,124,o),
(198,131,o),
(198,146,cs),
(198,206,o),
(253,299,o),
(343,363,c),
(342,350,o),
(342,337,o),
(342,325,cs),
(342,275,o),
(347,225,o),
(357,182,c),
(308,149,o),
(255,124,o),
(218,124,cs)
);
},
{
closed = 1;
nodes = (
(553,549,l),
(576,532,o),
(587,514,o),
(588,493,c),
(541,491,o),
(494,483,o),
(449,469,c),
(453,498,o),
(459,528,o),
(465,558,c),
(568,576,o),
(659,600,o),
(709,619,cs),
(738,630,o),
(755,647,o),
(755,675,cs),
(755,711,o),
(722,729,o),
(659,729,cs),
(649,729,o),
(588,691,o),
(490,664,c),
(492,673,ls),
(501,711,o),
(531,728,o),
(531,757,cs),
(531,787,o),
(450,820,o),
(391,820,cs),
(367,820,o),
(332,802,o),
(310,787,c),
(311,777,l),
(331,772,o),
(353,766,o),
(367,760,cs),
(384,753,o),
(388,747,o),
(388,728,cs),
(388,707,o),
(385,677,o),
(380,643,c),
(352,639,o),
(322,637,o),
(292,637,cs),
(233,637,o),
(191,656,o),
(142,684,c),
(133,677,l),
(146,596,o),
(179,538,o),
(270,538,cs),
(300,538,o),
(333,540,o),
(365,543,c),
(359,506,o),
(353,467,o),
(349,429,c),
(203,356,o),
(92,231,o),
(92,101,cs),
(92,37,o),
(128,4,o),
(181,4,cs),
(246,4,o),
(324,35,o),
(396,93,c),
(411,73,o),
(431,61,o),
(454,61,cs),
(488,61,o),
(511,77,o),
(511,114,cs),
(511,140,o),
(502,162,o),
(491,186,c),
(562,266,o),
(626,364,o),
(655,447,c),
(737,426,o),
(787,360,o),
(787,271,cs),
(787,146,o),
(693,14,o),
(422,-44,c),
(425,-62,l),
(721,-63,o),
(920,21,o),
(920,237,cs),
(920,362,o),
(820,471,o),
(664,491,c),
(664,503,o),
(660,514,o),
(651,523,cs),
(631,543,o),
(601,554,o),
(561,559,c)
);
}
);
};
layerId = "027B829E-3619-44FF-8C68-78647B0AD671";
shapes = (
{
closed = 1;
nodes = (
(500,236,o),
(520,366,o),
(553,473,c),
(536,475,l),
(507,385,o),
(476,324,o),
(383,231,cs),
(327,176,o),
(265,125,o),
(229,125,cs),
(212,125,o),
(202,128,o),
(202,159,cs),
(202,215,o),
(256,306,o),
(381,375,cs),
(456,416,o),
(528,429,o),
(589,429,cs),
(724,429,o),
(780,356,o),
(780,254,cs),
(780,113,o),
(642,4,o),
(425,-45,c),
(428,-59,l),
(721,-63,o),
(923,17,o),
(923,231,cs),
(923,373,o),
(798,485,o),
(606,485,cs),
(535,485,o),
(452,473,o),
(372,435,cs),
(272,387,o),
(93,288,o),
(93,102,cs),
(93,46,o),
(130,0,o),
(185,0,cs),
(257,0,o),
(356,78,o),
(421,149,cs)
);
},
{
closed = 1;
nodes = (
(294,601,o),
(251,601,cs),
(232,601,o),
(222,608,o),
(222,619,cs),
(222,631,o),
(229,646,o),
(235,659,c),
(228,665,l),
(168,658,o),
(119,623,o),
(119,590,cs),
(119,544,o),
(181,490,o),
(231,490,cs),
(295,490,o),
(314,525,o),
(375,554,cs),
(486,606,o),
(608,638,o),
(670,638,cs),
(692,638,o),
(718,633,o),
(718,620,cs),
(718,602,o),
(690,596,o),
(658,596,cs),
(618,596,o),
(577,602,o),
(547,610,c),
(541,601,l),
(589,535,o),
(652,506,o),
(716,506,cs),
(814,506,o),
(869,547,o),
(869,608,cs),
(869,667,o),
(803,708,o),
(698,708,cs),
(530,708,o)
);
},
{
closed = 1;
nodes = (
(405,92,o),
(466,57,o),
(535,57,cs),
(586,57,o),
(612,88,o),
(612,112,cs),
(612,137,o),
(594,134,o),
(589,164,cs),
(583,199,o),
(555,416,o),
(553,473,c),
(536,475,l),
(527,406,o),
(531,229,o),
(529,189,cs),
(528,171,o),
(521,165,o),
(507,171,cs),
(477,185,o),
(467,206,o),
(453,240,cs),
(436,284,o),
(433,330,o),
(433,393,cs),
(433,480,o),
(443,580,o),
(479,683,cs),
(491,717,o),
(520,740,o),
(520,759,cs),
(520,795,o),
(438,825,o),
(381,825,cs),
(362,825,o),
(322,808,o),
(300,787,c),
(301,777,l),
(322,775,o),
(335,774,o),
(354,768,cs),
(368,763,o),
(374,758,o),
(374,741,cs),
(374,725,o),
(364,655,o),
(356,579,cs),
(349,508,o),
(338,410,o),
(338,356,cs),
(338,258,o),
(354,205,o),
(374,160,cs)
);
}
);
width = 1000;
}
);
production = u1B002;
script = hentaigana;
unicode = 110594;
}
{
category = Letter;
glyphname = "a-2-kana";
layers = (
{
backgroundImage = {
imagePath = _sketch/u1B003.png;
locked = 1;
pos = (0,-120);
};
layerId = m01;
shapes = (
{
closed = 1;
nodes = (
(268,678,l),
(289,654,o),
(329,632,o),
(378,632,cs),
(426,632,o),
(628,666,o),
(654,673,cs),
(680,678,o),
(703,689,o),
(703,698,cs),
(703,706,o),
(688,717,o),
(668,717,cs),
(647,717,o),
(606,697,o),
(587,694,cs),
(567,690,o),
(448,661,o),
(384,661,cs),
(320,661,o),
(317,676,o),
(279,692,c)
);
},
{
closed = 1;
nodes = (
(460,758,o),
(473,751,o),
(473,725,cs),
(473,699,o),
(473,505,o),
(473,410,cs),
(473,386,o),
(467,381,o),
(449,397,cs),
(420,423,o),
(308,519,o),
(254,519,cs),
(189,519,o),
(128,423,o),
(128,375,cs),
(128,336,o),
(161,320,o),
(185,320,cs),
(211,320,o),
(232,341,o),
(270,366,cs),
(313,394,o),
(590,541,o),
(713,541,cs),
(764,541,o),
(813,525,o),
(812,467,cs),
(811,429,o),
(764,402,o),
(695,371,cs),
(645,349,o),
(531,297,o),
(506,285,cs),
(457,261,o),
(430,244,o),
(430,205,cs),
(430,171,o),
(484,159,o),
(519,154,c),
(508,172,l),
(478,160,o),
(405,105,o),
(405,61,cs),
(405,7,o),
(449,-25,o),
(610,-25,cs),
(629,-25,o),
(653,-21,o),
(653,-5,cs),
(653,11,o),
(640,22,o),
(604,22,cs),
(578,22,o),
(445,20,o),
(445,65,cs),
(445,110,o),
(518,148,o),
(537,148,cs),
(557,148,o),
(584,147,o),
(584,164,cs),
(584,179,o),
(563,185,o),
(539,185,cs),
(517,185,o),
(463,184,o),
(463,213,cs),
(463,239,o),
(508,262,o),
(560,283,cs),
(601,299,o),
(699,343,o),
(751,364,cs),
(830,396,o),
(858,417,o),
(858,462,cs),
(858,527,o),
(798,565,o),
(723,565,cs),
(634,565,o),
(546,526,o),
(483,502,cs),
(404,472,o),
(202,368,o),
(183,368,cs),
(171,368,o),
(168,377,o),
(168,384,cs),
(168,422,o),
(216,499,o),
(244,499,cs),
(311,499,o),
(405,396,o),
(438,363,cs),
(456,344,o),
(466,319,o),
(490,319,cs),
(505,319,o),
(512,343,o),
(512,385,cs),
(512,408,o),
(507,424,o),
(507,539,cs),
(507,598,o),
(506,681,o),
(514,702,cs),
(522,722,o),
(531,724,o),
(531,739,cs),
(531,748,o),
(500,790,o),
(443,790,cs),
(433,790,o),
(423,789,o),
(411,787,c),
(411,767,l)
);
}
);
width = 1000;
},
{
layerId = "027B829E-3619-44FF-8C68-78647B0AD671";
width = 1000;
},
{
layerId = "22BF860B-E605-42C1-AA52-30D9AB94E7CE";
width = 1000;
}
);
production = u1B003;
script = hentaigana;
unicode = 110595;
}
{
category = Letter;
glyphname = "a-3-kana";
layers = (
{
backgroundImage = {
imagePath = _sketch/u1B004.png;
locked = 1;
pos = (0,-120);
};
layerId = m01;
shapes = (
{
closed = 1;
nodes = (
(85,703,l),
(115,671,o),
(166,656,o),
(206,656,cs),
(256,656,o),
(322,681,o),
(338,688,c),
(316,699,l),
(251,589,o),
(169,371,o),
(169,206,cs),
(169,151,o),
(172,97,o),
(179,57,cs),
(186,17,o),
(195,-14,o),
(222,-14,cs),
(243,-14,o),
(244,3,o),
(244,15,cs),
(244,37,o),
(212,110,o),
(212,216,cs),
(212,432,o),
(307,604,o),
(336,652,cs),
(352,678,o),
(390,675,o),
(390,702,cs),
(390,721,o),
(369,734,o),
(347,734,cs),
(325,734,o),
(256,701,o),
(199,701,cs),
(162,701,o),
(114,711,o),
(96,725,c)
);
},
{
closed = 1;
nodes = (
(491,732,l),
(583,656,o),
(714,634,o),
(774,634,cs),
(844,634,o),
(849,645,o),
(849,658,cs),
(849,681,o),
(818,690,o),
(790,690,cs),
(772,690,o),
(766,686,o),
(727,687,cs),
(678,689,o),
(584,698,o),
(503,754,c)
);
},
{
closed = 1;
nodes = (
(610,521,l),
(643,452,o),
(564,267,o),
(519,198,cs),
(495,162,o),
(483,147,o),
(464,147,cs),
(445,147,o),
(403,180,o),
(403,252,cs),
(403,419,o),
(537,513,o),
(643,513,cs),
(759,513,o),
(853,435,o),
(853,306,cs),
(853,157,o),
(743,52,o),
(555,-13,c),
(562,-30,l),
(714,0,o),
(904,108,o),
(904,288,cs),
(904,480,o),
(768,540,o),
(647,540,cs),
(508,540,o),
(362,428,o),
(362,248,cs),
(362,158,o),
(412,102,o),
(469,102,cs),
(493,102,o),
(529,136,o),
(558,185,cs),
(620,291,o),
(671,464,o),
(637,519,c)
);
}
);
width = 1000;
},
{
layerId = "027B829E-3619-44FF-8C68-78647B0AD671";
shapes = (
{
closed = 1;
nodes = (
(66,712,l),
(77,678,o),
(131,610,o),
(193,610,cs),
(245,610,o),
(314,626,o),
(331,633,c),
(268,685,l),
(200,570,o),
(112,361,o),
(112,179,cs),
(112,131,o),
(117,85,o),
(124,43,cs),
(134,-19,o),
(161,-57,o),
(199,-57,cs),
(271,-57,o),
(272,-14,o),
(272,-1,cs),
(272,22,o),
(239,98,o),
(239,209,cs),
(239,435,o),
(338,585,o),
(369,635,cs),
(385,663,o),
(425,660,o),
(425,708,cs),
(425,748,o),
(383,761,o),
(340,761,cs),
(297,761,o),
(225,703,o),
(165,703,cs),
(127,703,o),
(96,710,o),
(77,725,c)
);
},
{
closed = 1;
nodes = (
(451,769,l),
(547,650,o),
(674,623,o),
(787,623,cs),
(860,623,o),
(895,638,o),
(895,682,cs),
(895,726,o),
(823,755,o),
(794,755,cs),
(765,755,o),
(709,732,o),
(648,734,cs),
(607,735,o),
(558,734,o),
(463,782,c)
);
},
{
closed = 1;
nodes = (
(596,528,l),
(640,456,o),
(567,303,o),
(520,230,cs),
(495,193,o),
(485,188,o),
(466,188,cs),
(446,188,o),
(419,222,o),
(419,267,cs),
(419,422,o),
(539,503,o),
(650,503,cs),
(751,503,o),
(816,438,o),
(816,293,cs),
(816,167,o),
(759,22,o),
(538,-30,c),
(545,-48,l),
(792,-25,o),
(943,96,o),
(943,285,cs),
(943,485,o),
(781,548,o),
(654,548,cs),
(509,548,o),
(341,431,o),
(341,243,cs),
(341,129,o),
(388,54,o),
(468,54,cs),
(537,54,o),
(581,125,o),
(611,177,cs),
(676,288,o),
(669,469,o),
(625,526,c)
);
}
);
width = 1000;
},
{
layerId = "22BF860B-E605-42C1-AA52-30D9AB94E7CE";
shapes = (
{
closed = 1;
nodes = (
(78,706,l),
(101,674,o),
(153,639,o),
(201,639,cs),
(252,639,o),
(319,660,o),
(335,667,c),
(298,694,l),
(232,582,o),
(148,367,o),
(148,196,cs),
(148,144,o),
(151,93,o),
(158,52,cs),
(167,4,o),
(182,-30,o),
(213,-30,cs),
(254,-30,o),
(255,-3,o),
(255,9,cs),
(255,31,o),
(222,106,o),
(222,213,cs),
(222,433,o),
(319,597,o),
(348,646,cs),
(364,672,o),
(403,669,o),
(403,704,cs),
(403,731,o),
(374,744,o),
(344,744,cs),
(315,744,o),
(244,702,o),
(186,702,cs),
(149,702,o),
(107,711,o),
(89,725,c)
);
},
{
closed = 1;
nodes = (
(476,746,l),
(570,654,o),
(699,630,o),
(779,630,cs),
(850,630,o),
(866,642,o),
(866,667,cs),
(866,698,o),
(820,714,o),
(792,714,cs),
(769,714,o),
(745,703,o),
(697,705,cs),
(651,706,o),
(574,712,o),
(488,765,c)
);
},
{
closed = 1;
nodes = (
(605,524,l),
(642,454,o),
(565,281,o),
(519,210,cs),
(495,174,o),
(484,162,o),
(465,162,cs),
(445,162,o),
(409,196,o),
(409,258,cs),
(409,420,o),
(538,509,o),
(646,509,cs),
(756,509,o),
(839,436,o),
(839,301,cs),
(839,161,o),
(749,41,o),
(549,-19,c),
(556,-37,l),
(743,-9,o),
(919,104,o),
(919,287,cs),
(919,482,o),
(773,543,o),
(650,543,cs),
(508,543,o),
(354,429,o),
(354,246,cs),
(354,147,o),
(403,84,o),
(469,84,cs),
(510,84,o),
(549,132,o),
(578,182,cs),
(641,290,o),
(670,466,o),
(633,522,c)
);
}
);
width = 1000;
}
);
production = u1B004;
script = hentaigana;
unicode = 110596;
}
{
category = Letter;
glyphname = "a-Wo-kana";
layers = (
{
backgroundImage = {
imagePath = _sketch/u1B005.png;
locked = 1;
pos = (0,-120);
};
layerId = m01;
shapes = (
{
closed = 1;
nodes = (
(368,774,l),
(400,731,o),
(504,689,o),
(569,689,cs),
(594,689,o),
(624,692,o),
(624,708,cs),
(624,724,o),
(602,739,o),
(569,739,cs),
(556,739,o),
(555,736,o),
(533,736,cs),
(501,736,o),
(421,760,o),
(386,792,c)
);
},
{
closed = 1;
nodes = (
(194,586,l),
(191,581,o),
(190,571,o),
(190,569,cs),
(190,520,o),
(225,482,o),
(272,482,cs),
(293,482,o),
(303,499,o),
(331,513,cs),
(377,536,o),
(454,563,o),
(484,574,c),
(493,589,l),
(419,550,o),
(394,481,o),
(394,442,cs),
(394,393,o),
(444,350,o),
(490,350,c),
(526,370,l),
(465,351,o),
(298,238,o),
(240,189,cs),
(193,149,o),
(90,82,o),
(90,21,cs),
(90,0,o),
(93,-17,o),
(108,-17,cs),
(123,-17,o),
(137,-7,o),
(150,26,cs),
(163,59,o),
(243,161,o),
(316,161,cs),
(379,161,o),
(406,107,o),
(428,64,cs),
(443,36,o),
(457,-10,o),
(489,-10,cs),
(511,-10,o),
(509,5,o),
(524,42,cs),
(548,101,o),
(637,205,o),
(714,205,cs),
(801,205,o),
(859,112,o),
(859,79,cs),
(859,61,o),
(830,59,o),
(807,54,cs),
(700,30,l),
(704,7,l),
(762,17,o),
(802,25,o),
(827,25,cs),
(852,25,o),
(848,4,o),
(874,4,cs),
(901,4,o),
(910,21,o),
(910,43,cs),
(910,133,o),
(826,231,o),
(716,231,cs),
(645,231,o),
(579,171,o),
(551,142,cs),
(523,113,o),
(491,74,o),
(466,33,c),
(492,45,l),
(456,116,o),
(408,187,o),
(318,187,cs),
(288,187,o),
(230,169,o),
(195,143,c),
(219,130,l),
(318,225,o),
(442,304,o),
(483,324,cs),
(539,351,o),
(615,355,o),
(632,358,cs),
(649,361,o),
(672,362,o),
(672,378,cs),
(672,394,o),
(657,404,o),
(630,404,cs),
(603,404,o),
(563,386,o),
(500,386,cs),
(477,386,o),
(420,402,o),
(420,446,cs),
(420,490,o),
(482,550,o),
(516,567,cs),
(562,590,o),
(594,582,o),
(594,601,cs),
(594,620,o),
(569,626,o),
(549,626,cs),
(519,626,o),
(491,608,o),
(469,600,cs),
(447,592,o),
(268,530,o),
(254,530,cs),
(232,530,o),
(220,554,o),
(212,588,c)
);
}
);
width = 1000;
},
{
layerId = "027B829E-3619-44FF-8C68-78647B0AD671";
width = 1000;
},
{
layerId = "22BF860B-E605-42C1-AA52-30D9AB94E7CE";
width = 1000;
}
);
production = u1B005;
script = hentaigana;
unicode = 110597;
}
{
category = Letter;
glyphname = "i-1-kana";
layers = (
{
layerId = m01;
shapes = (
{
closed = 1;
nodes = (
(126,643,l),
(149,615,o),
(191,571,o),
(191,520,cs),
(191,459,o),
(135,350,o),
(135,228,cs),
(135,156,o),
(155,96,o),
(171,69,cs),
(187,42,o),
(195,37,o),
(210,37,cs),
(225,37,o),
(234,52,o),
(234,66,cs),
(234,80,o),
(221,93,o),
(221,112,cs),
(221,141,o),
(262,230,o),
(312,230,cs),
(358,230,o),
(386,174,o),
(394,136,cs),
(402,98,o),
(405,84,o),
(422,84,cs),
(439,84,o),
(451,92,o),
(451,121,cs),
(450,211,o),
(491,359,o),
(531,466,cs),
(581,599,o),
(619,695,o),
(681,695,cs),
(729,695,o),
(761,649,o),
(761,594,cs),
(761,499,o),
(682,269,o),
(682,215,cs),
(682,141,o),
(741,124,o),
(788,112,cs),
(799,109,o),
(799,103,o),
(787,95,cs),
(752,71,o),
(709,43,o),
(680,25,c),
(693,1,l),
(765,37,o),
(847,89,o),
(864,89,cs),
(881,89,o),
(920,84,o),
(920,112,cs),
(920,131,o),
(906,148,o),
(876,148,cs),
(846,148,o),
(721,150,o),
(721,217,cs),
(721,284,o),
(813,488,o),
(813,578,cs),
(813,658,o),
(751,724,o),
(686,724,cs),
(638,724,o),
(609,700,o),
(579,650,cs),
(554,609,o),
(531,551,o),
(505,483,cs),
(473,399,o),
(438,278,o),
(423,232,cs),
(414,204,o),
(410,199,o),
(394,217,cs),
(370,243,o),
(349,263,o),
(309,263,cs),
(269,263,o),
(236,229,o),
(205,176,cs),
(189,149,o),
(186,148,o),
(177,179,cs),
(173,193,o),
(170,234,o),
(170,253,cs),
(170,357,o),
(246,477,o),
(246,516,cs),
(246,565,o),
(201,622,o),
(140,656,c)
);
}
);
width = 1000;
},
{
layerId = "027B829E-3619-44FF-8C68-78647B0AD671";
shapes = (
{
closed = 1;
nodes = (
(88,663,l),
(121,635,o),
(136,591,o),
(136,540,cs),
(136,479,o),
(117,365,o),
(117,243,cs),
(117,171,o),
(149,109,o),
(194,66,cs),
(224,38,o),
(251,24,o),
(286,24,cs),
(322,24,o),
(341,42,o),
(341,66,cs),
(341,100,o),
(324,110,o),
(324,139,cs),
(324,218,o),
(335,259,o),
(361,259,cs),
(388,259,o),
(403,210,o),
(411,172,cs),
(419,134,o),
(443,110,o),
(480,110,cs),
(522,110,o),
(539,148,o),
(542,177,cs),
(551,276,o),
(544,364,o),
(589,517,cs),
(622,628,o),
(659,682,o),
(701,682,cs),
(739,682,o),
(751,638,o),
(751,593,cs),
(751,468,o),
(661,272,o),
(661,183,cs),
(661,126,o),
(701,114,o),
(746,110,cs),
(774,108,o),
(772,115,o),
(749,95,cs),
(714,63,o),
(673,27,o),
(642,3,c),
(649,-9,l),
(721,17,o),
(807,50,o),
(894,50,cs),
(934,50,o),
(960,74,o),
(960,102,cs),
(960,160,o),
(908,208,o),
(868,208,cs),
(848,208,o),
(791,198,o),
(791,227,cs),
(791,272,o),
(865,421,o),
(865,531,cs),
(865,650,o),
(783,716,o),
(718,716,cs),
(670,716,o),
(642,698,o),
(612,668,cs),
(587,643,o),
(552,587,o),
(524,527,cs),
(479,431,o),
(464,354,o),
(443,300,cs),
(432,271,o),
(425,263,o),
(401,282,cs),
(373,304,o),
(366,304,o),
(356,304,cs),
(312,304,o),
(283,260,o),
(254,217,cs),
(237,191,o),
(232,183,o),
(221,200,cs),
(213,213,o),
(208,234,o),
(208,253,cs),
(208,357,o),
(284,449,o),
(284,498,cs),
(284,569,o),
(231,663,o),
(92,671,c)
);
}
);
width = 1000;
},
{
layerId = "22BF860B-E605-42C1-AA52-30D9AB94E7CE";
shapes = (
{
closed = 1;
nodes = (
(112,651,l),
(139,623,o),
(170,579,o),
(170,528,cs),
(170,467,o),
(128,356,o),
(128,234,cs),
(128,162,o),
(153,101,o),
(180,68,cs),
(201,41,o),
(216,32,o),
(239,32,cs),
(261,32,o),
(274,48,o),
(274,66,cs),
(274,88,o),
(260,99,o),
(260,122,cs),
(260,170,o),
(289,241,o),
(330,241,cs),
(369,241,o),
(392,188,o),
(400,150,cs),
(408,112,o),
(419,94,o),
(444,94,cs),
(470,94,o),
(484,113,o),
(485,142,cs),
(488,235,o),
(511,361,o),
(553,485,cs),
(596,610,o),
(634,690,o),
(689,690,cs),
(733,690,o),
(757,645,o),
(757,594,cs),
(757,487,o),
(674,270,o),
(674,203,cs),
(674,135,o),
(726,120,o),
(772,111,cs),
(790,109,o),
(789,108,o),
(773,95,cs),
(738,68,o),
(696,37,o),
(666,17,c),
(677,-3,l),
(749,30,o),
(832,74,o),
(875,74,cs),
(901,74,o),
(935,80,o),
(935,108,cs),
(935,142,o),
(907,171,o),
(873,171,cs),
(847,171,o),
(747,168,o),
(747,221,cs),
(747,280,o),
(833,463,o),
(833,560,cs),
(833,655,o),
(763,721,o),
(698,721,cs),
(650,721,o),
(621,699,o),
(591,657,cs),
(566,622,o),
(539,565,o),
(512,500,cs),
(475,411,o),
(448,307,o),
(431,258,cs),
(421,229,o),
(416,223,o),
(397,241,cs),
(371,266,o),
(355,278,o),
(327,278,cs),
(285,278,o),
(254,241,o),
(223,191,cs),
(207,165,o),
(203,161,o),
(194,187,cs),
(188,201,o),
(184,234,o),
(184,253,cs),
(184,357,o),
(260,467,o),
(260,509,cs),
(260,567,o),
(212,637,o),
(122,662,c)
);
}
);
width = 1000;
}
);
production = u1B006;
script = hentaigana;
unicode = 110598;
}
{
category = Letter;
glyphname = "i-2-kana";
layers = (
{
backgroundImage = {
imagePath = _sketch/u1B007.png;
locked = 1;
pos = (0,-120);
};
layerId = m01;
shapes = (
{
closed = 1;
nodes = (
(292,780,l),
(294,632,o),
(198,492,o),
(105,417,cs),
(83,399,o),
(63,388,o),
(63,361,cs),
(63,344,o),
(71,333,o),
(83,333,cs),
(92,333,o),
(102,344,o),
(114,354,cs),
(128,364,o),
(145,373,o),
(160,373,cs),
(188,373,o),
(206,349,o),
(206,296,cs),
(206,243,o),
(195,183,o),
(185,137,cs),
(175,91,o),
(169,77,o),
(169,63,cs),
(169,49,o),
(171,15,o),
(198,15,cs),
(225,15,o),
(223,57,o),
(230,98,cs),
(241,158,o),
(295,290,o),
(349,397,c),
(334,406,l),
(290,335,o),
(220,201,o),
(200,136,c),
(210,102,l),
(240,190,o),
(242,239,o),
(242,304,cs),
(242,359,o),
(215,404,o),
(166,404,cs),
(149,404,o),
(128,392,o),
(112,378,c),
(124,375,l),
(230,446,o),
(320,594,o),
(321,780,c)
);
},
{
closed = 1;
nodes = (
(491,645,l),
(561,686,o),
(686,741,o),
(755,741,cs),
(784,741,o),
(808,736,o),
(808,726,cs),
(808,716,o),
(750,691,o),
(718,677,c),
(730,659,l),
(757,671,o),
(797,683,o),
(825,686,cs),
(851,689,o),
(868,696,o),
(868,715,cs),
(868,748,o),
(831,780,o),
(767,780,cs),
(673,780,o),
(555,717,o),
(480,664,c)
);
},
{
closed = 1;
nodes = (
(475,550,l),
(465,528,o),
(476,498,o),
(535,498,cs),
(587,498,o),
(646,521,o),
(667,533,c),
(656,545,l),
(618,500,o),
(533,402,o),
(533,357,cs),
(533,312,o),
(575,296,o),
(614,296,cs),
(703,296,o),
(821,335,o),
(864,360,cs),
(907,385,o),
(914,394,o),
(914,411,cs),
(914,428,o),
(903,443,o),
(880,451,cs),
(857,459,o),
(815,496,o),
(796,496,cs),
(777,496,o),
(749,477,o),
(749,443,cs),
(749,409,o),
(748,341,o),
(748,263,cs),
(748,139,o),
(638,49,o),
(487,-12,c),
(498,-29,l),
(678,22,o),
(790,127,o),
(790,258,cs),
(790,309,o),
(785,405,o),
(785,432,cs),
(785,449,o),
(788,471,o),
(802,471,cs),
(816,471,o),
(864,434,o),
(864,416,cs),
(864,388,o),
(705,335,o),
(618,335,cs),
(591,335,o),
(559,337,o),
(559,357,cs),
(559,387,o),
(647,492,o),
(671,514,cs),
(695,536,o),
(726,549,o),
(743,555,cs),
(772,565,o),
(782,568,o),
(782,581,cs),
(782,594,o),
(759,599,o),
(739,599,cs),
(729,599,o),
(715,591,o),
(695,580,cs),
(664,562,o),
(579,531,o),
(528,531,cs),
(510,531,o),
(493,533,o),
(492,551,c)
);
}
);
width = 1000;
},
{
layerId = "027B829E-3619-44FF-8C68-78647B0AD671";
width = 1000;
},
{
layerId = "22BF860B-E605-42C1-AA52-30D9AB94E7CE";
width = 1000;
}
);
production = u1B007;
script = hentaigana;
unicode = 110599;
}
{
category = Letter;
glyphname = "i-3-kana";
layers = (
{
backgroundImage = {
imagePath = _sketch/u1B008.png;
locked = 1;
pos = (0,-120);
};
layerId = m01;
shapes = (
{
closed = 1;
nodes = (
(387,777,l),
(418,742,o),
(489,719,o),
(525,709,c),
(528,723,l),
(480,716,o),
(407,700,o),
(354,683,c),
(359,666,l),
(432,680,o),
(544,687,o),
(562,687,cs),
(580,687,o),
(611,680,o),
(633,680,cs),
(655,680,o),
(667,685,o),
(667,704,cs),
(667,723,o),
(624,744,o),
(593,744,cs),
(562,744,o),
(479,741,o),
(397,795,c)
);
},
{
closed = 1;
nodes = (
(219,628,l),
(257,576,o),
(333,544,o),
(446,544,cs),
(589,544,o),
(729,570,o),
(758,581,cs),
(784,591,o),
(791,595,o),
(791,611,cs),
(791,627,o),
(772,634,o),
(753,634,cs),
(734,634,o),
(708,624,o),
(663,612,cs),
(602,595,o),
(527,586,o),
(437,586,cs),
(347,586,o),
(272,601,o),
(231,644,c)
);
},
{
closed = 1;
nodes = (
(378,493,l),
(398,465,o),
(443,421,o),
(504,417,c),
(489,438,l),
(435,419,o),
(379,378,o),
(379,353,cs),
(379,288,o),
(544,259,o),
(577,253,c),
(567,273,l),
(483,276,o),
(169,204,o),
(169,92,cs),
(169,0,o),
(360,-19,o),
(511,-19,cs),
(692,-19,o),
(819,9,o),
(834,15,cs),
(847,20,o),
(851,27,o),
(851,39,cs),
(851,57,o),
(827,63,o),
(807,63,cs),
(787,63,o),
(636,25,o),
(510,25,cs),
(324,25,o),
(206,46,o),
(206,99,cs),
(206,166,o),
(374,236,o),
(556,236,cs),
(609,236,o),
(621,223,o),
(643,223,cs),
(655,223,o),
(665,229,o),
(665,244,cs),
(665,259,o),
(633,277,o),
(600,281,cs),
(547,288,o),
(403,308,o),
(403,353,cs),
(403,370,o),
(465,401,o),
(495,401,cs),
(505,401,o),
(538,388,o),
(552,388,cs),
(566,388,o),
(581,398,o),
(580,410,cs),
(579,422,o),
(549,443,o),
(525,447,cs),
(482,454,o),
(427,475,o),
(392,505,c)
);
}
);
width = 1000;
},
{
layerId = "027B829E-3619-44FF-8C68-78647B0AD671";
width = 1000;
},
{
layerId = "22BF860B-E605-42C1-AA52-30D9AB94E7CE";
width = 1000;
}
);
production = u1B008;
script = hentaigana;
unicode = 110600;
}
{
category = Letter;
glyphname = "i-4-kana";
layers = (
{
backgroundImage = {
imagePath = _sketch/u1B009.png;
locked = 1;
pos = (0,-120);
};
layerId = m01;
shapes = (
{
closed = 1;
nodes = (
(223,748,l),
(240,754,o),
(242,757,o),
(260,757,cs),
(268,757,o),
(284,752,o),
(284,726,cs),
(284,700,o),
(279,454,o),
(279,342,cs),
(279,230,o),
(270,73,o),
(270,32,cs),
(270,-9,o),
(280,-33,o),
(297,-33,cs),
(315,-33,o),
(319,-25,o),
(319,-2,cs),
(319,21,o),
(309,213,o),
(309,340,cs),
(309,467,o),
(321,668,o),
(328,694,cs),
(334,720,o),
(347,722,o),
(347,737,cs),
(347,762,o),
(295,788,o),
(264,788,cs),
(243,788,o),
(226,776,o),
(213,768,c)
);
},
{
closed = 1;
nodes = (
(289,476,o),
(244,501,o),
(201,501,cs),
(129,501,o),
(93,289,o),
(93,198,cs),
(93,147,o),
(111,117,o),
(130,117,cs),
(149,117,o),
(155,134,o),
(165,161,cs),
(184,214,o),
(286,369,o),
(298,397,c),
(295,428,l),
(278,402,o),
(171,254,o),
(149,219,cs),
(132,191,o),
(127,195,o),
(127,236,cs),
(127,277,o),
(157,478,o),
(203,478,cs),
(229,478,o),
(275,433,o),
(282,384,c),
(299,400,l)
);
},
{
closed = 1;
nodes = (
(395,525,o),
(604,745,o),
(685,745,cs),
(711,745,o),
(718,730,o),
(718,703,cs),
(718,657,o),
(704,580,o),
(702,563,cs),
(700,544,o),
(696,528,o),
(696,518,cs),
(696,498,o),
(709,493,o),
(725,493,cs),
(741,493,o),
(779,514,o),
(812,514,cs),
(832,514,o),
(865,495,o),
(865,374,cs),
(865,133,o),
(743,19,o),
(642,19,cs),
(565,19,o),
(502,104,o),
(502,250,cs),
(502,416,o),
(570,482,o),
(599,482,cs),
(617,482,o),
(631,469,o),
(631,421,cs),
(631,284,o),
(485,146,o),
(406,146,cs),
(395,146,o),
(369,154,o),
(369,177,cs),
(369,240,o),
(439,298,o),
(504,298,cs),
(589,298,o),
(671,238,o),
(715,160,cs),
(731,131,o),
(732,122,o),
(746,122,cs),
(760,122,o),
(764,135,o),
(764,150,cs),
(764,169,o),
(747,198,o),
(722,222,cs),
(687,256,o),
(613,322,o),
(515,322,cs),
(446,322,o),
(341,262,o),
(341,170,cs),
(341,138,o),
(362,108,o),
(399,108,cs),
(515,108,o),
(665,280,o),
(665,406,cs),
(665,468,o),
(639,500,o),
(603,500,cs),
(562,500,o),
(478,431,o),
(478,250,cs),
(478,59,o),
(548,-17,o),
(642,-17,cs),
(812,-17,o),
(909,172,o),
(909,351,cs),
(909,510,o),
(845,544,o),
(818,544,cs),
(790,544,o),
(756,534,o),
(746,534,cs),
(740,534,o),
(736,537,o),
(736,543,cs),
(736,557,o),
(755,672,o),
(755,707,cs),
(755,752,o),
(730,771,o),
(688,771,cs),
(591,771,o),
(389,556,o),
(295,428,c),
(299,393,l)
);
}
);
width = 1000;
},
{
layerId = "027B829E-3619-44FF-8C68-78647B0AD671";
shapes = (
{
closed = 1;
nodes = (
(201,798,l),
(227,792,o),
(249,774,o),
(251,757,cs),
(253,744,o),
(254,732,o),
(254,706,cs),
(254,680,o),
(249,454,o),
(249,342,cs),
(249,230,o),
(240,73,o),
(240,32,cs),
(240,-9,o),
(255,-65,o),
(302,-65,cs),
(339,-65,o),
(365,-15,o),
(365,18,cs),
(365,51,o),
(359,207,o),
(359,340,cs),
(359,467,o),
(360,656,o),
(367,682,cs),
(373,708,o),
(382,722,o),
(382,737,cs),
(382,782,o),
(295,828,o),
(264,828,cs),
(243,828,o),
(214,818,o),
(201,810,c)
);
},
{
closed = 1;
nodes = (
(289,476,o),
(244,521,o),
(201,521,cs),
(129,521,o),
(48,399,o),
(48,228,cs),
(48,147,o),
(91,93,o),
(130,93,cs),
(169,93,o),
(175,134,o),
(185,161,cs),
(204,214,o),
(286,369,o),
(298,397,c),
(295,428,l),
(278,412,o),
(191,284,o),
(169,249,cs),
(152,221,o),
(147,225,o),
(147,266,cs),
(147,307,o),
(167,458,o),
(213,458,cs),
(239,458,o),
(275,433,o),
(282,384,c),
(299,400,l)
);
},
{
closed = 1;
nodes = (
(404,496,o),
(599,725,o),
(661,725,cs),
(677,725,o),
(687,719,o),
(687,692,cs),
(687,656,o),
(678,570,o),
(676,553,cs),
(674,534,o),
(670,520,o),
(670,510,cs),
(670,490,o),
(695,476,o),
(725,476,cs),
(741,476,o),
(767,484,o),
(790,484,cs),
(810,484,o),
(815,495,o),
(815,394,cs),
(815,153,o),
(723,39,o),
(642,39,cs),
(565,39,o),
(522,104,o),
(522,270,cs),
(522,416,o),
(542,468,o),
(560,468,cs),
(576,468,o),
(581,427,o),
(581,391,cs),
(581,254,o),
(562,147,o),
(452,147,cs),
(411,147,o),
(381,178,o),
(381,207,cs),
(381,252,o),
(419,288,o),
(484,288,cs),
(569,288,o),
(637,235,o),
(681,157,cs),
(697,128,o),
(715,112,o),
(736,112,cs),
(763,112,o),
(787,141,o),
(787,166,cs),
(787,201,o),
(765,247,o),
(728,276,cs),
(684,311,o),
(613,352,o),
(495,352,cs),
(416,352,o),
(321,302,o),
(321,207,cs),
(321,148,o),
(354,80,o),
(460,80,cs),
(626,80,o),
(665,220,o),
(665,376,cs),
(665,458,o),
(639,520,o),
(573,520,cs),
(492,520,o),
(458,441,o),
(458,270,cs),
(458,69,o),
(528,-57,o),
(642,-57,cs),
(853,-57,o),
(939,172,o),
(939,401,cs),
(939,510,o),
(905,568,o),
(848,568,cs),
(820,568,o),
(802,566,o),
(792,566,cs),
(786,566,o),
(785,570,o),
(785,576,cs),
(785,590,o),
(799,682,o),
(799,707,cs),
(799,762,o),
(740,791,o),
(688,791,cs),
(591,791,o),
(402,569,o),
(308,441,c),
(308,364,l)
);
}
);
width = 1000;
},
{
layerId = "22BF860B-E605-42C1-AA52-30D9AB94E7CE";
shapes = (
{
closed = 1;
nodes = (
(215,767,l),
(235,768,o),
(245,763,o),
(257,757,cs),
(262,752,o),
(273,745,o),
(273,719,cs),
(273,693,o),
(268,454,o),
(268,342,cs),
(268,230,o),
(259,73,o),
(259,32,cs),
(259,-9,o),
(271,-45,o),
(299,-45,cs),
(324,-45,o),
(336,-21,o),
(336,6,cs),
(336,32,o),
(328,211,o),
(328,340,cs),
(328,467,o),
(336,664,o),
(343,690,cs),
(349,716,o),
(360,722,o),
(360,737,cs),
(360,770,o),
(295,803,o),
(264,803,cs),
(243,803,o),
(222,792,o),
(209,784,c)
);
},
{
closed = 1;
nodes = (
(289,476,o),
(244,509,o),
(201,509,cs),
(129,509,o),
(76,330,o),
(76,209,cs),
(76,147,o),
(104,108,o),
(130,108,cs),
(157,108,o),
(163,134,o),
(173,161,cs),
(192,214,o),
(286,369,o),
(298,397,c),
(295,428,l),
(278,406,o),
(179,265,o),
(157,230,cs),
(140,202,o),
(135,206,o),
(135,247,cs),
(135,288,o),
(161,471,o),
(207,471,cs),
(233,471,o),
(275,433,o),
(282,384,c),
(299,400,l)
);
},
{
closed = 1;
nodes = (
(398,514,o),
(602,738,o),
(676,738,cs),
(698,738,o),
(706,726,o),
(706,699,cs),
(706,657,o),
(694,576,o),
(692,559,cs),
(690,540,o),
(686,525,o),
(686,515,cs),
(686,495,o),
(704,487,o),
(725,487,cs),
(741,487,o),
(775,503,o),
(804,503,cs),
(824,503,o),
(846,495,o),
(846,382,cs),
(846,141,o),
(736,27,o),
(642,27,cs),
(565,27,o),
(510,104,o),
(510,258,cs),
(510,416,o),
(560,477,o),
(584,477,cs),
(602,477,o),
(612,453,o),
(612,410,cs),
(612,273,o),
(514,146,o),
(423,146,cs),
(401,146,o),
(374,163,o),
(374,188,cs),
(374,245,o),
(432,294,o),
(497,294,cs),
(582,294,o),
(658,237,o),
(702,159,cs),
(718,130,o),
(726,118,o),
(742,118,cs),
(761,118,o),
(773,137,o),
(773,156,cs),
(773,181,o),
(754,216,o),
(724,242,cs),
(686,277,o),
(613,333,o),
(508,333,cs),
(435,333,o),
(334,277,o),
(334,184,cs),
(334,142,o),
(359,98,o),
(422,98,cs),
(557,98,o),
(665,258,o),
(665,395,cs),
(665,464,o),
(639,508,o),
(592,508,cs),
(536,508,o),
(471,435,o),
(471,258,cs),
(471,63,o),
(541,-32,o),
(642,-32,cs),
(827,-32,o),
(920,172,o),
(920,370,cs),
(920,510,o),
(868,553,o),
(829,553,cs),
(801,553,o),
(773,546,o),
(763,546,cs),
(757,546,o),
(754,549,o),
(754,555,cs),
(754,569,o),
(772,676,o),
(772,707,cs),
(772,756,o),
(734,779,o),
(688,779,cs),
(591,779,o),
(394,561,o),
(300,433,c),
(302,382,l)
);
}
);
width = 1000;
}
);
production = u1B009;
script = hentaigana;
unicode = 110601;
}
{
category = Letter;
glyphname = "u-1-kana";
layers = (
{
backgroundImage = {
imagePath = _sketch/u1B00A.png;
locked = 1;
pos = (0,-120);
};
layerId = m01;
shapes = (
{
closed = 1;
nodes = (
(396,783,l),
(440,738,o),
(493,714,o),
(524,711,c),
(519,733,l),
(456,711,o),
(401,688,o),
(351,661,c),
(357,644,l),
(407,667,o),
(504,693,o),
(537,698,cs),
(570,702,o),
(579,697,o),
(602,697,cs),
(616,697,o),
(632,700,o),
(632,717,cs),
(632,738,o),
(611,754,o),
(572,754,cs),
(553,754,o),
(551,752,o),
(542,752,cs),
(513,752,o),
(444,776,o),
(408,798,c)
);
},
{
closed = 1;
nodes = (
(174,567,l),
(131,533,o),
(110,482,o),
(110,448,cs),
(110,413,o),
(143,383,o),
(170,383,cs),
(196,383,o),
(201,401,o),
(225,421,cs),
(287,474,o),
(565,626,o),
(718,626,cs),
(792,626,o),
(834,594,o),
(834,550,cs),
(834,486,o),
(659,430,o),
(504,396,c),
(503,366,l),
(695,398,o),
(892,459,o),
(892,543,cs),
(892,608,o),
(812,654,o),
(720,654,cs),
(578,654,o),
(314,525,o),
(220,477,cs),
(189,461,o),
(180,453,o),
(168,453,cs),
(160,453,o),
(152,457,o),
(152,470,cs),
(152,493,o),
(167,533,o),
(189,559,c)
);
},
{
closed = 1;
nodes = (
(454,339,o),
(476,362,o),
(494,362,cs),
(512,362,o),
(527,336,o),
(527,229,cs),
(527,140,o),
(496,28,o),
(469,28,cs),
(451,28,o),
(426,42,o),
(392,62,cs),
(359,82,o),
(318,113,o),
(318,130,cs),
(318,163,o),
(406,212,o),
(534,212,cs),
(612,212,o),
(683,190,o),
(741,163,cs),
(775,147,o),
(802,120,o),
(818,120,cs),
(831,120,o),
(837,132,o),
(837,142,cs),
(837,160,o),
(812,182,o),
(769,200,cs),
(721,220,o),
(642,247,o),
(553,247,cs),
(423,247,o),
(284,191,o),
(284,128,cs),
(284,114,o),
(299,99,o),
(321,83,cs),
(350,61,o),
(390,37,o),
(417,15,cs),
(433,2,o),
(450,-32,o),
(475,-32,cs),
(501,-32,o),
(528,1,o),
(542,47,cs),
(562,110,o),
(571,160,o),
(571,236,cs),
(571,363,o),
(517,410,o),
(494,410,cs),
(480,410,o),
(464,407,o),
(441,393,cs),
(418,379,o),
(419,367,o),
(419,362,cs),
(419,352,o),
(424,341,o),
(440,339,cs)
);
}
);
width = 1000;
},
{
layerId = "027B829E-3619-44FF-8C68-78647B0AD671";
shapes = (
{
closed = 1;
nodes = (
(358,825,l),
(392,771,o),
(447,717,o),
(498,714,c),
(476,756,l),
(419,733,o),
(395,701,o),
(349,673,c),
(356,665,l),
(407,679,o),
(464,685,o),
(498,688,cs),
(532,691,o),
(564,680,o),
(588,680,cs),
(632,680,o),
(658,693,o),
(658,730,cs),
(658,781,o),
(587,807,o),
(547,807,cs),
(528,807,o),
(526,805,o),
(516,805,cs),
(486,805,o),
(415,810,o),
(369,833,c)
);
},
{
closed = 1;
nodes = (
(203,594,l),
(142,570,o),
(61,507,o),
(61,462,cs),
(61,407,o),
(125,366,o),
(172,366,cs),
(199,366,o),
(244,414,o),
(268,435,cs),
(341,499,o),
(569,636,o),
(708,636,cs),
(784,636,o),
(813,613,o),
(813,577,cs),
(813,501,o),
(666,464,o),
(516,439,c),
(515,408,l),
(692,408,o),
(955,416,o),
(955,541,cs),
(955,627,o),
(831,682,o),
(717,682,cs),
(590,682,o),
(359,585,o),
(262,535,cs),
(230,519,o),
(221,511,o),
(209,511,cs),
(201,511,o),
(194,514,o),
(194,528,cs),
(194,552,o),
(198,562,o),
(211,587,c)
);
},
{
closed = 1;
nodes = (
(435,386,o),
(435,393,o),
(454,393,cs),
(472,393,o),
(476,396,o),
(476,285,cs),
(476,136,o),
(469,68,o),
(441,68,cs),
(433,68,o),
(422,70,o),
(386,86,cs),
(348,103,o),
(304,131,o),
(304,144,cs),
(304,164,o),
(372,203,o),
(504,203,cs),
(584,203,o),
(621,193,o),
(672,180,cs),
(726,167,o),
(780,137,o),
(807,137,cs),
(839,137,o),
(863,157,o),
(863,188,cs),
(863,224,o),
(829,256,o),
(780,270,cs),
(706,292,o),
(644,299,o),
(534,299,cs),
(352,299,o),
(207,235,o),
(207,162,cs),
(207,130,o),
(231,121,o),
(273,101,cs),
(328,75,o),
(402,20,o),
(425,-20,cs),
(439,-45,o),
(444,-69,o),
(479,-69,cs),
(535,-69,o),
(562,-16,o),
(576,30,cs),
(597,99,o),
(602,156,o),
(602,312,cs),
(602,405,o),
(566,473,o),
(492,473,cs),
(477,473,o),
(446,470,o),
(422,455,cs),
(398,441,o),
(392,428,o),
(392,413,cs),
(392,402,o),
(404,388,o),
(420,387,cs)
);
}
);
width = 1000;
},
{
layerId = "22BF860B-E605-42C1-AA52-30D9AB94E7CE";
shapes = (
{
closed = 1;
nodes = (
(389,799,l),
(430,750,o),
(483,715,o),
(522,712,c),
(510,742,l),
(450,719,o),
(406,693,o),
(358,666,c),
(364,652,l),
(415,672,o),
(497,690,o),
(530,694,cs),
(563,698,o),
(581,691,o),
(604,691,cs),
(630,691,o),
(649,697,o),
(649,722,cs),
(649,754,o),
(610,774,o),
(570,774,cs),
(551,774,o),
(549,772,o),
(540,772,cs),
(510,772,o),
(441,789,o),
(401,811,c)
);
},
{
closed = 1;
nodes = (
(192,577,l),
(143,547,o),
(99,491,o),
(99,453,cs),
(99,411,o),
(144,377,o),
(178,377,cs),
(205,377,o),
(225,406,o),
(249,426,cs),
(315,483,o),
(574,630,o),
(722,630,cs),
(797,630,o),
(838,601,o),
(838,560,cs),
(838,492,o),
(663,443,o),
(516,412,c),
(515,382,l),
(689,408,o),
(923,443,o),
(923,542,cs),
(923,615,o),
(827,665,o),
(726,665,cs),
(590,665,o),
(338,548,o),
(243,499,cs),
(212,483,o),
(203,475,o),
(191,475,cs),
(183,475,o),
(175,478,o),
(175,492,cs),
(175,515,o),
(186,544,o),
(205,570,c)
);
},
{
closed = 1;
nodes = (
(454,357,o),
(468,374,o),
(487,374,cs),
(505,374,o),
(515,359,o),
(515,250,cs),
(515,139,o),
(495,42,o),
(467,42,cs),
(453,42,o),
(432,53,o),
(397,71,cs),
(362,90,o),
(315,120,o),
(315,138,cs),
(315,163,o),
(401,211,o),
(530,211,cs),
(609,211,o),
(667,191,o),
(723,169,cs),
(764,155,o),
(801,126,o),
(821,126,cs),
(842,126,o),
(854,141,o),
(854,159,cs),
(854,184,o),
(826,210,o),
(781,226,cs),
(723,247,o),
(650,267,o),
(553,267,cs),
(404,267,o),
(263,208,o),
(263,141,cs),
(263,120,o),
(281,107,o),
(311,90,cs),
(349,66,o),
(402,31,o),
(428,2,cs),
(443,-16,o),
(455,-46,o),
(484,-46,cs),
(521,-46,o),
(548,-5,o),
(562,41,cs),
(583,106,o),
(590,159,o),
(590,265,cs),
(590,379,o),
(543,434,o),
(501,434,cs),
(486,434,o),
(465,431,o),
(441,416,cs),
(418,402,o),
(416,390,o),
(416,381,cs),
(416,371,o),
(424,359,o),
(440,357,cs)
);
}
);
width = 1000;
}
);
production = u1B00A;
script = hentaigana;
unicode = 110602;
}
{
category = Letter;
glyphname = "u-2-kana";
layers = (
{
backgroundImage = {
imagePath = _sketch/u1B00B.png;
locked = 1;
pos = (0,-120);
};
layerId = m01;
shapes = (
{
closed = 1;
nodes = (
(396,785,l),
(439,739,o),
(492,714,o),
(524,711,c),
(518,734,l),
(457,712,o),
(401,689,o),
(351,662,c),
(357,644,l),
(407,668,o),
(504,693,o),
(537,698,cs),
(570,702,o),
(579,697,o),
(602,697,cs),
(617,697,o),
(633,700,o),
(633,718,cs),
(633,740,o),
(611,756,o),
(572,756,cs),
(553,756,o),
(551,754,o),
(542,754,cs),
(513,754,o),
(443,777,o),
(408,799,c)
);
},
{
closed = 1;
nodes = (
(175,568,l),
(132,534,o),
(109,483,o),
(109,448,cs),
(109,413,o),
(143,382,o),
(170,382,cs),
(197,382,o),
(203,402,o),
(227,422,cs),
(290,475,o),
(566,617,o),
(728,617,cs),
(792,617,o),
(840,594,o),
(840,560,cs),
(840,519,o),
(749,494,o),
(649,465,c),
(658,445,l),
(785,470,o),
(894,496,o),
(894,552,cs),
(894,608,o),
(813,645,o),
(730,645,cs),
(579,645,o),
(316,527,o),
(222,479,cs),
(191,463,o),
(182,455,o),
(170,455,cs),
(162,455,o),
(154,459,o),
(154,472,cs),
(154,495,o),
(168,534,o),
(191,560,c)
);
},
{
closed = 1;
nodes = (
(461,429,o),
(433,416,o),
(433,393,cs),
(433,371,o),
(473,358,o),
(499,349,cs),
(510,345,o),
(522,339,o),
(501,330,cs),
(472,318,o),
(391,291,o),
(391,258,cs),
(391,236,o),
(416,228,o),
(437,224,cs),
(493,210,o),
(589,203,o),
(589,157,cs),
(589,81,o),
(465,-5,o),
(383,-35,c),
(398,-57,l),
(537,-15,o),
(643,77,o),
(643,161,cs),
(643,212,o),
(601,232,o),
(552,244,cs),
(504,256,o),
(479,259,o),
(464,264,cs),
(450,268,o),
(435,275,o),
(463,288,cs),
(493,302,o),
(526,312,o),
(546,312,cs),
(565,312,o),
(582,318,o),
(582,335,cs),
(582,351,o),
(570,361,o),
(522,375,cs),
(453,395,o),
(476,409,o),
(520,426,c),
(512,444,l)
);
}
);
width = 1000;
},
{
layerId = "027B829E-3619-44FF-8C68-78647B0AD671";
shapes = (
{
closed = 1;
nodes = (
(358,825,l),
(392,771,o),
(447,717,o),
(498,714,c),
(466,758,l),
(429,735,o),
(386,701,o),
(349,673,c),
(356,665,l),
(407,679,o),
(465,694,o),
(498,694,cs),
(532,694,o),
(564,680,o),
(588,680,cs),
(632,680,o),
(658,693,o),
(658,730,cs),
(658,781,o),
(587,807,o),
(547,807,cs),
(528,807,o),
(526,805,o),
(516,805,cs),
(486,805,o),
(415,810,o),
(369,833,c)
);
},
{
closed = 1;
nodes = (
(203,594,l),
(142,570,o),
(61,507,o),
(61,462,cs),
(61,407,o),
(125,366,o),
(172,366,cs),
(199,366,o),
(244,414,o),
(268,435,cs),
(341,499,o),
(569,626,o),
(708,626,cs),
(772,626,o),
(801,610,o),
(801,570,cs),
(801,501,o),
(706,495,o),
(606,480,c),
(609,468,l),
(742,438,o),
(943,416,o),
(943,541,cs),
(943,627,o),
(825,672,o),
(723,672,cs),
(586,672,o),
(359,585,o),
(262,535,cs),
(230,519,o),
(221,511,o),
(209,511,cs),
(201,511,o),
(194,514,o),
(194,528,cs),
(194,552,o),
(198,562,o),
(211,587,c)
);
},
{
closed = 1;
nodes = (
(474,486,o),
(388,453,o),
(388,421,cs),
(388,399,o),
(400,379,o),
(435,369,cs),
(451,364,o),
(458,358,o),
(436,350,cs),
(406,340,o),
(327,328,o),
(327,277,cs),
(327,236,o),
(371,219,o),
(420,215,cs),
(486,209,o),
(572,240,o),
(572,194,cs),
(572,128,o),
(501,-5,o),
(382,-73,c),
(387,-84,l),
(632,-34,o),
(701,77,o),
(701,198,cs),
(701,259,o),
(659,304,o),
(591,304,cs),
(541,304,o),
(474,294,o),
(459,301,cs),
(445,308,o),
(435,314,o),
(458,322,cs),
(489,333,o),
(546,331,o),
(566,331,cs),
(595,331,o),
(640,337,o),
(640,372,cs),
(640,407,o),
(609,417,o),
(542,431,cs),
(471,446,o),
(490,450,o),
(534,467,c),
(532,477,l)
);
}
);
width = 1000;
},
{
layerId = "22BF860B-E605-42C1-AA52-30D9AB94E7CE";
shapes = (
{
closed = 1;
nodes = (
(389,800,l),
(428,751,o),
(482,715,o),
(521,712,c),
(505,743,l),
(453,721,o),
(402,694,o),
(357,666,c),
(364,652,l),
(414,672,o),
(496,693,o),
(529,697,cs),
(563,699,o),
(580,691,o),
(604,691,cs),
(630,691,o),
(649,697,o),
(649,723,cs),
(649,755,o),
(609,775,o),
(570,775,cs),
(551,775,o),
(549,773,o),
(539,773,cs),
(510,773,o),
(439,789,o),
(400,812,c)
);
},
{
closed = 1;
nodes = (
(192,578,l),
(143,548,o),
(98,492,o),
(98,453,cs),
(98,411,o),
(143,376,o),
(178,376,cs),
(205,376,o),
(225,407,o),
(249,427,cs),
(316,484,o),
(574,620,o),
(727,620,cs),
(791,620,o),
(832,600,o),
(832,564,cs),
(832,512,o),
(740,494,o),
(640,471,c),
(647,454,l),
(776,458,o),
(919,466,o),
(919,548,cs),
(919,615,o),
(824,655,o),
(734,655,cs),
(589,655,o),
(339,549,o),
(244,500,cs),
(213,484,o),
(204,476,o),
(192,476,cs),
(184,476,o),
(176,480,o),
(176,493,cs),
(176,516,o),
(186,545,o),
(205,570,c)
);
},
{
closed = 1;
nodes = (
(473,450,o),
(423,430,o),
(423,404,cs),
(423,382,o),
(453,366,o),
(482,357,cs),
(495,352,o),
(505,346,o),
(484,338,cs),
(454,326,o),
(374,305,o),
(374,265,cs),
(374,236,o),
(406,225,o),
(438,221,cs),
(497,210,o),
(590,217,o),
(590,171,cs),
(590,99,o),
(485,-5,o),
(390,-49,c),
(401,-67,l),
(580,-22,o),
(672,77,o),
(672,175,cs),
(672,230,o),
(630,259,o),
(574,267,cs),
(525,274,o),
(480,272,o),
(465,278,cs),
(451,283,o),
(438,290,o),
(464,301,cs),
(494,314,o),
(540,319,o),
(560,319,cs),
(583,319,o),
(611,325,o),
(611,349,cs),
(611,372,o),
(592,382,o),
(536,396,cs),
(467,414,o),
(488,424,o),
(532,441,c),
(525,453,l)
);
}
);
width = 1000;
}
);
production = u1B00B;
script = hentaigana;
unicode = 110603;
}
{
category = Letter;
glyphname = "u-3-kana";
layers = (
{
backgroundImage = {
imagePath = _sketch/u1B00C.png;
locked = 1;
pos = (0,-120);
};
layerId = m01;
shapes = (
{
closed = 1;
nodes = (
(381,781,l),
(402,754,o),
(472,719,o),
(519,706,c),
(515,730,l),
(471,713,o),
(398,678,o),
(372,656,cs),
(358,645,o),
(359,642,o),
(359,634,cs),
(359,626,o),
(373,622,o),
(383,621,cs),
(392,620,o),
(439,594,o),
(439,546,cs),
(439,398,o),
(226,266,o),
(182,266,cs),
(166,266,o),
(158,275,o),
(158,293,cs),
(158,400,o),
(406,561,o),
(618,561,cs),
(752,561,o),
(851,489,o),
(851,399,cs),
(851,278,o),
(688,207,o),
(559,207,cs),
(450,207,o),
(400,228,o),
(400,251,cs),
(400,294,o),
(500,343,o),
(565,343,cs),
(596,343,o),
(633,329,o),
(633,305,cs),
(633,281,o),
(611,251,o),
(539,191,cs),
(461,127,o),
(387,80,o),
(387,34,cs),
(387,-12,o),
(462,-32,o),
(524,-32,cs),
(585,-32,o),
(612,-28,o),
(632,-23,cs),
(660,-16,o),
(668,-10,o),
(668,1,cs),
(668,17,o),
(653,22,o),
(631,22,cs),
(608,22,o),
(552,8,o),
(504,8,cs),
(457,8,o),
(420,20,o),
(420,39,cs),
(420,65,o),
(465,90,o),
(510,130,cs),
(558,172,o),
(673,236,o),
(673,296,cs),
(673,335,o),
(631,365,o),
(572,365,cs),
(492,365,o),
(370,309,o),
(370,244,cs),
(370,219,o),
(390,173,o),
(545,173,cs),
(699,173,o),
(892,242,o),
(892,391,cs),
(892,510,o),
(783,586,o),
(620,586,cs),
(387,586,o),
(123,411,o),
(123,279,cs),
(123,237,o),
(146,224,o),
(176,224,cs),
(262,224,o),
(472,404,o),
(472,526,cs),
(472,599,o),
(444,612,o),
(412,628,cs),
(389,639,o),
(382,637,o),
(401,649,cs),
(430,668,o),
(502,700,o),
(542,700,cs),
(582,700,o),
(590,696,o),
(605,696,cs),
(621,696,o),
(636,700,o),
(636,711,cs),
(636,730,o),
(602,745,o),
(568,745,cs),
(534,745,o),
(455,747,o),
(394,797,c)
);
}
);
width = 1000;
},
{
layerId = "027B829E-3619-44FF-8C68-78647B0AD671";
shapes = (
{
closed = 1;
nodes = (
(344,830,l),
(355,763,o),
(434,704,o),
(519,704,c),
(495,738,l),
(451,731,o),
(391,695,o),
(355,672,cs),
(340,662,o),
(329,648,o),
(329,640,cs),
(329,632,o),
(331,626,o),
(340,621,cs),
(361,610,o),
(419,609,o),
(419,560,cs),
(419,438,o),
(244,294,o),
(200,294,cs),
(174,294,o),
(161,301,o),
(161,322,cs),
(161,432,o),
(409,571,o),
(611,571,cs),
(755,571,o),
(811,502,o),
(811,419,cs),
(811,306,o),
(688,233,o),
(559,233,cs),
(450,233,o),
(410,255,o),
(410,288,cs),
(410,332,o),
(480,342,o),
(525,342,cs),
(546,342,o),
(593,328,o),
(593,303,cs),
(593,279,o),
(571,258,o),
(489,207,cs),
(402,153,o),
(337,93,o),
(337,36,cs),
(337,-31,o),
(462,-52,o),
(524,-52,cs),
(585,-52,o),
(633,-47,o),
(653,-42,cs),
(681,-35,o),
(718,-29,o),
(718,2,cs),
(718,29,o),
(675,74,o),
(631,74,cs),
(608,74,o),
(580,60,o),
(512,60,cs),
(485,60,o),
(448,62,o),
(448,75,cs),
(448,90,o),
(459,98,o),
(510,130,cs),
(578,173,o),
(703,243,o),
(703,304,cs),
(703,344,o),
(621,395,o),
(522,395,cs),
(432,395,o),
(340,317,o),
(340,271,cs),
(340,225,o),
(390,158,o),
(545,158,cs),
(779,158,o),
(942,249,o),
(942,401,cs),
(942,553,o),
(783,621,o),
(620,621,cs),
(387,621,o),
(73,452,o),
(73,297,cs),
(73,234,o),
(115,201,o),
(174,201,cs),
(300,201,o),
(522,415,o),
(522,539,cs),
(522,614,o),
(484,627,o),
(442,638,cs),
(417,645,o),
(401,645,o),
(421,655,cs),
(460,675,o),
(502,677,o),
(542,677,cs),
(572,677,o),
(590,673,o),
(605,673,cs),
(631,673,o),
(674,679,o),
(674,720,cs),
(674,769,o),
(625,802,o),
(550,802,cs),
(486,802,o),
(415,786,o),
(354,837,c)
);
}
);
width = 1000;
},
{
layerId = "22BF860B-E605-42C1-AA52-30D9AB94E7CE";
width = 1000;
}
);
production = u1B00C;
script = hentaigana;
unicode = 110604;
}
{
category = Letter;
glyphname = "u-4-kana";
layers = (
{
backgroundImage = {
imagePath = _sketch/u1B00D.png;
locked = 1;
pos = (0,-120);
};
layerId = m01;
shapes = (
{
closed = 1;
nodes = (
(269,737,l),
(285,692,o),
(348,665,o),
(373,665,cs),
(389,665,o),
(397,667,o),
(417,680,cs),
(468,713,o),
(585,760,o),
(621,760,cs),
(636,760,o),
(649,756,o),
(649,739,cs),
(649,723,o),
(635,706,o),
(606,674,cs),
(574,638,o),
(410,472,o),
(352,427,cs),
(294,383,o),
(236,342,o),
(200,342,cs),
(183,342,o),
(175,350,o),
(175,363,cs),
(175,436,o),
(313,540,o),
(394,540,cs),
(445,540,o),
(466,505,o),
(466,437,cs),
(466,368,o),
(450,277,o),
(450,258,cs),
(450,238,o),
(457,216,o),
(473,216,cs),
(489,216,o),
(498,226,o),
(501,245,cs),
(508,292,o),
(502,305,o),
(531,330,cs),
(575,369,o),
(671,439,o),
(757,439,cs),
(803,439,o),
(839,410,o),
(839,387,cs),
(839,364,o),
(833,341,o),
(763,306,cs),
(688,268,o),
(503,189,o),
(459,163,cs),
(416,137,o),
(360,103,o),
(360,53,cs),
(360,4,o),
(427,-25,o),
(547,-25,cs),
(607,-25,o),
(680,-20,o),
(697,-16,cs),
(714,-12,o),
(729,-5,o),
(729,6,cs),
(729,23,o),
(708,33,o),
(686,33,cs),
(665,33,o),
(613,17,o),
(528,17,cs),
(423,17,o),
(390,36,o),
(390,61,cs),
(390,86,o),
(433,119,o),
(485,145,cs),
(538,171,o),
(739,250,o),
(791,273,cs),
(847,298,o),
(897,326,o),
(897,371,cs),
(897,415,o),
(858,462,o),
(770,462,cs),
(661,462,o),
(577,410,o),
(488,330,c),
(499,323,l),
(503,360,o),
(505,393,o),
(505,440,cs),
(505,510,o),
(473,566,o),
(409,566,cs),
(294,566,o),
(136,437,o),
(136,352,cs),
(136,317,o),
(151,297,o),
(191,297,cs),
(241,297,o),
(319,354,o),
(365,393,cs),
(417,437,o),
(638,656,o),
(665,681,cs),
(691,705,o),
(715,715,o),
(715,735,cs),
(715,755,o),
(677,789,o),
(630,789,cs),
(552,789,o),
(412,717,o),
(366,717,cs),
(321,717,o),
(299,741,o),
(283,750,c)
);
}
);
width = 1000;
},
{
layerId = "027B829E-3619-44FF-8C68-78647B0AD671";
width = 1000;
},
{
layerId = "22BF860B-E605-42C1-AA52-30D9AB94E7CE";
width = 1000;
}
);
production = u1B00D;
script = hentaigana;
unicode = 110605;
}
{
category = Letter;
glyphname = "u-5-kana";
layers = (
{
backgroundImage = {
imagePath = _sketch/u1B00E.png;
locked = 1;
pos = (0,-120);
};
layerId = m01;
shapes = (
{
closed = 1;
nodes = (
(387,793,l),
(438,741,o),
(507,719,o),
(535,716,c),
(532,736,l),
(472,715,o),
(419,695,o),
(371,669,c),
(377,652,l),
(424,675,o),
(498,699,o),
(549,704,cs),
(580,707,o),
(587,704,o),
(609,704,cs),
(621,704,o),
(636,706,o),
(636,722,cs),
(636,741,o),
(618,755,o),
(581,755,cs),
(563,755,o),
(561,753,o),
(552,753,cs),
(525,753,o),
(441,777,o),
(399,807,c)
);
},
{
closed = 1;
nodes = (
(594,521,l),
(649,496,o),
(718,478,o),
(750,478,cs),
(852,478,o),
(884,521,o),
(884,558,cs),
(884,618,o),
(806,652,o),
(729,652,cs),
(586,652,o),
(333,538,o),
(244,493,cs),
(215,477,o),
(199,471,o),
(188,471,cs),
(180,471,o),
(173,475,o),
(173,487,cs),
(173,509,o),
(184,542,o),
(196,557,c),
(184,569,l),
(154,547,o),
(136,499,o),
(136,467,cs),
(136,435,o),
(166,407,o),
(191,407,cs),
(215,407,o),
(219,424,o),
(242,443,cs),
(300,492,o),
(573,627,o),
(728,627,cs),
(789,627,o),
(843,605,o),
(843,563,cs),
(843,540,o),
(816,517,o),
(746,517,cs),
(699,517,o),
(653,526,o),
(599,543,c)
);
},
{
closed = 1;
nodes = (
(477,645,l),
(458,613,o),
(435,514,o),
(435,450,cs),
(435,395,o),
(470,394,o),
(502,394,cs),
(516,394,o),
(529,395,o),
(543,396,cs),
(552,397,o),
(549,393,o),
(540,389,cs),
(476,354,o),
(402,305,o),
(402,267,cs),
(402,236,o),
(426,217,o),
(475,209,cs),
(496,205,o),
(492,205,o),
(477,198,cs),
(410,163,o),
(330,108,o),
(330,55,cs),
(330,-2,o),
(416,-31,o),
(540,-31,cs),
(615,-31,o),
(683,-23,o),
(707,-18,cs),
(732,-14,o),
(742,-10,o),
(742,4,cs),
(742,19,o),
(722,31,o),
(693,31,cs),
(664,31,o),
(607,10,o),
(517,10,cs),
(446,10,o),
(363,26,o),
(363,63,cs),
(363,116,o),
(486,186,o),
(544,198,cs),
(574,205,o),
(588,201,o),
(605,201,cs),
(613,201,o),
(637,202,o),
(637,218,cs),
(637,234,o),
(617,244,o),
(574,244,cs),
(551,244,o),
(432,239,o),
(432,273,cs),
(432,308,o),
(510,349,o),
(542,366,cs),
(574,383,o),
(625,392,o),
(643,392,cs),
(661,392,o),
(678,391,o),
(678,406,cs),
(678,423,o),
(654,434,o),
(625,434,cs),
(606,434,o),
(569,424,o),
(524,424,cs),
(480,424,o),
(470,431,o),
(470,462,cs),
(470,490,o),
(483,561,o),
(491,580,cs),
(492,590,o),
(493,600,o),
(493,610,cs),
(493,620,o),
(492,630,o),
(491,640,c)
);
}
);
width = 1000;
},
{
layerId = "027B829E-3619-44FF-8C68-78647B0AD671";
shapes = (
{
closed = 1;
nodes = (
(367,823,l),
(388,741,o),
(443,729,o),
(466,706,c),
(452,745,l),
(412,724,o),
(379,710,o),
(351,694,c),
(357,685,l),
(394,690,o),
(418,695,o),
(449,695,cs),
(500,695,o),
(567,680,o),
(599,680,cs),
(637,680,o),
(663,694,o),
(663,730,cs),
(663,769,o),
(608,802,o),
(551,802,cs),
(531,802,o),
(531,798,o),
(502,798,cs),
(485,798,o),
(431,797,o),
(375,830,c)
);
},
{
closed = 1;
nodes = (
(595,558,l),
(629,496,o),
(688,455,o),
(770,455,cs),
(852,455,o),
(924,481,o),
(924,558,cs),
(924,618,o),
(846,672,o),
(729,672,cs),
(571,672,o),
(394,592,o),
(285,547,cs),
(254,534,o),
(242,529,o),
(231,529,cs),
(217,529,o),
(210,538,o),
(210,554,cs),
(210,576,o),
(211,607,o),
(223,645,c),
(215,649,l),
(128,614,o),
(86,559,o),
(86,477,cs),
(86,435,o),
(126,397,o),
(171,397,cs),
(205,397,o),
(229,434,o),
(247,449,cs),
(310,502,o),
(554,625,o),
(699,625,cs),
(747,625,o),
(782,605,o),
(782,576,cs),
(782,558,o),
(766,537,o),
(706,537,cs),
(669,537,o),
(633,546,o),
(599,563,c)
);
},
{
closed = 1;
nodes = (
(459,655,l),
(430,623,o),
(387,514,o),
(387,420,cs),
(387,395,o),
(398,376,o),
(429,376,cs),
(433,376,o),
(441,377,o),
(448,378,cs),
(459,378,o),
(443,375,o),
(437,372,cs),
(378,346,o),
(335,316,o),
(335,276,cs),
(335,244,o),
(368,217,o),
(418,201,cs),
(431,197,o),
(435,197,o),
(418,191,cs),
(320,158,o),
(270,104,o),
(270,55,cs),
(270,-12,o),
(366,-51,o),
(520,-51,cs),
(615,-51,o),
(704,-41,o),
(729,-36,cs),
(773,-27,o),
(792,-10,o),
(792,14,cs),
(792,42,o),
(745,79,o),
(693,79,cs),
(664,79,o),
(627,60,o),
(527,60,cs),
(436,60,o),
(343,54,o),
(343,91,cs),
(343,134,o),
(446,159,o),
(514,168,cs),
(564,175,o),
(628,174,o),
(645,174,cs),
(683,174,o),
(707,185,o),
(707,218,cs),
(707,244,o),
(677,284,o),
(604,284,cs),
(541,284,o),
(382,265,o),
(382,299,cs),
(382,324,o),
(480,354,o),
(562,354,cs),
(608,354,o),
(635,352,o),
(653,352,cs),
(691,352,o),
(710,363,o),
(710,398,cs),
(710,425,o),
(674,454,o),
(615,454,cs),
(596,454,o),
(565,445,o),
(527,445,cs),
(513,445,o),
(504,451,o),
(504,462,cs),
(504,490,o),
(512,523,o),
(520,552,cs),
(523,562,o),
(533,590,o),
(533,600,cs),
(533,620,o),
(491,642,o),
(470,652,c)
);
}
);
width = 1000;
},
{
layerId = "22BF860B-E605-42C1-AA52-30D9AB94E7CE";
shapes = (
{
closed = 1;
nodes = (
(380,804,l),
(419,741,o),
(483,723,o),
(509,712,c),
(502,739,l),
(450,718,o),
(404,701,o),
(364,678,c),
(370,664,l),
(413,681,o),
(468,698,o),
(512,701,cs),
(550,703,o),
(580,695,o),
(605,695,cs),
(627,695,o),
(646,702,o),
(646,725,cs),
(646,752,o),
(614,773,o),
(570,773,cs),
(551,773,o),
(550,770,o),
(533,770,cs),
(510,770,o),
(437,785,o),
(390,816,c)
);
},
{
closed = 1;
nodes = (
(594,535,l),
(642,496,o),
(707,469,o),
(758,469,cs),
(852,469,o),
(899,506,o),
(899,558,cs),
(899,618,o),
(821,660,o),
(729,660,cs),
(580,660,o),
(356,558,o),
(259,513,cs),
(230,498,o),
(215,493,o),
(204,493,cs),
(194,493,o),
(187,499,o),
(187,512,cs),
(187,534,o),
(194,566,o),
(206,590,c),
(196,599,l),
(144,572,o),
(117,522,o),
(117,471,cs),
(117,435,o),
(151,403,o),
(184,403,cs),
(211,403,o),
(223,428,o),
(244,445,cs),
(304,496,o),
(566,626,o),
(717,626,cs),
(773,626,o),
(820,605,o),
(820,568,cs),
(820,547,o),
(797,525,o),
(731,525,cs),
(688,525,o),
(646,534,o),
(599,551,c)
);
},
{
closed = 1;
nodes = (
(470,649,l),
(448,617,o),
(417,514,o),
(417,439,cs),
(417,395,o),
(443,387,o),
(475,387,cs),
(485,387,o),
(496,388,o),
(507,389,cs),
(517,390,o),
(509,386,o),
(501,383,cs),
(439,351,o),
(377,309,o),
(377,270,cs),
(377,239,o),
(404,217,o),
(454,206,cs),
(472,202,o),
(471,202,o),
(455,195,cs),
(376,161,o),
(308,107,o),
(308,55,cs),
(308,-6,o),
(397,-38,o),
(533,-38,cs),
(615,-38,o),
(691,-30,o),
(715,-25,cs),
(747,-19,o),
(761,-10,o),
(761,8,cs),
(761,28,o),
(731,49,o),
(693,49,cs),
(664,49,o),
(615,29,o),
(521,29,cs),
(442,29,o),
(356,37,o),
(356,74,cs),
(356,123,o),
(471,176,o),
(533,187,cs),
(570,194,o),
(603,191,o),
(620,191,cs),
(639,191,o),
(663,196,o),
(663,218,cs),
(663,238,o),
(640,259,o),
(585,259,cs),
(547,259,o),
(413,249,o),
(413,283,cs),
(413,314,o),
(499,351,o),
(550,362,cs),
(587,372,o),
(629,377,o),
(647,377,cs),
(672,377,o),
(690,381,o),
(690,403,cs),
(690,424,o),
(662,442,o),
(621,442,cs),
(602,442,o),
(568,432,o),
(525,432,cs),
(492,432,o),
(483,439,o),
(483,462,cs),
(483,490,o),
(494,547,o),
(502,570,cs),
(504,580,o),
(508,596,o),
(508,606,cs),
(508,620,o),
(492,635,o),
(483,645,c)
);
}
);
width = 1000;
}
);
production = u1B00E;
script = hentaigana;
unicode = 110606;
}
{
category = Letter;
glyphname = "e-2-kana";
layers = (
{
backgroundImage = {
imagePath = _sketch/u1B00F.png;
locked = 1;
pos = (0,-120);
};
layerId = m01;
shapes = (
{
closed = 1;
nodes = (
(309,755,l),
(309,704,o),
(361,684,o),
(381,684,cs),
(402,684,o),
(408,689,o),
(427,701,cs),
(459,720,o),
(542,773,o),
(583,773,cs),
(594,773,o),
(603,771,o),
(603,764,cs),
(603,755,o),
(581,708,o),
(572,697,cs),
(563,686,o),
(564,679,o),
(564,673,cs),
(564,667,o),
(575,661,o),
(601,655,cs),
(648,645,o),
(705,619,o),
(705,562,cs),
(705,485,o),
(621,424,o),
(487,424,cs),
(414,424,o),
(358,472,o),
(358,544,cs),
(358,612,o),
(413,653,o),
(439,653,cs),
(463,653,o),
(477,640,o),
(477,613,cs),
(477,533,o),
(308,386,o),
(247,386,cs),
(236,386,o),
(224,390,o),
(224,403,cs),
(224,456,o),
(379,542,o),
(458,542,cs),
(518,542,o),
(555,523,o),
(555,490,cs),
(555,406,o),
(300,253,o),
(221,235,cs),
(179,225,o),
(167,225,o),
(152,225,cs),
(138,225,o),
(120,220,o),
(120,196,cs),
(120,182,o),
(134,172,o),
(152,172,cs),
(170,172,o),
(190,188,o),
(262,208,cs),
(305,220,o),
(519,273,o),
(541,277,c),
(556,290,l),
(458,231,o),
(425,173,o),
(425,121,cs),
(425,44,o),
(516,-38,o),
(660,-38,cs),
(674,-38,o),
(691,-29,o),
(691,-18,cs),
(691,-7,o),
(678,8,o),
(654,8,cs),
(640,8,o),
(618,4,o),
(577,11,cs),
(524,20,o),
(454,64,o),
(454,132,cs),
(454,201,o),
(535,251,o),
(606,282,cs),
(626,290,o),
(732,313,o),
(781,313,cs),
(810,313,o),
(840,308,o),
(859,308,cs),
(879,308,o),
(890,309,o),
(890,323,cs),
(890,335,o),
(875,355,o),
(843,355,cs),
(821,355,o),
(785,350,o),
(753,344,cs),
(721,338,o),
(365,268,o),
(296,249,c),
(305,244,l),
(411,301,o),
(590,416,o),
(590,492,cs),
(590,528,o),
(553,563,o),
(477,563,cs),
(371,563,o),
(195,474,o),
(195,399,cs),
(195,370,o),
(213,357,o),
(237,357,cs),
(326,357,o),
(505,523,o),
(505,605,cs),
(505,656,o),
(474,672,o),
(442,672,cs),
(397,672,o),
(335,617,o),
(335,541,cs),
(335,465,o),
(381,396,o),
(508,396,cs),
(634,396,o),
(741,461,o),
(741,558,cs),
(741,644,o),
(673,665,o),
(623,678,cs),
(601,684,o),
(594,680,o),
(609,698,cs),
(625,716,o),
(647,738,o),
(647,760,cs),
(647,782,o),
(623,798,o),
(595,798,cs),
(577,798,o),
(551,786,o),
(523,777,cs),
(479,763,o),
(386,726,o),
(371,726,cs),
(355,726,o),
(340,727,o),
(326,761,c)
);
}
);
width = 1000;
},
{
layerId = "027B829E-3619-44FF-8C68-78647B0AD671";
width = 1000;
},
{
layerId = "22BF860B-E605-42C1-AA52-30D9AB94E7CE";
width = 1000;
}
);
production = u1B00F;
script = hentaigana;
unicode = 110607;
}
{
category = Letter;
glyphname = "e-3-kana";
layers = (
{
backgroundImage = {
imagePath = "_sketch/u1B010.png";
locked = 1;
pos = (0,-120);
};
layerId = m01;
shapes = (
{
closed = 1;
nodes = (
(111,706,l),
(109,700,o),
(109,695,o),
(109,691,cs),
(109,632,o),
(160,618,o),
(176,618,cs),
(192,618,o),
(212,640,o),
(230,653,cs),
(247,666,o),
(294,709,o),
(320,709,cs),
(336,709,o),
(348,699,o),
(348,687,cs),
(348,647,o),
(269,582,o),
(233,547,cs),
(220,536,o),
(216,530,o),
(216,522,cs),
(216,511,o),
(230,504,o),
(239,492,cs),
(257,469,o),
(289,418,o),
(289,331,cs),
(289,183,o),
(208,17,o),
(154,17,cs),
(135,17,o),
(126,43,o),
(126,68,cs),
(126,173,o),
(229,336,o),
(296,421,cs),
(358,501,o),
(568,743,o),
(706,743,cs),
(747,743,o),
(782,725,o),
(782,684,cs),
(782,646,o),
(738,599,o),
(655,571,c),
(656,549,l),
(704,556,o),
(829,611,o),
(829,684,cs),
(829,742,o),
(774,773,o),
(709,773,cs),
(569,773,o),
(400,597,o),
(283,449,cs),
(165,301,o),
(90,155,o),
(90,58,cs),
(90,-4,o),
(115,-31,o),
(152,-31,cs),
(238,-31,o),
(331,165,o),
(331,319,cs),
(331,422,o),
(294,484,o),
(260,517,cs),
(252,525,o),
(253,527,o),
(261,533,cs),
(326,589,o),
(400,660,o),
(400,693,cs),
(400,730,o),
(359,745,o),
(328,745,cs),
(287,745,o),
(196,671,o),
(169,671,cs),
(149,671,o),
(131,691,o),
(127,709,c)
);
},
{
closed = 1;
nodes = (
(626,597,o),
(649,597,o),
(649,569,cs),
(650,532,o),
(595,485,o),
(584,478,cs),
(573,471,o),
(570,463,o),
(570,456,cs),
(570,450,o),
(576,445,o),
(587,435,cs),
(627,398,o),
(675,332,o),
(675,228,cs),
(675,135,o),
(629,17,o),
(581,17,cs),
(543,17,o),
(476,129,o),
(470,168,c),
(455,151,l),
(479,82,o),
(533,-32,o),
(587,-32,cs),
(632,-32,o),
(711,48,o),
(711,229,cs),
(711,325,o),
(667,397,o),
(608,451,cs),
(601,457,o),
(602,460,o),
(609,464,cs),
(657,502,o),
(693,553,o),
(693,577,cs),
(693,603,o),
(666,622,o),
(645,622,cs),
(634,622,o),
(626,616,o),
(626,606,cs)
);
},
{
closed = 1;
nodes = (
(422,468,l),
(443,481,o),
(459,485,o),
(476,485,cs),
(493,485,o),
(508,477,o),
(508,451,cs),
(508,416,o),
(458,352,o),
(437,332,cs),
(420,317,o),
(406,308,o),
(406,290,cs),
(406,283,o),
(411,275,o),
(426,275,cs),
(439,275,o),
(443,288,o),
(469,313,cs),
(494,337,o),
(523,348,o),
(547,348,cs),
(561,348,o),
(567,338,o),
(567,323,cs),
(567,298,o),
(544,269,o),
(522,245,cs),
(483,205,o),
(387,114,o),
(361,82,cs),
(349,66,o),
(331,47,o),
(331,24,cs),
(331,11,o),
(339,3,o),
(352,3,cs),
(368,3,o),
(376,15,o),
(405,54,cs),
(438,99,o),
(499,172,o),
(581,258,cs),
(648,331,o),
(658,337,o),
(668,351,c),
(662,372,l),
(648,357,o),
(625,335,o),
(602,312,cs),
(591,301,o),
(594,307,o),
(595,314,cs),
(596,317,o),
(596,320,o),
(596,324,cs),
(596,347,o),
(582,370,o),
(551,370,cs),
(539,370,o),
(523,367,o),
(508,362,cs),
(491,357,o),
(497,360,o),
(503,368,cs),
(533,399,o),
(547,429,o),
(547,463,cs),
(547,500,o),
(517,514,o),
(494,514,cs),
(462,514,o),
(425,491,o),
(415,480,c)
);
},
{
closed = 1;
nodes = (
(732,410,o),
(803,462,o),
(840,462,cs),
(852,462,o),
(861,457,o),
(861,441,cs),
(861,386,o),
(769,331,o),
(704,301,c),
(723,288,l),
(835,330,o),
(900,387,o),
(900,441,cs),
(900,469,o),
(878,489,o),
(846,489,cs),
(794,489,o),
(720,428,o),
(664,372,c),
(673,354,l)
);
},
{
closed = 1;
nodes = (
(692,292,l),
(793,242,o),
(861,138,o),
(882,82,cs),
(894,51,o),
(895,28,o),
(909,28,cs),
(922,28,o),
(931,37,o),
(931,58,cs),
(931,80,o),
(921,106,o),
(898,143,cs),
(866,193,o),
(795,267,o),
(690,318,c)
);
}
);
width = 1000;
},
{
layerId = "027B829E-3619-44FF-8C68-78647B0AD671";
shapes = (
{
closed = 1;
nodes = (
(89,761,l),
(79,741,o),
(75,723,o),
(75,690,cs),
(75,633,o),
(140,605,o),
(166,605,cs),
(182,605,o),
(193,616,o),
(211,640,cs),
(228,663,o),
(265,725,o),
(291,725,cs),
(307,725,o),
(309,718,o),
(309,706,cs),
(309,685,o),
(262,601,o),
(188,543,cs),
(172,530,o),
(172,533,o),
(172,522,cs),
(172,505,o),
(191,499,o),
(200,487,cs),
(218,464,o),
(244,434,o),
(244,347,cs),
(244,209,o),
(187,79,o),
(138,79,cs),
(123,79,o),
(116,89,o),
(116,114,cs),
(116,199,o),
(224,372,o),
(296,453,cs),
(403,574,o),
(577,745,o),
(705,745,cs),
(736,745,o),
(755,732,o),
(755,711,cs),
(755,673,o),
(719,644,o),
(684,626,c),
(685,613,l),
(762,620,o),
(881,637,o),
(881,710,cs),
(881,778,o),
(813,808,o),
(728,808,cs),
(588,808,o),
(398,641,o),
(267,488,cs),
(144,343,o),
(64,209,o),
(64,84,cs),
(64,2,o),
(96,-42,o),
(152,-42,cs),
(267,-42,o),
(350,191,o),
(350,345,cs),
(350,440,o),
(308,500,o),
(271,535,cs),
(264,542,o),
(265,546,o),
(275,553,cs),
(351,604,o),
(427,659,o),
(427,709,cs),
(427,765,o),
(366,790,o),
(328,790,cs),
(268,790,o),
(167,734,o),
(140,734,cs),
(120,734,o),
(102,744,o),
(98,762,c)
);
},
{
closed = 1;
nodes = (
(568,610,o),
(592,623,o),
(598,586,cs),
(602,558,o),
(593,530,o),
(585,513,cs),
(579,501,o),
(571,495,o),
(571,482,cs),
(571,473,o),
(586,467,o),
(595,455,cs),
(625,418,o),
(633,353,o),
(633,258,cs),
(633,156,o),
(612,64,o),
(574,64,cs),
(536,64,o),
(490,131,o),
(470,194,c),
(455,177,l),
(474,37,o),
(520,-55,o),
(594,-55,cs),
(687,-55,o),
(740,93,o),
(740,235,cs),
(740,344,o),
(693,437,o),
(624,478,cs),
(613,484,o),
(614,485,o),
(626,492,cs),
(678,520,o),
(722,574,o),
(722,612,cs),
(722,648,o),
(687,683,o),
(637,683,cs),
(587,683,o),
(568,648,o),
(568,632,cs)
);
},
{
closed = 1;
nodes = (
(402,499,l),
(423,503,o),
(421,504,o),
(438,504,cs),
(460,504,o),
(460,488,o),
(460,481,cs),
(460,446,o),
(423,385,o),
(389,354,cs),
(376,343,o),
(360,331,o),
(360,305,cs),
(360,293,o),
(369,271,o),
(396,271,cs),
(419,271,o),
(431,279,o),
(443,297,cs),
(455,314,o),
(473,336,o),
(497,336,cs),
(505,336,o),
(511,333,o),
(511,318,cs),
(511,298,o),
(491,270,o),
(459,232,cs),
(422,188,o),
(395,162,o),
(340,115,cs),
(325,102,o),
(296,75,o),
(296,42,cs),
(296,10,o),
(317,-11,o),
(347,-11,cs),
(383,-11,o),
(396,2,o),
(415,28,cs),
(458,86,o),
(508,168,o),
(570,252,cs),
(612,309,o),
(629,339,o),
(668,375,c),
(651,400,l),
(637,384,o),
(617,365,o),
(598,347,cs),
(588,338,o),
(587,340,o),
(591,347,cs),
(597,359,o),
(601,370,o),
(601,379,cs),
(601,402,o),
(584,419,o),
(553,419,cs),
(545,419,o),
(536,417,o),
(526,414,cs),
(518,411,o),
(513,408,o),
(524,420,cs),
(547,450,o),
(560,478,o),
(560,503,cs),
(560,540,o),
(527,573,o),
(494,573,cs),
(453,573,o),
(416,546,o),
(398,503,c)
);
},
{
closed = 1;
nodes = (
(732,436,o),
(755,466,o),
(783,466,cs),
(793,466,o),
(797,461,o),
(797,451,cs),
(797,413,o),
(769,357,o),
(704,327,c),
(723,314,l),
(835,356,o),
(913,411,o),
(913,474,cs),
(913,512,o),
(888,544,o),
(846,544,cs),
(787,544,o),
(744,500,o),
(653,400,c),
(673,380,l)
);
},
{
closed = 1;
nodes = (
(692,318,l),
(793,268,o),
(813,164,o),
(834,108,cs),
(846,77,o),
(860,22,o),
(901,22,cs),
(935,22,o),
(950,48,o),
(950,79,cs),
(950,147,o),
(926,192,o),
(900,227,cs),
(846,298,o),
(776,322,o),
(690,344,c)
);
}
);
width = 1000;
},
{
layerId = "22BF860B-E605-42C1-AA52-30D9AB94E7CE";
shapes = (
{
closed = 1;
nodes = (
(103,727,l),
(98,715,o),
(96,706,o),
(96,691,cs),
(96,632,o),
(153,613,o),
(172,613,cs),
(188,613,o),
(205,631,o),
(223,648,cs),
(240,665,o),
(283,715,o),
(309,715,cs),
(325,715,o),
(333,706,o),
(333,694,cs),
(333,661,o),
(266,589,o),
(216,546,cs),
(202,534,o),
(200,531,o),
(200,522,cs),
(200,509,o),
(215,502,o),
(224,490,cs),
(242,467,o),
(272,424,o),
(272,337,cs),
(272,193,o),
(200,40,o),
(148,40,cs),
(131,40,o),
(122,60,o),
(122,85,cs),
(122,183,o),
(227,350,o),
(296,433,cs),
(375,528,o),
(571,744,o),
(706,744,cs),
(743,744,o),
(772,728,o),
(772,694,cs),
(772,656,o),
(731,616,o),
(666,592,c),
(667,573,l),
(726,580,o),
(849,621,o),
(849,694,cs),
(849,756,o),
(789,786,o),
(716,786,cs),
(576,786,o),
(399,614,o),
(277,464,cs),
(157,317,o),
(80,175,o),
(80,68,cs),
(80,-2,o),
(108,-35,o),
(152,-35,cs),
(249,-35,o),
(338,175,o),
(338,329,cs),
(338,429,o),
(299,490,o),
(264,524,cs),
(257,531,o),
(258,534,o),
(266,541,cs),
(335,595,o),
(410,660,o),
(410,699,cs),
(410,743,o),
(362,762,o),
(328,762,cs),
(280,762,o),
(185,695,o),
(158,695,cs),
(138,695,o),
(120,711,o),
(116,729,c)
);
},
{
closed = 1;
nodes = (
(604,602,o),
(628,607,o),
(630,575,cs),
(632,542,o),
(594,502,o),
(584,491,cs),
(575,482,o),
(570,475,o),
(570,466,cs),
(570,459,o),
(580,453,o),
(590,443,cs),
(626,406,o),
(659,340,o),
(659,239,cs),
(659,143,o),
(623,35,o),
(578,35,cs),
(540,35,o),
(481,130,o),
(470,178,c),
(455,161,l),
(477,65,o),
(528,-41,o),
(590,-41,cs),
(653,-41,o),
(722,65,o),
(722,231,cs),
(722,332,o),
(677,412,o),
(614,461,cs),
(606,467,o),
(607,469,o),
(615,475,cs),
(665,509,o),
(704,561,o),
(704,590,cs),
(704,620,o),
(674,645,o),
(642,645,cs),
(616,645,o),
(604,628,o),
(604,616,cs)
);
},
{
closed = 1;
nodes = (
(415,480,l),
(436,489,o),
(445,492,o),
(462,492,cs),
(481,492,o),
(490,481,o),
(490,462,cs),
(490,427,o),
(445,364,o),
(419,340,cs),
(404,327,o),
(389,317,o),
(389,296,cs),
(389,287,o),
(395,274,o),
(415,274,cs),
(432,274,o),
(439,285,o),
(459,307,cs),
(479,328,o),
(504,344,o),
(528,344,cs),
(540,344,o),
(546,336,o),
(546,321,cs),
(546,298,o),
(524,269,o),
(498,240,cs),
(460,199,o),
(390,132,o),
(353,94,cs),
(340,80,o),
(318,58,o),
(318,31,cs),
(318,11,o),
(331,-2,o),
(350,-2,cs),
(374,-2,o),
(384,10,o),
(409,44,cs),
(446,94,o),
(502,171,o),
(577,256,cs),
(635,323,o),
(647,338,o),
(668,360,c),
(658,383,l),
(644,367,o),
(622,346,o),
(601,325,cs),
(590,315,o),
(591,319,o),
(594,326,cs),
(596,333,o),
(598,339,o),
(598,345,cs),
(598,368,o),
(583,388,o),
(552,388,cs),
(541,388,o),
(528,386,o),
(515,382,cs),
(501,377,o),
(503,378,o),
(511,388,cs),
(538,418,o),
(552,447,o),
(552,478,cs),
(552,515,o),
(521,536,o),
(494,536,cs),
(459,536,o),
(422,512,o),
(409,489,c)
);
},
{
closed = 1;
nodes = (
(732,420,o),
(785,464,o),
(819,464,cs),
(830,464,o),
(837,459,o),
(837,445,cs),
(837,396,o),
(769,341,o),
(704,311,c),
(723,298,l),
(835,340,o),
(905,396,o),
(905,453,cs),
(905,485,o),
(882,510,o),
(846,510,cs),
(791,510,o),
(729,455,o),
(660,383,c),
(673,364,l)
);
},
{
closed = 1;
nodes = (
(692,302,l),
(793,252,o),
(843,148,o),
(864,92,cs),
(876,61,o),
(882,26,o),
(906,26,cs),
(927,26,o),
(938,41,o),
(938,66,cs),
(938,105,o),
(923,138,o),
(899,175,cs),
(859,232,o),
(788,288,o),
(690,328,c)
);
}
);
width = 1000;
}
);
production = u1B010;
script = hentaigana;
unicode = 110608;
}
{
category = Letter;
glyphname = "e-4-kana";
layers = (
{
backgroundImage = {
imagePath = _sketch/u1B011.png;
locked = 1;
pos = (0,-120);
};
layerId = m01;
shapes = (
{
closed = 1;
nodes = (
(485,-30,o),
(498,-21,o),
(498,14,cs),
(498,139,o),
(628,237,o),
(709,237,cs),
(804,237,o),
(847,152,o),
(847,110,cs),
(847,92,o),
(845,88,o),
(809,74,cs),
(773,60,o),
(698,35,o),
(665,23,c),
(675,-4,l),
(713,7,o),
(795,35,o),
(833,35,cs),
(851,35,o),
(857,20,o),
(874,20,cs),
(891,20,o),
(901,32,o),
(901,70,cs),
(901,138,o),
(840,265,o),
(720,265,cs),
(623,265,o),
(548,195,o),
(506,138,cs),
(492,118,o),
(490,123,o),
(490,141,cs),
(491,246,o),
(461,291,o),
(360,291,cs),
(351,291,o),
(342,290,o),
(332,289,cs),
(318,287,o),
(321,291,o),
(334,299,cs),
(458,381,o),
(610,476,o),
(650,493,cs),
(672,503,o),
(696,513,o),
(696,533,cs),
(696,563,o),
(667,583,o),
(625,583,cs),
(583,583,o),
(356,498,o),
(323,498,cs),
(290,498,o),
(268,526,o),
(260,563,c),
(241,555,l),
(236,543,o),
(236,534,o),
(236,522,cs),
(236,489,o),
(301,446,o),
(323,446,cs),
(345,446,o),
(356,457,o),
(379,472,cs),
(414,494,o),
(595,547,o),
(615,547,cs),
(625,547,o),
(632,544,o),
(632,536,cs),
(632,528,o),
(627,527,o),
(602,509,cs),
(577,491,o),
(343,338,o),
(272,291,cs),
(206,247,o),
(166,229,o),
(138,211,cs),
(110,193,o),
(87,171,o),
(87,149,cs),
(87,127,o),
(94,119,o),
(109,119,cs),
(124,119,o),
(138,137,o),
(173,172,cs),
(208,207,o),
(288,267,o),
(357,267,cs),
(406,267,o),
(450,248,o),
(450,172,cs),
(450,125,o),
(446,50,o),
(446,22,cs),
(446,-6,o),
(447,-30,o),
(471,-30,cs)
);
},
{
closed = 1;
nodes = (
(442,629,o),
(529,660,o),
(575,665,cs),
(603,668,o),
(613,669,o),
(627,669,cs),
(650,669,o),
(657,679,o),
(657,690,cs),
(657,711,o),
(626,723,o),
(602,723,cs),
(586,723,o),
(578,721,o),
(555,722,cs),
(486,725,o),
(425,754,o),
(370,791,c),
(355,776,l),
(417,703,o),
(511,687,o),
(530,686,c),
(536,694,l),
(513,684,o),
(442,656,o),
(393,638,c),
(402,615,l)
);
}
);
width = 1000;
},
{
layerId = "027B829E-3619-44FF-8C68-78647B0AD671";
shapes = (
{
closed = 1;
nodes = (
(528,-63,o),
(566,-31,o),
(566,14,cs),
(566,139,o),
(618,254,o),
(699,254,cs),
(764,254,o),
(805,180,o),
(805,118,cs),
(805,92,o),
(799,79,o),
(768,64,cs),
(736,48,o),
(713,41,o),
(684,29,c),
(684,19,l),
(726,26,o),
(770,27,o),
(793,27,cs),
(841,27,o),
(839,-11,o),
(876,-11,cs),
(923,-11,o),
(951,42,o),
(951,80,cs),
(951,185,o),
(840,295,o),
(700,295,cs),
(626,295,o),
(569,246,o),
(530,187,cs),
(508,152,o),
(517,164,o),
(517,176,cs),
(518,251,o),
(483,293,o),
(414,293,cs),
(396,293,o),
(387,292,o),
(379,291,cs),
(368,290,o),
(366,290,o),
(381,301,cs),
(492,372,o),
(638,432,o),
(679,439,cs),
(740,449,o),
(768,462,o),
(768,493,cs),
(768,533,o),
(667,603,o),
(625,603,cs),
(583,603,o),
(363,539,o),
(330,539,cs),
(297,539,o),
(254,527,o),
(246,584,c),
(236,585,l),
(213,553,o),
(206,532,o),
(206,502,cs),
(206,459,o),
(251,409,o),
(303,409,cs),
(336,409,o),
(351,430,o),
(381,449,cs),
(449,491,o),
(531,531,o),
(561,531,cs),
(571,531,o),
(575,529,o),
(575,524,cs),
(575,516,o),
(558,504,o),
(538,488,cs),
(508,464,o),
(362,366,o),
(281,319,cs),
(212,279,o),
(148,244,o),
(100,215,cs),
(56,188,o),
(38,163,o),
(38,131,cs),
(38,99,o),
(59,76,o),
(104,76,cs),
(137,76,o),
(170,106,o),
(208,137,cs),
(253,174,o),
(308,237,o),
(357,237,cs),
(406,237,o),
(425,219,o),
(425,172,cs),
(425,105,o),
(419,40,o),
(419,2,cs),
(419,-26,o),
(445,-63,o),
(489,-63,cs)
);
},
{
closed = 1;
nodes = (
(432,669,o),
(459,670,o),
(485,672,cs),
(543,677,o),
(581,655,o),
(615,655,cs),
(648,655,o),
(697,669,o),
(697,710,cs),
(697,761,o),
(646,795,o),
(602,795,cs),
(586,795,o),
(559,790,o),
(526,790,cs),
(477,790,o),
(405,797,o),
(350,834,c),
(345,826,l),
(367,753,o),
(471,687,o),
(510,686,c),
(486,744,l),
(453,722,o),
(417,692,o),
(378,662,c),
(382,655,l)
);
}
);
width = 1000;
},
{
layerId = "22BF860B-E605-42C1-AA52-30D9AB94E7CE";
shapes = (
{
closed = 1;
nodes = (
(501,-42,o),
(524,-25,o),
(524,14,cs),
(524,139,o),
(624,243,o),
(705,243,cs),
(789,243,o),
(831,163,o),
(831,113,cs),
(831,92,o),
(828,85,o),
(794,70,cs),
(759,56,o),
(704,37,o),
(672,25,c),
(678,5,l),
(718,14,o),
(786,32,o),
(818,32,cs),
(847,32,o),
(850,8,o),
(875,8,cs),
(903,8,o),
(920,36,o),
(920,74,cs),
(920,156,o),
(840,276,o),
(713,276,cs),
(624,276,o),
(556,214,o),
(515,156,cs),
(498,131,o),
(500,138,o),
(500,154,cs),
(501,248,o),
(469,292,o),
(380,292,cs),
(368,292,o),
(359,291,o),
(350,290,cs),
(337,288,o),
(338,291,o),
(352,300,cs),
(471,378,o),
(621,460,o),
(661,473,cs),
(698,483,o),
(723,494,o),
(723,518,cs),
(723,552,o),
(667,591,o),
(625,591,cs),
(583,591,o),
(359,513,o),
(326,513,cs),
(293,513,o),
(263,526,o),
(255,571,c),
(239,566,l),
(227,547,o),
(225,533,o),
(225,515,cs),
(225,478,o),
(282,432,o),
(316,432,cs),
(342,432,o),
(354,447,o),
(380,463,cs),
(427,493,o),
(571,541,o),
(595,541,cs),
(605,541,o),
(611,538,o),
(611,532,cs),
(611,524,o),
(601,518,o),
(578,501,cs),
(551,481,o),
(350,349,o),
(275,302,cs),
(208,259,o),
(159,235,o),
(124,213,cs),
(90,191,o),
(69,168,o),
(69,142,cs),
(69,117,o),
(81,103,o),
(107,103,cs),
(129,103,o),
(150,125,o),
(186,159,cs),
(225,195,o),
(296,256,o),
(357,256,cs),
(406,256,o),
(441,237,o),
(441,172,cs),
(441,118,o),
(436,46,o),
(436,15,cs),
(436,-13,o),
(446,-42,o),
(478,-42,cs)
);
},
{
closed = 1;
nodes = (
(438,644,o),
(503,664,o),
(541,668,cs),
(581,671,o),
(601,664,o),
(623,664,cs),
(649,664,o),
(672,675,o),
(672,698,cs),
(672,730,o),
(634,750,o),
(602,750,cs),
(586,750,o),
(571,747,o),
(544,748,cs),
(483,749,o),
(418,770,o),
(363,807,c),
(351,795,l),
(398,722,o),
(496,687,o),
(523,686,c),
(517,713,l),
(491,698,o),
(433,670,o),
(387,647,c),
(395,630,l)
);
}
);
width = 1000;
}
);
production = u1B011;
script = hentaigana;
unicode = 110609;
}
{
category = Letter;
glyphname = "e-5-kana";
layers = (
{
backgroundImage = {
imagePath = _sketch/u1B012.png;
locked = 1;
pos = (0,-120);
};
layerId = m01;
shapes = (
{
closed = 1;
nodes = (
(368,774,l),
(386,735,o),
(406,706,o),
(425,688,cs),
(444,670,o),
(449,666,o),
(436,657,cs),
(411,640,o),
(304,574,o),
(289,562,cs),
(274,550,o),
(266,544,o),
(266,528,cs),
(266,512,o),
(280,504,o),
(292,488,cs),
(304,472,o),
(311,458,o),
(311,416,cs),
(311,374,o),
(311,274,o),
(319,232,cs),
(327,190,o),
(340,153,o),
(389,111,cs),
(464,48,o),
(712,-20,o),
(741,-20,cs),
(760,-20,o),
(774,-16,o),
(774,0,cs),
(774,18,o),
(756,33,o),
(714,41,cs),
(679,48,o),
(535,85,o),
(482,103,cs),
(429,121,o),
(358,171,o),
(358,243,cs),
(358,293,o),
(357,352,o),
(357,400,cs),
(357,498,o),
(295,501,o),
(295,530,cs),
(295,547,o),
(307,551,o),
(338,569,cs),
(376,591,o),
(454,630,o),
(476,636,cs),
(488,639,o),
(512,630,o),
(530,629,cs),
(546,628,o),
(556,634,o),
(556,645,cs),
(556,666,o),
(541,678,o),
(502,689,cs),
(463,700,o),
(418,737,o),
(388,790,c)
);
}
);
width = 1000;
},
{
layerId = "027B829E-3619-44FF-8C68-78647B0AD671";
width = 1000;
},
{
layerId = "22BF860B-E605-42C1-AA52-30D9AB94E7CE";
width = 1000;
}
);
production = u1B012;
script = hentaigana;
unicode = 110610;
}
{
category = Letter;
glyphname = "e-6-kana";
layers = (
{
backgroundImage = {
imagePath = _sketch/u1B013.png;
locked = 1;
pos = (0,-120);
};
layerId = m01;
shapes = (
{
closed = 1;
nodes = (
(520,209,o),
(645,332,o),
(645,400,cs),
(645,432,o),
(613,466,o),
(567,466,c),
(559,453,l),
(672,418,o),
(543,272,o),
(420,181,cs),
(360,137,o),
(262,79,o),
(206,79,cs),
(189,79,o),
(178,89,o),
(178,116,cs),
(178,181,o),
(264,281,o),
(396,345,cs),
(464,376,o),
(527,395,o),
(608,391,cs),
(768,384,o),
(837,305,o),
(837,216,cs),
(837,73,o),
(670,5,o),
(433,-17,c),
(438,-37,l),
(689,-30,o),
(888,47,o),
(888,205,cs),
(888,303,o),
(811,415,o),
(619,415,cs),
(538,415,o),
(462,402,o),
(411,380,cs),
(390,371,ls),
(282,325,o),
(137,220,o),
(137,101,cs),
(137,59,o),
(160,39,o),
(203,39,cs),
(255,39,o),
(354,85,o),
(432,143,cs)
);
},
{
closed = 1;
nodes = (
(543,615,o),
(253,487,o),
(229,487,cs),
(198,487,o),
(186,513,o),
(179,557,c),
(160,559,l),
(154,544,o),
(151,531,o),
(151,520,cs),
(151,471,o),
(204,437,o),
(235,437,cs),
(271,437,o),
(272,457,o),
(326,482,cs),
(440,536,o),
(568,589,o),
(689,589,cs),
(746,589,o),
(798,568,o),
(798,542,cs),
(798,511,o),
(765,497,o),
(721,497,cs),
(676,497,o),
(619,510,o),
(590,523,c),
(579,500,l),
(643,478,o),
(671,468,o),
(739,468,cs),
(779,468,o),
(846,484,o),
(846,532,cs),
(846,593,o),
(768,615,o),
(689,615,cs)
);
},
{
closed = 1;
nodes = (
(411,125,o),
(453,43,o),
(480,43,cs),
(488,43,o),
(495,48,o),
(495,57,cs),
(495,73,o),
(485,84,o),
(465,112,cs),
(448,136,o),
(438,157,o),
(427,192,cs),
(418,221,o),
(412,254,o),
(412,308,cs),
(412,393,o),
(433,482,o),
(465,572,cs),
(475,601,o),
(481,605,o),
(481,621,cs),
(481,635,o),
(457,672,o),
(410,672,cs),
(391,672,o),
(382,671,o),
(365,667,c),
(367,649,l),
(388,647,o),
(398,649,o),
(416,640,cs),
(424,636,o),
(433,631,o),
(433,616,cs),
(433,602,o),
(423,566,o),
(411,519,cs),
(396,457,o),
(378,352,o),
(378,305,cs),
(378,254,o),
(385,211,o),
(399,165,cs)
);
},
{
closed = 1;
nodes = (
(532,729,o),
(512,701,o),
(463,686,c),
(472,667,l),
(512,679,o),
(528,701,o),
(574,705,cs),
(602,708,o),
(612,708,o),
(626,708,cs),
(649,708,o),
(656,717,o),
(656,726,cs),
(656,743,o),
(625,753,o),
(601,753,cs),
(585,753,o),
(577,751,o),
(554,752,cs),
(485,755,o),
(422,765,o),
(367,795,c),
(355,779,l),
(417,719,o),
(520,713,o),
(559,712,c),
(555,737,l)
);
}
);
width = 1000;
},
{
layerId = "027B829E-3619-44FF-8C68-78647B0AD671";
width = 1000;
},
{
layerId = "22BF860B-E605-42C1-AA52-30D9AB94E7CE";
width = 1000;
}
);
production = u1B013;
script = hentaigana;
unicode = 110611;
}
{
category = Letter;
glyphname = "o-1-kana";
layers = (
{
backgroundImage = {
imagePath = _sketch/u1B014.png;
locked = 1;
pos = (0,-120);
};
layerId = m01;
shapes = (
{
closed = 1;
nodes = (
(634,771,l),
(674,759,o),
(700,740,o),
(700,715,cs),
(700,700,o),
(689,678,o),
(663,649,cs),
(637,620,o),
(564,539,o),
(503,498,cs),
(482,484,o),
(464,485,o),
(464,473,cs),
(464,461,o),
(487,453,o),
(501,453,cs),
(514,453,o),
(529,459,o),
(551,470,cs),
(573,481,o),
(733,524,o),
(800,524,cs),
(836,524,o),
(862,517,o),
(882,509,cs),
(903,501,o),
(912,513,o),
(912,524,cs),
(912,535,o),
(901,552,o),
(875,559,cs),
(848,566,o),
(831,566,o),
(811,566,cs),
(791,566,o),
(607,531,o),
(524,493,c),
(545,497,l),
(598,534,o),
(710,651,o),
(725,665,cs),
(740,679,o),
(762,685,o),
(762,705,cs),
(762,745,o),
(706,788,o),
(643,791,c)
);
},
{
closed = 1;
nodes = (
(697,456,l),
(666,440,o),
(639,406,o),
(639,383,cs),
(639,347,o),
(723,307,o),
(768,283,c),
(766,317,l),
(703,285,o),
(561,214,o),
(549,207,cs),
(537,200,o),
(519,196,o),
(519,186,cs),
(519,170,o),
(534,173,o),
(566,163,cs),
(664,132,o),
(785,63,o),
(844,-7,cs),
(859,-25,o),
(870,-31,o),
(883,-31,cs),
(896,-31,o),
(902,-25,o),
(902,-13,cs),
(902,6,o),
(884,23,o),
(864,40,cs),
(806,91,o),
(680,168,o),
(551,191,c),
(552,179,l),
(613,219,o),
(722,270,o),
(773,275,cs),
(802,278,o),
(826,271,o),
(826,287,cs),
(826,303,o),
(807,317,o),
(783,325,cs),
(759,333,o),
(671,363,o),
(671,392,cs),
(671,411,o),
(686,423,o),
(708,447,c)
);
},
{
ref = _katahen_1;
}
);
width = 1000;
},
{
layerId = "027B829E-3619-44FF-8C68-78647B0AD671";
width = 1000;
},
{
layerId = "22BF860B-E605-42C1-AA52-30D9AB94E7CE";
width = 1000;
}
);
production = u1B014;
script = hentaigana;
unicode = 110612;
}
{
category = Letter;
glyphname = "o-2-kana";
layers = (
{
backgroundImage = {
imagePath = _sketch/u1B015.png;
locked = 1;
pos = (0,-120);
};
layerId = m01;
shapes = (
{
ref = _katahen_1;
},
{
closed = 1;
nodes = (
(636,646,l),
(702,647,o),
(756,633,o),
(788,617,cs),
(811,605,o),
(816,602,o),
(816,590,cs),
(816,574,o),
(752,514,o),
(731,496,c),
(741,485,l),
(782,514,o),
(844,563,o),
(857,563,cs),
(870,563,o),
(909,529,o),
(909,562,cs),
(909,575,o),
(908,587,o),
(881,609,cs),
(817,663,o),
(725,682,o),
(636,668,c)
);
},
{
closed = 1;
nodes = (
(582,241,l),
(549,39,o),
(814,20,o),
(867,20,cs),
(906,20,o),
(911,25,o),
(911,42,cs),
(911,59,o),
(891,68,o),
(869,68,cs),
(767,70,o),
(589,92,o),
(601,236,c)
);
}
);
width = 1000;
},
{
layerId = "027B829E-3619-44FF-8C68-78647B0AD671";
width = 1000;
},
{
layerId = "22BF860B-E605-42C1-AA52-30D9AB94E7CE";
width = 1000;
}
);
production = u1B015;
script = hentaigana;
unicode = 110613;
}
{
category = Letter;
glyphname = "o-3-kana";
layers = (
{
backgroundImage = {
imagePath = _sketch/u1B016.png;
locked = 1;
pos = (0,-120);
};
layerId = m01;
shapes = (
{
closed = 1;
nodes = (
(54,684,l),
(73,654,o),
(97,641,o),
(140,641,cs),
(168,641,o),
(256,667,o),
(300,692,c),
(305,721,l),
(218,575,o),
(171,358,o),
(171,184,cs),
(171,104,o),
(177,40,o),
(186,7,cs),
(192,-15,o),
(201,-29,o),
(214,-29,cs),
(232,-29,o),
(241,-22,o),
(241,10,cs),
(241,42,o),
(218,105,o),
(218,222,cs),
(218,465,o),
(300,636,o),
(323,670,cs),
(351,708,o),
(379,725,o),
(379,743,cs),
(379,758,o),
(356,765,o),
(337,765,cs),
(322,765,o),
(310,748,o),
(288,736,cs),
(260,721,o),
(165,685,o),
(132,685,cs),
(110,685,o),
(86,686,o),
(64,701,c)
);
},
{
closed = 1;
nodes = (
(460,738,l),
(475,700,o),
(518,689,o),
(546,689,cs),
(584,689,o),
(713,719,o),
(745,745,c),
(733,753,l),
(673,707,o),
(575,624,o),
(562,614,cs),
(545,603,o),
(531,594,o),
(531,578,cs),
(531,563,o),
(539,553,o),
(554,553,cs),
(578,553,o),
(588,575,o),
(608,595,cs),
(633,619,o),
(659,636,o),
(689,636,cs),
(708,636,o),
(734,621,o),
(734,595,cs),
(734,568,o),
(693,532,o),
(652,505,cs),
(585,461,o),
(469,398,o),
(434,378,cs),
(398,357,o),
(371,348,o),
(371,328,cs),
(371,309,o),
(380,301,o),
(398,301,cs),
(417,301,o),
(425,318,o),
(456,341,cs),
(497,371,o),
(611,464,o),
(713,464,cs),
(789,464,o),
(829,421,o),
(829,369,cs),
(829,299,o),
(762,269,o),
(658,267,c),
(609,239,l),
(708,209,o),
(880,262,o),
(880,364,cs),
(880,462,o),
(787,488,o),
(735,488,cs),
(686,488,o),
(609,467,o),
(593,454,c),
(605,449,l),
(678,488,o),
(781,541,o),
(781,593,cs),
(781,633,o),
(739,662,o),
(700,662,cs),
(664,662,o),
(621,644,o),
(595,616,c),
(603,605,l),
(648,655,o),
(732,711,o),
(759,727,cs),
(786,743,o),
(821,741,o),
(821,757,cs),
(821,780,o),
(798,785,o),
(776,785,cs),
(752,785,o),
(592,730,o),
(541,731,cs),
(513,731,o),
(487,739,o),
(474,756,c)
);
},
{
closed = 1;
nodes = (
(576,223,o),
(617,225,o),
(640,225,c),
(616,246,l),
(578,211,o),
(476,122,o),
(476,67,cs),
(476,9,o),
(566,-4,o),
(650,-4,cs),
(727,-4,o),
(801,2,o),
(835,6,cs),
(854,8,o),
(876,9,o),
(876,30,cs),
(876,43,o),
(858,56,o),
(832,56,cs),
(814,56,o),
(710,39,o),
(648,39,cs),
(596,39,o),
(515,41,o),
(515,77,cs),
(515,123,o),
(636,226,o),
(660,237,cs),
(680,247,o),
(682,258,o),
(682,274,cs),
(682,291,o),
(665,302,o),
(643,302,cs),
(621,302,o),
(576,282,o),
(576,253,cs)
);
}
);
width = 1000;
},
{
layerId = "027B829E-3619-44FF-8C68-78647B0AD671";
shapes = (
{
closed = 1;
nodes = (
(49,737,l),
(50,680,o),
(81,625,o),
(160,625,cs),
(179,625,o),
(240,640,o),
(284,665,c),
(243,712,l),
(156,566,o),
(138,377,o),
(138,239,cs),
(138,123,o),
(152,40,o),
(161,7,cs),
(167,-15,o),
(187,-65,o),
(228,-65,cs),
(264,-65,o),
(279,-31,o),
(279,1,cs),
(279,33,o),
(247,132,o),
(247,285,cs),
(247,474,o),
(299,618,o),
(327,655,cs),
(360,698,o),
(426,695,o),
(426,734,cs),
(426,770,o),
(383,792,o),
(355,792,cs),
(326,792,o),
(310,775,o),
(288,763,cs),
(242,739,o),
(176,727,o),
(134,727,cs),
(112,727,o),
(79,728,o),
(57,743,c)
);
},
{
closed = 1;
nodes = (
(454,777,l),
(440,682,o),
(510,662,o),
(538,662,cs),
(576,662,o),
(687,683,o),
(728,700,c),
(698,717,l),
(647,680,o),
(540,613,o),
(508,594,cs),
(452,561,o),
(445,559,o),
(445,522,cs),
(445,498,o),
(465,475,o),
(490,475,cs),
(515,475,o),
(540,494,o),
(561,513,cs),
(594,544,o),
(633,572,o),
(661,572,cs),
(673,572,o),
(681,568,o),
(681,560,cs),
(681,542,o),
(635,516,o),
(594,489,cs),
(527,445,o),
(461,398,o),
(435,385,cs),
(399,366,o),
(345,330,o),
(345,292,cs),
(345,254,o),
(372,246,o),
(399,246,cs),
(436,246,o),
(462,291,o),
(493,313,cs),
(525,335,o),
(594,424,o),
(678,424,cs),
(745,424,o),
(785,394,o),
(785,342,cs),
(785,290,o),
(736,260,o),
(641,294,c),
(592,203,l),
(773,167,o),
(914,226,o),
(914,346,cs),
(914,426,o),
(848,479,o),
(754,479,cs),
(696,479,o),
(601,440,o),
(585,427,c),
(615,422,l),
(688,461,o),
(818,514,o),
(818,571,cs),
(818,606,o),
(764,632,o),
(704,632,cs),
(668,632,o),
(604,608,o),
(578,580,c),
(604,569,l),
(658,600,o),
(760,675,o),
(787,691,cs),
(814,707,o),
(858,714,o),
(858,748,cs),
(858,780,o),
(808,803,o),
(777,803,cs),
(753,803,o),
(602,748,o),
(533,754,cs),
(487,758,o),
(476,763,o),
(463,780,c)
);
},
{
closed = 1;
nodes = (
(532,214,o),
(573,202,o),
(596,202,c),
(653,264,l),
(506,202,o),
(422,158,o),
(422,76,cs),
(422,0,o),
(522,-40,o),
(642,-40,cs),
(719,-40,o),
(804,-30,o),
(838,-26,cs),
(875,-22,o),
(904,-9,o),
(904,21,cs),
(904,60,o),
(832,92,o),
(806,92,cs),
(770,92,o),
(729,66,o),
(613,66,cs),
(542,66,o),
(489,75,o),
(489,111,cs),
(489,157,o),
(583,187,o),
(653,207,cs),
(673,213,o),
(692,240,o),
(692,256,cs),
(692,282,o),
(657,311,o),
(617,311,cs),
(570,311,o),
(532,282,o),
(532,244,cs)
);
}
);
width = 1000;
},
{
layerId = "22BF860B-E605-42C1-AA52-30D9AB94E7CE";
shapes = (
{
closed = 1;
nodes = (
(52,704,l),
(64,664,o),
(91,635,o),
(148,635,cs),
(172,635,o),
(250,657,o),
(294,682,c),
(282,718,l),
(195,572,o),
(159,365,o),
(159,205,cs),
(159,111,o),
(168,40,o),
(177,7,cs),
(183,-15,o),
(196,-42,o),
(219,-42,cs),
(244,-42,o),
(255,-25,o),
(255,7,cs),
(255,39,o),
(229,115,o),
(229,246,cs),
(229,468,o),
(300,629,o),
(325,664,cs),
(354,704,o),
(397,714,o),
(397,740,cs),
(397,763,o),
(366,775,o),
(344,775,cs),
(324,775,o),
(310,758,o),
(288,746,cs),
(253,728,o),
(169,701,o),
(133,701,cs),
(111,701,o),
(83,702,o),
(61,717,c)
);
},
{
closed = 1;
nodes = (
(458,753,l),
(462,693,o),
(515,679,o),
(543,679,cs),
(581,679,o),
(703,706,o),
(739,728,c),
(720,740,l),
(663,697,o),
(562,620,o),
(542,607,cs),
(510,587,o),
(499,581,o),
(499,557,cs),
(499,539,o),
(511,524,o),
(530,524,cs),
(554,524,o),
(570,545,o),
(590,564,cs),
(618,591,o),
(649,612,o),
(679,612,cs),
(695,612,o),
(714,601,o),
(714,582,cs),
(714,558,o),
(671,526,o),
(630,499,cs),
(563,455,o),
(466,398,o),
(434,381,cs),
(398,360,o),
(361,341,o),
(361,315,cs),
(361,288,o),
(377,280,o),
(398,280,cs),
(424,280,o),
(439,308,o),
(470,331,cs),
(508,358,o),
(605,449,o),
(700,449,cs),
(773,449,o),
(813,411,o),
(813,359,cs),
(813,296,o),
(752,266,o),
(652,277,c),
(603,226,l),
(732,193,o),
(893,249,o),
(893,357,cs),
(893,449,o),
(810,485,o),
(742,485,cs),
(690,485,o),
(606,457,o),
(590,444,c),
(609,439,l),
(682,478,o),
(795,531,o),
(795,585,cs),
(795,623,o),
(748,651,o),
(702,651,cs),
(666,651,o),
(615,631,o),
(589,603,c),
(603,592,l),
(652,634,o),
(743,698,o),
(770,714,cs),
(797,730,o),
(835,731,o),
(835,754,cs),
(835,780,o),
(802,792,o),
(776,792,cs),
(752,792,o),
(596,737,o),
(538,740,cs),
(503,741,o),
(483,748,o),
(470,765,c)
);
},
{
closed = 1;
nodes = (
(560,220,o),
(601,216,o),
(624,216,c),
(630,253,l),
(551,208,o),
(456,136,o),
(456,70,cs),
(456,6,o),
(550,-17,o),
(647,-17,cs),
(724,-17,o),
(802,-10,o),
(836,-6,cs),
(862,-3,o),
(887,2,o),
(887,27,cs),
(887,49,o),
(848,70,o),
(822,70,cs),
(798,70,o),
(717,49,o),
(635,49,cs),
(576,49,o),
(505,54,o),
(505,90,cs),
(505,136,o),
(616,211,o),
(657,226,cs),
(677,234,o),
(686,251,o),
(686,267,cs),
(686,288,o),
(662,305,o),
(633,305,cs),
(602,305,o),
(560,282,o),
(560,250,cs)
);
}
);
width = 1000;
}
);
production = u1B016;
script = hentaigana;
unicode = 110614;
}
{
category = Letter;
glyphname = "ka-1-kana";
layers = (
{
backgroundImage = {
imagePath = _sketch/u1B017.png;
locked = 1;
pos = (0,-120);
};
layerId = m01;
shapes = (
{
closed = 1;
nodes = (
(384,519,l),
(541,584,o),
(662,594,o),
(778,594,cs),
(821,594,o),
(841,587,o),
(851,587,cs),
(861,587,o),
(868,594,o),
(868,604,cs),
(868,623,o),
(836,632,o),
(777,632,cs),
(691,632,o),
(531,618,o),
(375,537,c)
);
},
{
closed = 1;
nodes = (
(514,737,l),
(527,742,o),
(528,741,o),
(542,741,cs),
(556,741,o),
(582,730,o),
(582,705,cs),
(582,678,o),
(580,469,o),
(580,438,c),
(616,410,l),
(616,464,o),
(617,662,o),
(624,680,cs),
(631,700,o),
(638,705,o),
(638,726,cs),
(638,749,o),
(582,774,o),
(558,774,cs),
(534,774,o),
(519,769,o),
(505,754,c)
);
},
{
closed = 1;
nodes = (
(432,284,o),
(485,233,o),
(529,233,cs),
(573,233,o),
(624,314,o),
(624,382,cs),
(624,430,o),
(609,465,o),
(556,465,cs),
(493,465,o),
(432,415,o),
(432,343,cs)
);
},
{
closed = 1;
nodes = (
(568,436,o),
(584,432,o),
(584,380,cs),
(584,346,o),
(556,274,o),
(529,274,cs),
(494,274,o),
(464,303,o),
(464,350,cs),
(464,388,o),
(499,436,o),
(540,436,cs)
);
},
{
closed = 1;
nodes = (
(546,270,l),
(510,197,o),
(470,122,o),
(470,78,cs),
(470,7,o),
(513,-26,o),
(647,-26,cs),
(761,-26,o),
(851,2,o),
(851,49,cs),
(851,64,o),
(834,90,o),
(824,134,cs),
(805,222,o),
(790,348,o),
(790,390,cs),
(790,425,o),
(796,450,o),
(819,450,cs),
(848,450,o),
(873,425,o),
(873,379,cs),
(873,355,o),
(849,349,o),
(804,327,c),
(810,311,l),
(845,325,o),
(852,328,o),
(866,328,cs),
(874,328,o),
(888,318,o),
(897,318,cs),
(913,318,o),
(919,328,o),
(919,340,cs),
(919,392,o),
(892,473,o),
(817,473,cs),
(782,473,o),
(766,444,o),
(766,394,cs),
(766,297,o),
(797,107,o),
(797,66,cs),
(797,26,o),
(709,10,o),
(647,10,cs),
(591,10,o),
(506,14,o),
(506,84,cs),
(506,117,o),
(525,165,o),
(590,281,c)
);
},
{
ref = _ninben_001;
}
);
width = 1000;
},
{
background = {
shapes = (
{
closed = 1;
nodes = (
(171,377,o),
(202,423,o),
(241,423,cs),
(275,423,o),
(287,395,o),
(287,358,cs),
(287,304,o),
(268,253,o),
(227,253,cs),
(191,253,o),
(171,287,o),
(171,321,cs)
);
},
{
closed = 1;
nodes = (
(398,684,ls),
(405,720,o),
(422,729,o),
(422,754,cs),
(422,779,o),
(356,817,o),
(301,817,cs),
(266,817,o),
(245,807,o),
(220,793,c),
(221,782,l),
(242,773,o),
(257,765,o),
(269,756,cs),
(282,746,o),
(284,738,o),
(284,717,cs),
(284,640,l),
(245,631,o),
(203,622,o),
(176,622,cs),
(133,622,o),
(111,629,o),
(63,666,c),
(53,659,l),
(78,570,o),
(111,529,o),
(184,529,cs),
(215,529,o),
(248,532,o),
(282,537,c),
(281,472,l),
(275,472,o),
(270,472,o),
(264,472,cs),
(174,472,o),
(104,380,o),
(104,282,cs),
(104,211,o),
(161,144,o),
(235,135,c),
(233,118,o),
(231,101,o),
(231,82,cs),
(231,-11,o),
(293,-65,o),
(490,-65,cs),
(701,-65,o),
(805,0,o),
(805,82,cs),
(805,126,o),
(785,139,o),
(750,234,cs),
(730,288,o),
(710,406,o),
(710,454,cs),
(710,531,o),
(731,551,o),
(757,551,cs),
(789,551,o),
(840,495,o),
(840,451,cs),
(840,437,o),
(836,429,o),
(826,421,cs),
(811,409,o),
(783,393,o),
(759,380,c),
(763,368,l),
(867,380,o),
(859,328,o),
(911,328,cs),
(966,328,o),
(971,372,o),
(971,408,cs),
(971,521,o),
(867,601,o),
(782,601,cs),
(715,601,o),
(667,556,o),
(667,451,cs),
(667,383,o),
(672,255,o),
(672,200,cs),
(672,126,o),
(653,104,o),
(616,84,cs),
(583,66,o),
(531,53,o),
(455,53,cs),
(366,53,o),
(311,64,o),
(311,110,cs),
(311,126,o),
(316,145,o),
(323,166,c),
(371,215,o),
(392,309,o),
(392,365,cs),
(392,403,o),
(381,429,o),
(360,446,c),
(365,483,o),
(370,521,o),
(376,556,c),
(428,569,o),
(476,584,o),
(509,596,cs),
(558,614,o),
(570,635,o),
(570,655,cs),
(570,704,o),
(526,709,o),
(484,709,cs),
(482,709,o),
(440,690,o),
(396,674,c)
);
}
);
};
layerId = "027B829E-3619-44FF-8C68-78647B0AD671";
shapes = (
{
closed = 1;
nodes = (
(394,519,l),
(521,564,o),
(642,566,o),
(748,566,cs),
(781,566,o),
(813,560,o),
(823,560,cs),
(853,560,o),
(877,566,o),
(877,596,cs),
(877,645,o),
(826,672,o),
(755,672,cs),
(634,672,o),
(480,653,o),
(390,524,c)
);
},
{
closed = 1;
nodes = (
(511,772,l),
(541,767,o),
(552,745,o),
(552,731,cs),
(552,720,o),
(552,719,o),
(552,694,cs),
(552,667,o),
(548,517,o),
(548,446,c),
(636,420,l),
(636,514,o),
(654,682,o),
(661,700,cs),
(669,720,o),
(678,723,o),
(678,740,cs),
(678,767,o),
(632,813,o),
(586,813,cs),
(554,813,o),
(532,801,o),
(510,775,c)
);
},
{
closed = 1;
nodes = (
(393,231,o),
(427,149,o),
(511,149,cs),
(584,149,o),
(655,245,o),
(655,377,cs),
(655,460,o),
(599,480,o),
(546,480,cs),
(458,480,o),
(393,383,o),
(393,297,cs)
);
},
{
closed = 1;
nodes = (
(553,432,o),
(561,411,o),
(561,373,cs),
(561,310,o),
(546,259,o),
(509,259,cs),
(483,259,o),
(465,294,o),
(465,326,cs),
(465,382,o),
(500,432,o),
(532,432,cs)
);
},
{
closed = 1;
nodes = (
(512,240,l),
(477,167,o),
(450,114,o),
(450,70,cs),
(450,-1,o),
(510,-44,o),
(640,-44,cs),
(801,-44,o),
(887,4,o),
(887,51,cs),
(887,96,o),
(832,102,o),
(822,146,cs),
(804,234,o),
(775,335,o),
(775,414,cs),
(775,439,o),
(784,467,o),
(805,467,cs),
(833,467,o),
(836,405,o),
(836,379,cs),
(836,355,o),
(836,349,o),
(793,327,c),
(795,318,l),
(832,325,o),
(839,315,o),
(853,308,cs),
(861,304,o),
(878,290,o),
(897,290,cs),
(933,290,o),
(943,318,o),
(943,340,cs),
(943,412,o),
(888,503,o),
(815,503,cs),
(771,503,o),
(732,464,o),
(732,364,cs),
(732,297,o),
(739,169,o),
(739,118,cs),
(739,87,o),
(720,69,o),
(640,69,cs),
(556,69,o),
(532,83,o),
(532,106,cs),
(532,139,o),
(568,181,o),
(559,173,c)
);
},
{
pos = (-20,0);
ref = _ninben_001;
}
);
width = 1000;
},
{
layerId = "22BF860B-E605-42C1-AA52-30D9AB94E7CE";
shapes = (
{
closed = 1;
nodes = (
(388,519,l),
(534,577,o),
(655,584,o),
(767,584,cs),
(806,584,o),
(831,577,o),
(841,577,cs),
(858,577,o),
(871,584,o),
(871,601,cs),
(871,631,o),
(832,647,o),
(769,647,cs),
(670,647,o),
(512,631,o),
(381,532,c)
);
},
{
closed = 1;
nodes = (
(513,750,l),
(532,751,o),
(537,743,o),
(546,737,cs),
(555,733,o),
(571,726,o),
(571,701,cs),
(571,674,o),
(568,487,o),
(568,441,c),
(624,414,l),
(624,483,o),
(631,670,o),
(638,688,cs),
(645,708,o),
(653,712,o),
(653,731,cs),
(653,756,o),
(601,789,o),
(569,789,cs),
(542,789,o),
(524,781,o),
(507,762,c)
);
},
{
closed = 1;
nodes = (
(417,264,o),
(463,202,o),
(522,202,cs),
(577,202,o),
(636,288,o),
(636,380,cs),
(636,441,o),
(605,471,o),
(552,471,cs),
(480,471,o),
(417,403,o),
(417,326,cs)
);
},
{
closed = 1;
nodes = (
(562,435,o),
(575,424,o),
(575,377,cs),
(575,333,o),
(552,268,o),
(522,268,cs),
(490,268,o),
(464,300,o),
(464,341,cs),
(464,386,o),
(499,435,o),
(537,435,cs)
);
},
{
closed = 1;
nodes = (
(533,259,l),
(498,186,o),
(463,119,o),
(463,75,cs),
(463,4,o),
(512,-33,o),
(644,-33,cs),
(776,-33,o),
(865,3,o),
(865,50,cs),
(865,76,o),
(833,95,o),
(823,139,cs),
(805,227,o),
(784,343,o),
(784,399,cs),
(784,430,o),
(792,456,o),
(814,456,cs),
(842,456,o),
(859,418,o),
(859,379,cs),
(859,355,o),
(844,349,o),
(800,327,c),
(804,314,l),
(840,325,o),
(847,323,o),
(861,321,cs),
(869,319,o),
(884,308,o),
(897,308,cs),
(921,308,o),
(928,324,o),
(928,340,cs),
(928,400,o),
(891,484,o),
(816,484,cs),
(778,484,o),
(753,452,o),
(753,383,cs),
(753,297,o),
(775,130,o),
(775,86,cs),
(775,49,o),
(713,32,o),
(644,32,cs),
(578,32,o),
(516,40,o),
(516,92,cs),
(516,125,o),
(541,171,o),
(578,241,c)
);
},
{
alignment = -1;
pos = (-7,0);
ref = _ninben_001;
}
);
width = 1000;
}
);
production = u1B017;
script = hentaigana;
unicode = 110615;
}
{
category = Letter;
glyphname = "ka-2-kana";
layers = (
{
backgroundImage = {
imagePath = _sketch/u1B018.png;
locked = 1;
pos = (0,-120);
};
layerId = m01;
shapes = (
{
closed = 1;
nodes = (
(353,515,ls),
(382,521,o),
(407,527,o),
(434,527,cs),
(485,527,o),
(499,494,o),
(499,414,cs),
(499,294,o),
(463,175,o),
(439,127,cs),
(415,79,o),
(395,66,o),
(369,66,cs),
(351,66,o),
(311,96,o),
(264,132,c),
(254,115,l),
(304,69,o),
(311,56,o),
(317,43,cs),
(328,22,o),
(336,6,o),
(362,6,cs),
(406,6,o),
(438,32,o),
(462,70,cs),
(508,142,o),
(540,290,o),
(540,409,cs),
(540,520,o),
(502,559,o),
(440,559,cs),
(409,559,o),
(382,554,o),
(365,550,c),
(348,547,l),
(259,524,o),
(172,495,o),
(145,495,cs),
(119,495,o),
(115,531,o),
(108,567,c),
(85,563,l),
(82,535,o),
(84,511,o),
(86,500,cs),
(93,472,o),
(122,439,o),
(143,439,cs),
(163,439,o),
(173,450,o),
(214,468,cs),
(231,476,o),
(244,482,o),
(335,511,c)
);
},
{
closed = 1;
nodes = (
(327,500,l),
(301,432,o),
(273,361,o),
(249,311,cs),
(194,195,o),
(157,131,o),
(105,53,cs),
(95,37,o),
(92,26,o),
(92,13,cs),
(92,-5,o),
(104,-15,o),
(112,-15,cs),
(121,-15,o),
(137,-9,o),
(148,10,cs),
(189,77,o),
(230,165,o),
(285,286,cs),
(318,360,o),
(349,442,o),
(376,512,cs),
(391,551,ls),
(411,602,o),
(420,645,o),
(430,672,cs),
(439,696,o),
(453,706,o),
(453,727,cs),
(453,755,o),
(382,782,o),
(348,782,cs),
(328,782,o),
(311,779,o),
(297,774,c),
(297,749,l),
(318,748,o),
(354,744,o),
(368,738,cs),
(381,732,o),
(382,723,o),
(382,712,cs),
(382,693,o),
(369,621,o),
(341,540,cs)
);
},
{
closed = 1;
nodes = (
(609,557,l),
(638,520,o),
(648,447,o),
(648,409,cs),
(648,371,o),
(642,356,o),
(642,338,cs),
(642,320,o),
(647,303,o),
(670,303,cs),
(692,303,o),
(694,326,o),
(694,363,cs),
(694,442,o),
(746,556,o),
(805,556,cs),
(856,556,o),
(868,479,o),
(868,367,cs),
(868,176,o),
(763,111,o),
(634,59,c),
(647,32,l),
(831,84,o),
(920,198,o),
(920,367,cs),
(920,508,o),
(875,586,o),
(805,586,cs),
(734,586,o),
(692,505,o),
(667,420,c),
(679,407,l),
(677,480,o),
(660,524,o),
(625,572,c)
);
}
);
width = 1000;
},
{
layerId = "027B829E-3619-44FF-8C68-78647B0AD671";
width = 1000;
},
{
layerId = "22BF860B-E605-42C1-AA52-30D9AB94E7CE";
width = 1000;
}
);
production = u1B018;
script = hentaigana;
unicode = 110616;
}
{
category = Letter;
glyphname = "ka-3-kana";
layers = (
{
backgroundImage = {
imagePath = _sketch/u1B019.png;
locked = 1;
pos = (0,-120);
};
layerId = m01;
shapes = (
{
closed = 1;
nodes = (
(432,538,l),
(440,521,o),
(455,500,o),
(455,469,cs),
(455,436,o),
(435,392,o),
(418,359,cs),
(363,252,o),
(299,189,o),
(262,189,cs),
(236,189,o),
(212,231,o),
(212,275,cs),
(212,398,o),
(332,539,o),
(534,539,cs),
(681,539,o),
(788,463,o),
(788,328,cs),
(788,163,o),
(651,73,o),
(459,-4,c),
(463,-29,l),
(736,36,o),
(839,179,o),
(839,316,cs),
(839,482,o),
(712,570,o),
(536,570,cs),
(293,570,o),
(169,383,o),
(169,266,cs),
(169,204,o),
(197,136,o),
(259,136,cs),
(313,136,o),
(398,233,o),
(460,350,cs),
(483,394,o),
(494,440,o),
(494,466,cs),
(494,505,o),
(478,528,o),
(454,551,c)
);
},
{
closed = 1;
nodes = (
(283,801,l),
(352,732,o),
(493,681,o),
(604,681,cs),
(675,681,o),
(729,676,o),
(729,698,cs),
(729,716,o),
(712,730,o),
(688,730,cs),
(664,730,o),
(648,728,o),
(585,728,cs),
(492,728,o),
(389,756,o),
(297,819,c)
);
}
);
width = 1000;
},
{
layerId = "027B829E-3619-44FF-8C68-78647B0AD671";
width = 1000;
},
{
layerId = "22BF860B-E605-42C1-AA52-30D9AB94E7CE";
width = 1000;
}
);
production = u1B019;
script = hentaigana;
unicode = 110617;
}
{
category = Letter;
glyphname = "ka-4-kana";
layers = (
{
backgroundImage = {
imagePath = _sketch/u1B01A.png;
locked = 1;
pos = (0,-120);
};
layerId = m01;
shapes = (
{
closed = 1;
nodes = (
(637,533,o),
(699,447,o),
(699,337,cs),
(699,139,o),
(555,43,o),
(360,-33,c),
(369,-58,l),
(592,-2,o),
(752,111,o),
(752,327,cs),
(752,454,o),
(673,563,o),
(529,563,cs),
(445,563,o),
(370,524,o),
(354,511,c),
(373,514,l),
(422,542,o),
(555,639,o),
(555,706,cs),
(555,763,o),
(475,797,o),
(432,808,c),
(420,783,l),
(458,771,o),
(508,743,o),
(508,708,cs),
(508,633,o),
(340,516,o),
(254,471,cs),
(208,447,o),
(206,418,o),
(206,399,cs),
(206,380,o),
(213,376,o),
(224,376,cs),
(235,376,o),
(244,389,o),
(266,412,cs),
(288,435,o),
(380,533,o),
(534,533,cs)
);
}
);
width = 1000;
},
{
layerId = "027B829E-3619-44FF-8C68-78647B0AD671";
width = 1000;
},
{
layerId = "22BF860B-E605-42C1-AA52-30D9AB94E7CE";
width = 1000;
}
);
production = u1B01A;
script = hentaigana;
unicode = 110618;
}
{
category = Letter;
glyphname = "ka-5-kana";
layers = (
{
backgroundImage = {
imagePath = "_sketch/u1B01B.png";
locked = 1;
pos = (0,-120);
};
layerId = m01;
shapes = (
{
closed = 1;
nodes = (
(237,667,l),
(275,625,o),
(361,610,o),
(398,610,cs),
(453,610,o),
(691,657,o),
(738,667,cs),
(751,669,o),
(760,679,o),
(760,688,cs),
(760,697,o),
(751,706,o),
(729,706,cs),
(723,706,o),
(716,706,o),
(708,704,cs),
(677,699,o),
(480,647,o),
(391,647,cs),
(339,647,o),
(287,665,o),
(248,683,c)
);
},
{
closed = 1;
nodes = (
(512,723,o),
(529,735,o),
(529,755,cs),
(529,771,o),
(497,798,o),
(470,798,cs),
(442,798,o),
(418,790,o),
(398,779,c),
(399,762,l),
(415,763,o),
(425,765,o),
(440,765,cs),
(468,765,o),
(472,749,o),
(472,727,cs),
(472,692,o),
(471,606,o),
(471,579,cs),
(471,560,o),
(475,541,o),
(498,533,cs),
(509,530,o),
(508,529,o),
(498,526,cs),
(463,513,o),
(422,495,o),
(402,486,c),
(412,464,l),
(454,483,o),
(543,510,o),
(576,513,cs),
(606,516,o),
(620,524,o),
(620,536,cs),
(620,543,o),
(604,563,o),
(573,563,cs),
(565,563,o),
(536,558,o),
(524,558,cs),
(514,558,o),
(512,570,o),
(512,594,cs),
(512,617,o),
(512,658,o),
(512,685,cs)
);
},
{
closed = 1;
nodes = (
(93,339,l),
(92,334,o),
(92,329,o),
(92,325,cs),
(92,275,o),
(133,252,o),
(149,252,cs),
(166,252,o),
(181,264,o),
(196,271,cs),
(208,280,o),
(326,327,o),
(392,327,cs),
(422,327,o),
(446,314,o),
(446,269,cs),
(446,198,o),
(415,115,o),
(382,69,cs),
(367,49,o),
(358,41,o),
(344,41,cs),
(333,41,o),
(291,87,o),
(281,97,c),
(267,86,l),
(292,60,o),
(303,38,o),
(308,18,cs),
(310,7,o),
(318,-14,o),
(333,-14,cs),
(354,-14,o),
(385,-2,o),
(410,38,cs),
(438,79,o),
(482,171,o),
(482,268,cs),
(482,319,o),
(448,354,o),
(401,354,cs),
(316,354,o),
(171,302,o),
(147,302,cs),
(122,302,o),
(116,319,o),
(112,344,c)
);
},
{
closed = 1;
nodes = (
(251,435,l),
(279,438,o),
(297,437,o),
(313,429,cs),
(324,424,o),
(325,417,o),
(325,407,cs),
(325,398,o),
(312,369,o),
(297,332,cs),
(272,266,o),
(180,135,o),
(121,68,cs),
(107,52,o),
(83,33,o),
(83,13,cs),
(83,-5,o),
(96,-13,o),
(105,-13,cs),
(115,-13,o),
(124,-7,o),
(135,6,cs),
(141,13,o),
(149,23,o),
(158,35,cs),
(218,113,o),
(341,340,o),
(365,386,cs),
(372,400,o),
(384,407,o),
(384,420,cs),
(384,442,o),
(333,464,o),
(301,464,cs),
(279,464,o),
(259,457,o),
(251,454,c)
);
},
{
closed = 1;
nodes = (
(568,395,l),
(596,352,o),
(614,288,o),
(614,239,cs),
(614,226,o),
(614,204,o),
(612,187,cs),
(611,174,o),
(619,156,o),
(633,156,cs),
(647,156,o),
(657,174,o),
(657,195,cs),
(657,216,o),
(656,228,o),
(656,236,cs),
(656,272,o),
(703,377,o),
(773,377,cs),
(848,377,o),
(868,286,o),
(868,237,cs),
(868,112,o),
(780,40,o),
(650,1,c),
(658,-24,l),
(804,15,o),
(912,73,o),
(912,236,cs),
(912,303,o),
(874,404,o),
(777,404,cs),
(704,404,o),
(652,322,o),
(629,269,c),
(646,270,l),
(638,326,o),
(618,368,o),
(586,402,c)
);
}
);
width = 1000;
},
{
layerId = "027B829E-3619-44FF-8C68-78647B0AD671";
shapes = (
{
closed = 1;
nodes = (
(189,721,l),
(205,641,o),
(272,595,o),
(358,595,cs),
(413,595,o),
(731,624,o),
(767,637,cs),
(791,645,o),
(799,656,o),
(799,675,cs),
(799,710,o),
(772,750,o),
(721,750,cs),
(707,750,o),
(695,746,o),
(672,740,cs),
(604,724,o),
(410,700,o),
(311,700,cs),
(269,700,o),
(227,701,o),
(198,729,c)
);
},
{
closed = 1;
nodes = (
(550,733,o),
(567,743,o),
(567,763,cs),
(567,779,o),
(524,832,o),
(470,832,cs),
(422,832,o),
(396,810,o),
(376,795,c),
(377,787,l),
(390,788,o),
(400,786,o),
(407,780,cs),
(416,772,o),
(420,759,o),
(420,737,cs),
(420,702,o),
(416,606,o),
(416,569,cs),
(416,543,o),
(425,525,o),
(444,514,cs),
(461,505,o),
(458,505,o),
(446,497,cs),
(428,486,o),
(412,475,o),
(400,466,c),
(403,456,l),
(455,465,o),
(571,473,o),
(654,473,cs),
(691,473,o),
(718,486,o),
(718,526,cs),
(718,563,o),
(683,590,o),
(652,590,cs),
(644,590,o),
(606,580,o),
(576,580,cs),
(559,580,o),
(550,588,o),
(550,604,cs),
(550,617,o),
(550,668,o),
(550,705,cs)
);
},
{
closed = 1;
nodes = (
(86,366,l),
(67,340,o),
(58,327,o),
(58,301,cs),
(58,258,o),
(99,224,o),
(129,224,cs),
(146,224,o),
(171,244,o),
(186,251,cs),
(198,260,o),
(331,307,o),
(357,307,cs),
(380,307,o),
(383,297,o),
(383,272,cs),
(383,226,o),
(376,166,o),
(349,130,cs),
(334,111,o),
(327,111,o),
(313,111,cs),
(302,111,o),
(264,123,o),
(254,133,c),
(253,123,l),
(278,97,o),
(298,52,o),
(298,18,cs),
(298,-10,o),
(307,-31,o),
(342,-31,cs),
(363,-31,o),
(414,-17,o),
(439,23,cs),
(467,64,o),
(507,181,o),
(507,277,cs),
(507,328,o),
(480,374,o),
(401,374,cs),
(316,374,o),
(161,335,o),
(137,335,cs),
(112,335,o),
(96,332,o),
(95,366,c)
);
},
{
closed = 1;
nodes = (
(233,447,l),
(247,446,o),
(253,447,o),
(261,443,cs),
(269,439,o),
(270,437,o),
(270,427,cs),
(270,418,o),
(257,359,o),
(240,324,cs),
(208,258,o),
(175,185,o),
(116,118,cs),
(98,97,o),
(47,66,o),
(47,3,cs),
(47,-15,o),
(56,-50,o),
(98,-50,cs),
(121,-50,o),
(145,-29,o),
(166,-6,cs),
(172,1,o),
(181,13,o),
(189,25,cs),
(249,113,o),
(352,340,o),
(376,386,cs),
(383,400,o),
(410,416,o),
(410,429,cs),
(410,466,o),
(343,502,o),
(303,502,cs),
(271,502,o),
(241,476,o),
(233,454,c)
);
},
{
closed = 1;
nodes = (
(538,395,l),
(554,354,o),
(554,288,o),
(554,239,cs),
(554,226,o),
(552,194,o),
(551,177,cs),
(550,144,o),
(566,88,o),
(623,88,cs),
(660,88,o),
(688,113,o),
(688,153,cs),
(688,184,o),
(685,218,o),
(685,226,cs),
(685,282,o),
(705,372,o),
(756,372,cs),
(792,372,o),
(813,336,o),
(813,217,cs),
(813,102,o),
(759,0,o),
(593,-49,c),
(597,-59,l),
(823,-30,o),
(940,25,o),
(940,218,cs),
(940,368,o),
(854,424,o),
(777,424,cs),
(694,424,o),
(642,362,o),
(629,269,c),
(656,270,l),
(648,326,o),
(598,377,o),
(548,402,c)
);
}
);
width = 1000;
},
{
layerId = "22BF860B-E605-42C1-AA52-30D9AB94E7CE";
shapes = (
{
closed = 1;
nodes = (
(219,687,l),
(249,631,o),
(328,604,o),
(383,604,cs),
(438,604,o),
(706,645,o),
(749,656,cs),
(766,660,o),
(775,670,o),
(775,683,cs),
(775,702,o),
(759,723,o),
(726,723,cs),
(717,723,o),
(708,721,o),
(695,718,cs),
(650,708,o),
(454,667,o),
(361,667,cs),
(313,667,o),
(265,679,o),
(229,700,c)
);
},
{
closed = 1;
nodes = (
(526,727,o),
(543,738,o),
(543,758,cs),
(543,774,o),
(507,811,o),
(470,811,cs),
(435,811,o),
(410,798,o),
(390,785,c),
(391,771,l),
(406,772,o),
(416,773,o),
(428,771,cs),
(449,768,o),
(453,753,o),
(453,731,cs),
(453,696,o),
(450,606,o),
(450,575,cs),
(450,554,o),
(456,535,o),
(478,526,cs),
(491,521,o),
(489,520,o),
(479,515,cs),
(450,503,o),
(418,488,o),
(401,479,c),
(409,461,l),
(454,476,o),
(554,496,o),
(605,498,cs),
(638,500,o),
(657,510,o),
(657,532,cs),
(657,551,o),
(634,573,o),
(603,573,cs),
(595,573,o),
(562,566,o),
(544,566,cs),
(531,566,o),
(526,577,o),
(526,598,cs),
(526,617,o),
(526,662,o),
(526,693,cs)
);
},
{
closed = 1;
nodes = (
(90,349,l),
(83,336,o),
(79,328,o),
(79,316,cs),
(79,269,o),
(120,242,o),
(142,242,cs),
(159,242,o),
(177,257,o),
(192,264,cs),
(204,273,o),
(328,320,o),
(379,320,cs),
(406,320,o),
(422,308,o),
(422,270,cs),
(422,209,o),
(400,134,o),
(370,92,cs),
(355,72,o),
(346,67,o),
(332,67,cs),
(321,67,o),
(281,101,o),
(271,111,c),
(262,100,l),
(287,74,o),
(301,43,o),
(304,18,cs),
(306,1,o),
(314,-20,o),
(336,-20,cs),
(357,-20,o),
(396,-8,o),
(421,32,cs),
(449,73,o),
(491,175,o),
(491,271,cs),
(491,322,o),
(460,362,o),
(401,362,cs),
(316,362,o),
(167,314,o),
(143,314,cs),
(118,314,o),
(109,324,o),
(106,352,c)
);
},
{
closed = 1;
nodes = (
(244,440,l),
(267,441,o),
(281,441,o),
(294,434,cs),
(303,430,o),
(304,425,o),
(304,415,cs),
(304,406,o),
(291,365,o),
(276,329,cs),
(248,263,o),
(178,154,o),
(119,87,cs),
(104,69,o),
(70,45,o),
(70,9,cs),
(70,-9,o),
(81,-27,o),
(102,-27,cs),
(117,-27,o),
(132,-15,o),
(147,2,cs),
(153,9,o),
(161,19,o),
(170,31,cs),
(230,113,o),
(345,340,o),
(369,386,cs),
(376,400,o),
(394,410,o),
(394,423,cs),
(394,451,o),
(337,478,o),
(302,478,cs),
(276,478,o),
(252,464,o),
(244,454,c)
);
},
{
closed = 1;
nodes = (
(557,395,l),
(580,353,o),
(592,288,o),
(592,239,cs),
(592,226,o),
(591,200,o),
(589,183,cs),
(588,163,o),
(599,131,o),
(629,131,cs),
(652,131,o),
(669,151,o),
(669,179,cs),
(669,204,o),
(667,224,o),
(667,232,cs),
(667,276,o),
(704,375,o),
(767,375,cs),
(827,375,o),
(847,305,o),
(847,230,cs),
(847,108,o),
(772,25,o),
(629,-18,c),
(635,-37,l),
(811,-2,o),
(923,55,o),
(923,229,cs),
(923,327,o),
(867,412,o),
(777,412,cs),
(700,412,o),
(648,337,o),
(629,269,c),
(650,270,l),
(642,326,o),
(611,371,o),
(572,402,c)
);
}
);
width = 1000;
}
);
production = u1B01B;
script = hentaigana;
unicode = 110619;
}
{
category = Letter;
glyphname = "ka-6-kana";
layers = (
{
backgroundImage = {
imagePath = _sketch/u1B01C.png;
locked = 1;
pos = (0,-120);
};
layerId = m01;
shapes = (
{
closed = 1;
nodes = (
(380,813,l),
(424,755,o),
(462,736,o),
(496,715,c),
(498,736,l),
(445,716,o),
(372,670,o),
(363,664,c),
(373,646,l),
(417,667,o),
(480,704,o),
(502,704,cs),
(514,704,o),
(528,702,o),
(536,698,cs),
(542,695,o),
(547,694,o),
(551,694,cs),
(562,694,o),
(568,702,o),
(568,711,cs),
(568,723,o),
(559,738,o),
(537,745,cs),
(504,755,o),
(456,759,o),
(394,825,c)
);
},
{
closed = 1;
nodes = (
(214,586,l),
(222,536,o),
(269,510,o),
(304,510,cs),
(319,510,o),
(327,514,o),
(344,526,cs),
(372,545,o),
(424,573,o),
(463,584,c),
(439,590,l),
(422,562,o),
(396,518,o),
(378,487,cs),
(370,475,o),
(363,461,o),
(363,455,cs),
(363,444,o),
(367,441,o),
(382,432,cs),
(415,412,o),
(485,349,o),
(485,241,cs),
(485,153,o),
(452,96,o),
(432,67,cs),
(417,44,o),
(412,44,o),
(403,43,cs),
(390,42,o),
(348,88,o),
(292,140,c),
(280,125,l),
(326,76,o),
(371,31,o),
(366,-4,cs),
(364,-20,o),
(372,-33,o),
(388,-33,cs),
(410,-33,o),
(438,-6,o),
(455,16,cs),
(486,56,o),
(528,127,o),
(528,240,cs),
(528,331,o),
(489,395,o),
(406,453,cs),
(401,456,o),
(399,459,o),
(399,462,cs),
(399,464,o),
(401,467,o),
(404,472,cs),
(415,487,o),
(464,558,o),
(489,572,cs),
(503,580,o),
(506,581,o),
(506,590,cs),
(506,599,o),
(492,616,o),
(467,616,cs),
(452,616,o),
(442,607,o),
(419,597,cs),
(396,587,o),
(318,550,o),
(293,550,cs),
(268,550,o),
(242,564,o),
(228,598,c)
);
},
{
closed = 1;
nodes = (
(111,376,l),
(153,362,o),
(179,343,o),
(179,309,cs),
(179,246,o),
(140,138,o),
(135,123,cs),
(130,108,o),
(119,95,o),
(119,83,cs),
(119,71,o),
(123,54,o),
(146,54,cs),
(159,54,o),
(171,66,o),
(185,92,cs),
(211,140,o),
(518,435,o),
(631,529,cs),
(649,544,o),
(659,547,o),
(665,547,cs),
(676,547,o),
(684,539,o),
(684,514,cs),
(684,485,o),
(665,372,o),
(665,349,cs),
(665,326,o),
(682,311,o),
(705,311,cs),
(718,311,o),
(761,338,o),
(799,338,cs),
(837,338,o),
(854,322,o),
(854,275,cs),
(854,188,o),
(785,103,o),
(602,58,c),
(609,38,l),
(846,80,o),
(902,182,o),
(902,263,cs),
(902,330,o),
(862,364,o),
(801,364,cs),
(770,364,o),
(728,353,o),
(720,353,cs),
(712,353,o),
(709,354,o),
(709,367,cs),
(709,380,o),
(726,482,o),
(726,508,cs),
(726,554,o),
(696,571,o),
(670,571,cs),
(644,571,o),
(612,556,o),
(571,519,cs),
(530,482,o),
(156,129,o),
(141,102,c),
(160,101,l),
(201,192,o),
(222,274,o),
(222,307,cs),
(222,360,o),
(170,394,o),
(116,394,c)
);
}
);
width = 1000;
},
{
layerId = "027B829E-3619-44FF-8C68-78647B0AD671";
shapes = (
{
closed = 1;
nodes = (
(340,833,l),
(344,785,o),
(416,736,o),
(450,715,c),
(438,756,l),
(415,736,o),
(370,699,o),
(341,673,c),
(345,666,l),
(389,687,o),
(470,684,o),
(492,684,cs),
(504,684,o),
(511,684,o),
(526,680,cs),
(533,678,o),
(547,671,o),
(571,671,cs),
(590,671,o),
(618,680,o),
(618,721,cs),
(618,762,o),
(569,792,o),
(537,799,cs),
(503,806,o),
(416,792,o),
(344,837,c)
);
},
{
closed = 1;
nodes = (
(229,597,l),
(188,484,o),
(276,466,o),
(311,466,cs),
(326,466,o),
(343,481,o),
(370,493,cs),
(392,503,o),
(450,540,o),
(489,551,c),
(449,570,l),
(432,552,o),
(396,508,o),
(375,477,cs),
(366,464,o),
(358,449,o),
(358,441,cs),
(358,422,o),
(393,410,o),
(406,398,cs),
(439,368,o),
(469,319,o),
(469,271,cs),
(469,210,o),
(453,170,o),
(441,147,cs),
(425,116,o),
(407,109,o),
(398,108,cs),
(385,107,o),
(354,128,o),
(306,154,c),
(302,148,l),
(346,95,o),
(360,45,o),
(358,10,cs),
(356,-26,o),
(364,-58,o),
(406,-58,cs),
(448,-58,o),
(480,-33,o),
(497,-13,cs),
(548,47,o),
(588,137,o),
(588,230,cs),
(588,331,o),
(558,408,o),
(475,466,cs),
(470,469,o),
(469,473,o),
(469,476,cs),
(469,480,o),
(472,485,o),
(476,490,cs),
(490,505,o),
(532,528,o),
(557,542,cs),
(571,550,o),
(578,562,o),
(578,570,cs),
(578,594,o),
(517,643,o),
(482,643,cs),
(457,643,o),
(452,628,o),
(429,618,cs),
(406,608,o),
(328,570,o),
(293,570,cs),
(268,570,o),
(252,574,o),
(238,598,c)
);
},
{
closed = 1;
nodes = (
(101,376,l),
(117,365,o),
(149,353,o),
(149,319,cs),
(149,256,o),
(106,176,o),
(84,149,cs),
(67,129,o),
(59,106,o),
(59,93,cs),
(59,61,o),
(86,26,o),
(134,26,cs),
(157,26,o),
(180,57,o),
(197,81,cs),
(251,160,o),
(500,392,o),
(622,506,cs),
(632,515,o),
(634,516,o),
(640,516,cs),
(644,516,o),
(646,515,o),
(646,500,cs),
(646,471,o),
(625,372,o),
(625,349,cs),
(625,316,o),
(662,301,o),
(695,301,cs),
(718,301,o),
(744,318,o),
(771,318,cs),
(793,318,o),
(814,312,o),
(814,265,cs),
(814,188,o),
(755,113,o),
(604,48,c),
(609,38,l),
(846,80,o),
(952,172,o),
(952,263,cs),
(952,340,o),
(872,378,o),
(821,378,cs),
(800,378,o),
(775,374,o),
(768,374,cs),
(760,374,o),
(759,375,o),
(759,380,cs),
(759,411,o),
(773,482,o),
(773,508,cs),
(773,564,o),
(716,591,o),
(670,591,cs),
(644,591,o),
(612,556,o),
(571,519,cs),
(530,482,o),
(156,141,o),
(141,114,c),
(140,101,l),
(228,166,o),
(292,284,o),
(292,317,cs),
(292,370,o),
(200,454,o),
(106,384,c)
);
}
);
width = 1000;
},
{
layerId = "22BF860B-E605-42C1-AA52-30D9AB94E7CE";
shapes = (
{
closed = 1;
nodes = (
(365,821,l),
(394,766,o),
(445,736,o),
(479,715,c),
(476,744,l),
(434,724,o),
(371,681,o),
(355,667,c),
(363,654,l),
(407,675,o),
(476,697,o),
(498,697,cs),
(510,697,o),
(522,695,o),
(532,691,cs),
(539,689,o),
(547,685,o),
(559,685,cs),
(573,685,o),
(587,694,o),
(587,715,cs),
(587,738,o),
(563,758,o),
(537,765,cs),
(504,774,o),
(441,771,o),
(375,830,c)
);
},
{
closed = 1;
nodes = (
(220,590,l),
(209,517,o),
(272,494,o),
(307,494,cs),
(322,494,o),
(333,502,o),
(354,514,cs),
(380,529,o),
(434,561,o),
(473,572,c),
(443,583,l),
(426,558,o),
(396,514,o),
(377,483,cs),
(369,471,o),
(361,457,o),
(361,450,cs),
(361,436,o),
(377,429,o),
(391,419,cs),
(424,396,o),
(479,338,o),
(479,252,cs),
(479,174,o),
(452,124,o),
(435,97,cs),
(420,71,o),
(410,68,o),
(401,67,cs),
(388,66,o),
(350,103,o),
(297,145,c),
(288,134,l),
(334,83,o),
(367,36,o),
(363,1,cs),
(361,-22,o),
(369,-42,o),
(395,-42,cs),
(424,-42,o),
(454,-16,o),
(471,5,cs),
(509,53,o),
(551,131,o),
(551,236,cs),
(551,331,o),
(515,400,o),
(432,458,cs),
(427,461,o),
(425,464,o),
(425,467,cs),
(425,470,o),
(428,474,o),
(431,479,cs),
(443,494,o),
(490,547,o),
(515,561,cs),
(529,569,o),
(533,574,o),
(533,583,cs),
(533,597,o),
(501,626,o),
(473,626,cs),
(454,626,o),
(446,615,o),
(423,605,cs),
(400,595,o),
(322,558,o),
(293,558,cs),
(268,558,o),
(246,568,o),
(232,598,c)
);
},
{
closed = 1;
nodes = (
(107,376,l),
(140,363,o),
(168,347,o),
(168,313,cs),
(168,250,o),
(127,152,o),
(116,133,cs),
(106,116,o),
(97,99,o),
(97,87,cs),
(97,67,o),
(109,44,o),
(142,44,cs),
(158,44,o),
(174,63,o),
(190,88,cs),
(226,148,o),
(511,419,o),
(628,520,cs),
(643,533,o),
(650,535,o),
(656,535,cs),
(664,535,o),
(670,530,o),
(670,509,cs),
(670,480,o),
(650,372,o),
(650,349,cs),
(650,322,o),
(675,307,o),
(701,307,cs),
(718,307,o),
(755,331,o),
(789,331,cs),
(821,331,o),
(839,318,o),
(839,271,cs),
(839,188,o),
(774,107,o),
(603,54,c),
(609,38,l),
(846,80,o),
(921,178,o),
(921,263,cs),
(921,334,o),
(866,369,o),
(809,369,cs),
(781,369,o),
(746,361,o),
(738,361,cs),
(730,361,o),
(728,362,o),
(728,372,cs),
(728,392,o),
(744,482,o),
(744,508,cs),
(744,558,o),
(704,579,o),
(670,579,cs),
(644,579,o),
(612,556,o),
(571,519,cs),
(530,482,o),
(156,134,o),
(141,107,c),
(153,101,l),
(211,182,o),
(248,278,o),
(248,311,cs),
(248,364,o),
(181,417,o),
(112,390,c)
);
}
);
width = 1000;
}
);
production = u1B01C;
script = hentaigana;
unicode = 110620;
}
{
category = Letter;
glyphname = "ka-7-kana";
layers = (
{
backgroundImage = {
imagePath = _sketch/u1B01D.png;
locked = 1;
pos = (0,-120);
};
layerId = m01;
shapes = (
{
closed = 1;
nodes = (
(157,764,l),
(194,693,o),
(274,629,o),
(351,629,cs),
(388,629,o),
(446,652,o),
(446,707,cs),
(446,742,o),
(398,779,o),
(359,779,cs),
(320,779,o),
(288,747,o),
(261,707,cs),
(227,658,o),
(181,558,o),
(168,434,cs),
(161,364,o),
(173,341,o),
(193,341,cs),
(203,341,o),
(208,357,o),
(226,371,cs),
(254,393,o),
(287,416,o),
(324,416,cs),
(367,416,o),
(402,386,o),
(402,318,cs),
(402,260,o),
(379,178,o),
(349,130,cs),
(316,79,o),
(298,74,o),
(285,74,cs),
(262,74,o),
(196,158,o),
(180,183,c),
(166,170,l),
(188,145,o),
(244,60,o),
(243,41,cs),
(242,20,o),
(244,3,o),
(268,3,cs),
(292,3,o),
(320,26,o),
(343,53,cs),
(401,120,o),
(438,240,o),
(438,319,cs),
(438,388,o),
(396,436,o),
(325,436,cs),
(285,436,o),
(210,418,o),
(179,384,c),
(206,373,l),
(199,402,o),
(194,400,o),
(198,440,cs),
(214,586,o),
(296,756,o),
(362,756,cs),
(383,756,o),
(415,738,o),
(415,707,cs),
(415,690,o),
(389,663,o),
(345,663,cs),
(278,663,o),
(197,727,o),
(173,780,c)
);
},
{
closed = 1;
nodes = (
(98,235,l),
(87,217,o),
(84,192,o),
(84,170,cs),
(84,138,o),
(110,104,o),
(131,104,cs),
(146,104,o),
(150,113,o),
(161,133,cs),
(179,165,o),
(397,465,o),
(423,494,c),
(412,507,l),
(389,482,o),
(232,288,o),
(183,236,cs),
(157,208,o),
(137,173,o),
(124,173,cs),
(111,173,o),
(107,191,o),
(117,229,c)
);
},
{
closed = 1;
nodes = (
(606,771,l),
(626,764,o),
(673,757,o),
(673,704,cs),
(673,661,o),
(643,620,o),
(626,595,cs),
(609,570,o),
(531,506,o),
(512,495,cs),
(493,484,o),
(477,475,o),
(477,454,cs),
(477,443,o),
(479,424,o),
(498,424,cs),
(517,424,o),
(515,436,o),
(544,468,cs),
(573,500,o),
(601,533,o),
(632,552,cs),
(663,571,o),
(722,599,o),
(775,599,cs),
(838,599,o),
(875,565,o),
(875,523,cs),
(875,477,o),
(804,430,o),
(719,424,c),
(710,401,l),
(794,401,o),
(915,448,o),
(915,523,cs),
(915,590,o),
(853,626,o),
(778,626,cs),
(703,626,o),
(646,586,o),
(596,547,c),
(618,557,l),
(643,576,o),
(713,642,o),
(713,704,cs),
(713,762,o),
(665,799,o),
(610,788,c)
);
},
{
closed = 1;
nodes = (
(654,446,l),
(674,438,o),
(687,424,o),
(687,408,cs),
(687,382,o),
(669,343,o),
(650,302,cs),
(606,206,o),
(514,103,o),
(471,67,cs),
(440,41,o),
(420,27,o),
(420,14,cs),
(420,1,o),
(424,-10,o),
(441,-10,cs),
(466,-10,o),
(476,11,o),
(485,22,cs),
(509,52,o),
(579,151,o),
(666,151,cs),
(746,151,o),
(816,83,o),
(871,-4,cs),
(878,-15,o),
(879,-28,o),
(893,-28,cs),
(907,-28,o),
(915,-17,o),
(915,-3,cs),
(915,11,o),
(898,33,o),
(877,58,cs),
(849,90,o),
(778,176,o),
(669,176,cs),
(626,176,o),
(586,156,o),
(533,109,c),
(543,103,l),
(621,188,o),
(726,359,o),
(726,411,cs),
(726,440,o),
(704,468,o),
(660,458,c)
);
}
);
width = 1000;
},
{
layerId = "027B829E-3619-44FF-8C68-78647B0AD671";
width = 1000;
},
{
layerId = "22BF860B-E605-42C1-AA52-30D9AB94E7CE";
width = 1000;
}
);
production = u1B01D;
script = hentaigana;
unicode = 110621;
}
{
category = Letter;
glyphname = "ka-8-kana";
layers = (
{
backgroundImage = {
imagePath = _sketch/u1B01E.png;
locked = 1;
pos = (0,-120);
};
layerId = m01;
shapes = (
{
closed = 1;
nodes = (
(256,763,l),
(283,762,o),
(315,763,o),
(315,739,cs),
(315,702,o),
(157,553,o),
(119,532,cs),
(99,521,o),
(86,491,o),
(86,473,cs),
(86,463,o),
(89,457,o),
(97,457,cs),
(103,457,o),
(111,460,o),
(123,470,cs),
(164,504,o),
(269,612,o),
(323,681,cs),
(344,707,o),
(367,734,o),
(367,743,cs),
(367,772,o),
(338,794,o),
(303,794,cs),
(288,794,o),
(271,790,o),
(256,780,c)
);
},
{
closed = 1;
nodes = (
(86,708,l),
(87,687,o),
(92,667,o),
(99,651,cs),
(110,628,o),
(127,613,o),
(150,613,cs),
(171,613,o),
(182,632,o),
(208,643,cs),
(268,669,o),
(352,691,o),
(391,691,cs),
(416,691,o),
(438,685,o),
(438,654,cs),
(438,615,o),
(408,580,o),
(383,549,cs),
(363,525,o),
(347,513,o),
(331,513,cs),
(315,513,o),
(282,551,o),
(260,579,c),
(248,569,l),
(269,535,o),
(280,520,o),
(281,500,cs),
(282,480,o),
(271,452,o),
(298,452,cs),
(387,452,o),
(474,597,o),
(474,652,cs),
(474,687,o),
(453,716,o),
(398,716,cs),
(333,716,o),
(170,662,o),
(143,662,cs),
(126,662,o),
(116,667,o),
(104,714,c)
);
},
{
closed = 1;
nodes = (
(515,734,l),
(557,700,o),
(577,647,o),
(582,628,cs),
(587,609,o),
(583,560,o),
(610,560,cs),
(627,560,o),
(633,568,o),
(634,585,cs),
(636,662,o),
(735,743,o),
(794,743,cs),
(834,743,o),
(863,724,o),
(863,670,cs),
(863,636,o),
(832,605,o),
(772,576,cs),
(720,551,o),
(319,404,o),
(276,392,cs),
(244,383,o),
(234,376,o),
(234,361,cs),
(234,346,o),
(244,340,o),
(260,340,cs),
(276,340,o),
(292,351,o),
(327,366,cs),
(362,381,o),
(429,408,o),
(525,408,cs),
(617,408,o),
(673,386,o),
(673,362,cs),
(673,328,o),
(544,302,o),
(493,289,c),
(533,287,l),
(577,297,o),
(716,313,o),
(716,364,cs),
(716,415,o),
(621,433,o),
(525,433,cs),
(433,433,o),
(362,402,o),
(341,397,c),
(331,376,l),
(434,430,o),
(748,538,o),
(804,559,cs),
(860,580,o),
(910,617,o),
(910,668,cs),
(910,729,o),
(861,766,o),
(794,766,cs),
(723,766,o),
(639,698,o),
(598,623,c),
(624,615,l),
(609,670,o),
(568,716,o),
(529,744,c)
);
},
{
closed = 1;
nodes = (
(313,236,o),
(322,231,o),
(334,231,cs),
(342,231,o),
(354,236,o),
(371,243,cs),
(400,256,o),
(451,273,o),
(495,273,cs),
(583,273,o),
(609,254,o),
(609,235,cs),
(609,208,o),
(540,179,o),
(499,161,cs),
(466,147,o),
(207,49,o),
(162,33,cs),
(115,16,o),
(89,15,o),
(89,-2,cs),
(89,-19,o),
(87,-32,o),
(113,-32,cs),
(139,-32,o),
(153,-21,o),
(200,3,cs),
(247,27,o),
(405,108,o),
(516,108,cs),
(637,108,o),
(777,43,o),
(835,-2,cs),
(863,-23,o),
(874,-32,o),
(892,-32,cs),
(904,-32,o),
(910,-25,o),
(910,-12,cs),
(910,1,o),
(895,17,o),
(864,33,cs),
(791,72,o),
(675,130,o),
(537,130,cs),
(449,130,o),
(443,122,o),
(414,117,c),
(423,100,l),
(513,145,o),
(645,183,o),
(645,237,cs),
(645,277,o),
(574,295,o),
(496,295,cs),
(458,295,o),
(390,287,o),
(351,274,cs),
(337,269,o),
(313,268,o),
(313,248,cs)
);
}
);
width = 1000;
},
{
background = {
shapes = (
{
ref = "ka-11-kana";
}
);
};
layerId = "027B829E-3619-44FF-8C68-78647B0AD671";
shapes = (
{
closed = 1;
nodes = (
(226,781,l),
(253,780,o),
(265,773,o),
(265,759,cs),
(265,682,o),
(139,573,o),
(91,532,cs),
(74,517,o),
(53,490,o),
(53,462,cs),
(53,442,o),
(61,393,o),
(99,393,cs),
(135,393,o),
(160,430,o),
(182,460,cs),
(213,503,o),
(279,612,o),
(333,681,cs),
(354,707,o),
(397,754,o),
(397,783,cs),
(397,810,o),
(355,827,o),
(312,827,cs),
(278,827,o),
(244,811,o),
(226,790,c)
);
},
{
closed = 1;
nodes = (
(86,738,l),
(68,714,o),
(61,684,o),
(61,668,cs),
(61,630,o),
(100,614,o),
(127,614,cs),
(148,614,o),
(181,634,o),
(208,643,cs),
(258,659,o),
(333,681,o),
(362,681,cs),
(368,681,o),
(379,678,o),
(379,655,cs),
(379,638,o),
(366,603,o),
(358,588,cs),
(345,563,o),
(327,546,o),
(309,546,cs),
(293,546,o),
(282,551,o),
(260,579,c),
(256,572,l),
(269,535,o),
(270,510,o),
(271,490,cs),
(272,470,o),
(252,425,o),
(309,425,cs),
(408,425,o),
(497,577,o),
(497,652,cs),
(497,707,o),
(453,736,o),
(398,736,cs),
(333,736,o),
(170,702,o),
(143,702,cs),
(126,702,o),
(106,704,o),
(94,741,c)
);
},
{
closed = 1;
nodes = (
(485,754,l),
(527,700,o),
(531,655,o),
(534,606,cs),
(536,567,o),
(560,532,o),
(600,532,cs),
(647,532,o),
(674,558,o),
(674,605,cs),
(674,662,o),
(701,734,o),
(760,734,cs),
(790,734,o),
(806,694,o),
(806,660,cs),
(806,626,o),
(794,596,o),
(710,555,cs),
(678,540,o),
(399,424,o),
(256,402,cs),
(225,397,o),
(214,386,o),
(214,351,cs),
(214,319,o),
(238,287,o),
(276,287,cs),
(300,287,o),
(327,311,o),
(361,331,cs),
(414,362,o),
(461,388,o),
(526,388,cs),
(568,388,o),
(603,376,o),
(603,357,cs),
(603,328,o),
(494,302,o),
(393,279,c),
(523,277,l),
(577,297,o),
(766,293,o),
(766,364,cs),
(766,415,o),
(651,440,o),
(555,440,cs),
(443,440,o),
(372,402,o),
(351,397,c),
(361,376,l),
(464,430,o),
(706,499,o),
(794,534,cs),
(883,569,o),
(940,587,o),
(940,658,cs),
(940,719,o),
(901,778,o),
(794,778,cs),
(733,778,o),
(639,738,o),
(598,613,c),
(654,625,l),
(639,680,o),
(588,726,o),
(489,764,c)
);
},
{
closed = 1;
nodes = (
(237,186,o),
(264,148,o),
(303,148,cs),
(335,148,o),
(348,172,o),
(378,191,cs),
(408,210,o),
(459,238,o),
(523,238,cs),
(561,238,o),
(581,227,o),
(581,213,cs),
(581,197,o),
(548,187,o),
(499,173,cs),
(367,135,o),
(234,106,o),
(149,90,cs),
(101,81,o),
(57,17,o),
(57,-19,cs),
(57,-51,o),
(87,-67,o),
(113,-67,cs),
(149,-67,o),
(164,-45,o),
(208,-17,cs),
(286,33,o),
(395,110,o),
(496,110,cs),
(617,110,o),
(739,22,o),
(797,-23,cs),
(825,-44,o),
(843,-67,o),
(881,-67,cs),
(923,-67,o),
(949,-48,o),
(949,-15,cs),
(949,8,o),
(914,54,o),
(855,84,cs),
(789,118,o),
(675,152,o),
(547,152,cs),
(488,152,o),
(453,142,o),
(414,117,c),
(413,100,l),
(543,137,o),
(755,153,o),
(755,227,cs),
(755,267,o),
(701,297,o),
(476,297,cs),
(448,297,o),
(367,273,o),
(306,271,cs),
(274,270,o),
(237,256,o),
(237,222,cs)
);
}
);
width = 1000;
},
{
layerId = "22BF860B-E605-42C1-AA52-30D9AB94E7CE";
shapes = (
{
closed = 1;
nodes = (
(245,770,l),
(272,769,o),
(296,767,o),
(296,747,cs),
(296,695,o),
(150,561,o),
(109,532,cs),
(90,520,o),
(74,491,o),
(74,469,cs),
(74,455,o),
(79,433,o),
(98,433,cs),
(115,433,o),
(129,449,o),
(145,466,cs),
(182,504,o),
(273,612,o),
(327,681,cs),
(348,707,o),
(378,742,o),
(378,758,cs),
(378,786,o),
(344,806,o),
(306,806,cs),
(284,806,o),
(261,798,o),
(245,784,c)
);
},
{
closed = 1;
nodes = (
(86,719,l),
(80,697,o),
(80,673,o),
(85,657,cs),
(92,629,o),
(117,613,o),
(141,613,cs),
(162,613,o),
(182,633,o),
(208,643,cs),
(264,665,o),
(345,687,o),
(380,687,cs),
(398,687,o),
(416,682,o),
(416,654,cs),
(416,624,o),
(392,589,o),
(374,564,cs),
(356,539,o),
(340,525,o),
(323,525,cs),
(307,525,o),
(282,551,o),
(260,579,c),
(251,570,l),
(269,535,o),
(276,516,o),
(277,496,cs),
(278,476,o),
(264,442,o),
(302,442,cs),
(395,442,o),
(483,590,o),
(483,652,cs),
(483,695,o),
(453,724,o),
(398,724,cs),
(333,724,o),
(170,677,o),
(143,677,cs),
(126,677,o),
(112,681,o),
(100,724,c)
);
},
{
closed = 1;
nodes = (
(504,742,l),
(546,700,o),
(560,650,o),
(564,620,cs),
(568,593,o),
(574,550,o),
(606,550,cs),
(635,550,o),
(648,564,o),
(649,593,cs),
(650,662,o),
(722,740,o),
(781,740,cs),
(818,740,o),
(842,713,o),
(842,666,cs),
(842,632,o),
(818,602,o),
(749,568,cs),
(704,547,o),
(349,412,o),
(269,396,cs),
(237,388,o),
(227,380,o),
(227,357,cs),
(227,336,o),
(242,320,o),
(266,320,cs),
(285,320,o),
(305,336,o),
(340,353,cs),
(382,374,o),
(441,401,o),
(525,401,cs),
(599,401,o),
(647,382,o),
(647,360,cs),
(647,328,o),
(525,302,o),
(456,285,c),
(529,283,l),
(577,297,o),
(735,306,o),
(735,364,cs),
(735,415,o),
(632,436,o),
(536,436,cs),
(437,436,o),
(366,402,o),
(345,397,c),
(342,376,l),
(445,430,o),
(732,523,o),
(800,550,cs),
(869,576,o),
(921,606,o),
(921,664,cs),
(921,725,o),
(876,771,o),
(794,771,cs),
(727,771,o),
(639,713,o),
(598,619,c),
(635,619,l),
(620,674,o),
(576,720,o),
(514,752,c)
);
},
{
closed = 1;
nodes = (
(285,217,o),
(300,200,o),
(322,200,cs),
(339,200,o),
(352,212,o),
(374,224,cs),
(403,239,o),
(454,260,o),
(506,260,cs),
(575,260,o),
(599,244,o),
(599,227,cs),
(599,204,o),
(543,182,o),
(499,166,cs),
(429,143,o),
(217,70,o),
(157,54,cs),
(110,40,o),
(77,16,o),
(77,-8,cs),
(77,-31,o),
(87,-45,o),
(113,-45,cs),
(143,-45,o),
(157,-30,o),
(203,-4,cs),
(262,29,o),
(401,109,o),
(509,109,cs),
(630,109,o),
(763,35,o),
(821,-10,cs),
(849,-31,o),
(862,-45,o),
(888,-45,cs),
(911,-45,o),
(925,-34,o),
(925,-13,cs),
(925,4,o),
(902,31,o),
(861,52,cs),
(790,89,o),
(675,138,o),
(541,138,cs),
(464,138,o),
(447,130,o),
(414,117,c),
(419,100,l),
(524,142,o),
(686,172,o),
(686,233,cs),
(686,273,o),
(622,296,o),
(489,296,cs),
(454,296,o),
(381,282,o),
(334,273,cs),
(313,269,o),
(285,264,o),
(285,238,cs)
);
}
);
width = 1000;
}
);
production = u1B01E;
script = hentaigana;
unicode = 110622;
}
{
category = Letter;
glyphname = "ka-9-kana";
layers = (
{
backgroundImage = {
imagePath = "_sketch/u1B01F.png";
locked = 1;
pos = (0,-120);
};
layerId = m01;
shapes = (
{
closed = 1;
nodes = (
(106,677,l),
(114,658,o),
(125,642,o),
(137,628,cs),
(172,588,o),
(217,570,o),
(236,570,cs),
(262,570,o),
(269,574,o),
(285,597,cs),
(301,620,o),
(332,639,o),
(395,675,cs),
(470,718,o),
(591,767,o),
(683,767,cs),
(751,767,o),
(818,732,o),
(818,667,cs),
(818,586,o),
(649,502,o),
(465,485,c),
(466,461,l),
(663,481,o),
(866,554,o),
(866,667,cs),
(866,734,o),
(800,795,o),
(683,795,cs),
(550,795,o),
(372,698,o),
(282,653,cs),
(248,636,o),
(234,630,o),
(210,630,cs),
(186,630,o),
(152,649,o),
(123,694,c)
);
},
{
closed = 1;
nodes = (
(416,449,o),
(430,448,o),
(454,446,cs),
(478,444,o),
(503,436,o),
(503,302,cs),
(503,206,o),
(503,137,o),
(501,90,cs),
(500,74,o),
(499,73,o),
(484,82,cs),
(453,100,o),
(413,123,o),
(360,147,c),
(352,126,l),
(410,88,o),
(458,70,o),
(478,30,cs),
(487,12,o),
(497,-32,o),
(512,-32,cs),
(537,-32,o),
(544,6,o),
(544,39,cs),
(544,72,o),
(544,296,o),
(544,361,cs),
(544,449,o),
(496,493,o),
(454,493,cs),
(425,493,o),
(416,484,o),
(416,468,cs)
);
},
{
closed = 1;
nodes = (
(80,161,l),
(80,141,o),
(85,121,o),
(93,105,cs),
(106,76,o),
(128,55,o),
(148,55,cs),
(164,55,o),
(159,65,o),
(168,80,cs),
(177,94,o),
(298,198,o),
(362,233,c),
(351,251,l),
(264,203,o),
(189,153,o),
(171,141,cs),
(153,129,o),
(140,122,o),
(131,122,cs),
(120,122,o),
(107,142,o),
(98,169,c)
);
},
{
closed = 1;
nodes = (
(665,286,l),
(746,276,o),
(805,232,o),
(826,204,cs),
(843,182,o),
(851,166,o),
(851,146,cs),
(851,126,o),
(842,123,o),
(825,115,cs),
(795,101,o),
(754,83,o),
(724,70,c),
(734,56,l),
(778,75,o),
(812,87,o),
(835,87,cs),
(847,87,o),
(859,87,o),
(868,67,cs),
(873,55,o),
(878,49,o),
(888,49,cs),
(906,49,o),
(916,72,o),
(916,101,cs),
(916,181,o),
(841,290,o),
(670,311,c)
);
}
);
width = 1000;
},
{
layerId = "027B829E-3619-44FF-8C68-78647B0AD671";
shapes = (
{
closed = 1;
nodes = (
(117,723,l),
(109,704,o),
(107,689,o),
(107,676,cs),
(107,573,o),
(225,541,o),
(247,541,cs),
(272,541,o),
(279,554,o),
(294,576,cs),
(310,598,o),
(332,613,o),
(377,642,cs),
(453,692,o),
(559,739,o),
(638,739,cs),
(702,739,o),
(756,711,o),
(756,643,cs),
(756,565,o),
(653,495,o),
(477,478,c),
(478,455,l),
(666,475,o),
(908,506,o),
(908,633,cs),
(908,735,o),
(780,789,o),
(647,789,cs),
(539,789,o),
(445,758,o),
(363,726,cs),
(298,699,o),
(236,671,o),
(203,671,cs),
(180,671,o),
(157,684,o),
(129,727,c)
);
},
{
closed = 1;
nodes = (
(391,431,o),
(399,416,o),
(422,414,cs),
(445,412,o),
(464,390,o),
(464,332,cs),
(464,220,o),
(464,205,o),
(461,174,cs),
(459,158,o),
(444,151,o),
(427,154,cs),
(399,160,o),
(389,164,o),
(340,173,c),
(338,163,l),
(396,117,o),
(456,72,o),
(456,13,cs),
(456,-24,o),
(479,-46,o),
(512,-46,cs),
(546,-46,o),
(581,8,o),
(581,89,cs),
(581,121,o),
(581,297,o),
(581,360,cs),
(581,444,o),
(546,505,o),
(466,505,cs),
(429,505,o),
(391,487,o),
(391,453,cs)
);
},
{
closed = 1;
nodes = (
(84,204,l),
(78,190,o),
(77,176,o),
(77,162,cs),
(77,103,o),
(126,37,o),
(173,37,cs),
(188,37,o),
(206,45,o),
(211,61,cs),
(228,124,o),
(319,213,o),
(372,276,c),
(367,283,l),
(304,260,o),
(237,223,o),
(190,197,cs),
(156,178,o),
(142,169,o),
(133,169,cs),
(123,169,o),
(101,176,o),
(92,202,c)
);
},
{
closed = 1;
nodes = (
(660,303,l),
(706,278,o),
(753,236,o),
(773,209,cs),
(789,188,o),
(804,163,o),
(804,144,cs),
(804,127,o),
(791,118,o),
(779,112,cs),
(754,100,o),
(732,91,o),
(706,80,c),
(712,70,l),
(753,76,o),
(761,78,o),
(793,78,cs),
(824,78,o),
(835,66,o),
(844,47,cs),
(849,35,o),
(862,20,o),
(892,20,cs),
(938,20,o),
(947,82,o),
(947,110,cs),
(947,187,o),
(828,291,o),
(664,312,c)
);
}
);
width = 1000;
},
{
layerId = "22BF860B-E605-42C1-AA52-30D9AB94E7CE";
shapes = (
{
closed = 1;
nodes = (
(110,694,l),
(112,675,o),
(118,660,o),
(126,646,cs),
(148,582,o),
(220,559,o),
(240,559,cs),
(266,559,o),
(273,567,o),
(288,589,cs),
(304,612,o),
(332,629,o),
(388,663,cs),
(464,708,o),
(579,757,o),
(666,757,cs),
(733,757,o),
(795,724,o),
(795,658,cs),
(795,578,o),
(651,499,o),
(470,482,c),
(471,459,l),
(664,479,o),
(882,536,o),
(882,654,cs),
(882,734,o),
(793,793,o),
(670,793,cs),
(546,793,o),
(399,721,o),
(312,680,cs),
(267,660,o),
(235,645,o),
(207,645,cs),
(184,645,o),
(154,662,o),
(125,706,c)
);
},
{
closed = 1;
nodes = (
(407,442,o),
(418,436,o),
(442,434,cs),
(466,432,o),
(488,419,o),
(488,313,cs),
(488,211,o),
(488,163,o),
(486,122,cs),
(485,106,o),
(478,102,o),
(463,109,cs),
(433,123,o),
(404,138,o),
(353,157,c),
(347,140,l),
(405,99,o),
(457,71,o),
(470,24,cs),
(475,-1,o),
(490,-37,o),
(512,-37,cs),
(540,-37,o),
(558,7,o),
(558,58,cs),
(558,90,o),
(558,296,o),
(558,361,cs),
(558,447,o),
(515,498,o),
(459,498,cs),
(427,498,o),
(407,485,o),
(407,462,cs)
);
},
{
closed = 1;
nodes = (
(82,177,l),
(79,159,o),
(82,142,o),
(87,126,cs),
(95,86,o),
(127,48,o),
(157,48,cs),
(173,48,o),
(177,58,o),
(184,73,cs),
(196,105,o),
(306,204,o),
(366,249,c),
(357,263,l),
(279,224,o),
(207,179,o),
(178,162,cs),
(154,147,o),
(141,140,o),
(132,140,cs),
(121,140,o),
(105,155,o),
(96,181,c)
);
},
{
closed = 1;
nodes = (
(663,292,l),
(731,277,o),
(786,234,o),
(806,206,cs),
(823,184,o),
(833,165,o),
(833,145,cs),
(833,126,o),
(823,121,o),
(808,114,cs),
(780,101,o),
(746,86,o),
(717,74,c),
(726,61,l),
(769,75,o),
(793,84,o),
(819,84,cs),
(838,84,o),
(850,79,o),
(859,60,cs),
(864,48,o),
(872,38,o),
(890,38,cs),
(918,38,o),
(928,76,o),
(928,104,cs),
(928,183,o),
(836,290,o),
(668,311,c)
);
}
);
width = 1000;
}
);
production = u1B01F;
script = hentaigana;
unicode = 110623;
}
{
category = Letter;
glyphname = "ka-10-kana";
layers = (
{
backgroundImage = {
imagePath = "_sketch/u1B020.png";
locked = 1;
pos = (0,-120);
};
layerId = m01;
shapes = (
{
closed = 1;
nodes = (
(389,776,l),
(459,763,o),
(508,742,o),
(533,721,cs),
(547,709,o),
(538,703,o),
(517,686,cs),
(493,665,o),
(467,644,o),
(454,633,cs),
(441,622,o),
(439,616,o),
(439,607,cs),
(439,598,o),
(450,594,o),
(459,579,cs),
(473,554,o),
(482,529,o),
(482,487,cs),
(482,435,o),
(473,404,o),
(463,373,cs),
(456,355,o),
(448,343,o),
(444,343,cs),
(439,343,o),
(433,353,o),
(417,367,cs),
(396,386,o),
(373,408,o),
(339,435,cs),
(321,449,o),
(316,457,o),
(335,469,cs),
(369,491,o),
(487,524,o),
(565,524,cs),
(599,524,o),
(634,518,o),
(634,503,cs),
(634,478,o),
(542,443,o),
(493,432,c),
(491,411,l),
(562,422,o),
(685,461,o),
(685,504,cs),
(685,536,o),
(644,554,o),
(569,554,cs),
(480,554,o),
(346,517,o),
(307,499,cs),
(280,487,o),
(264,476,o),
(264,461,cs),
(264,441,o),
(284,448,o),
(307,429,cs),
(329,410,o),
(399,359,o),
(411,328,cs),
(422,297,o),
(421,280,o),
(441,280,cs),
(462,280,o),
(478,303,o),
(490,334,cs),
(502,365,o),
(518,432,o),
(518,477,cs),
(518,542,o),
(496,573,o),
(484,590,cs),
(475,603,o),
(468,611,o),
(491,631,cs),
(524,658,o),
(546,677,o),
(561,677,cs),
(578,677,o),
(577,666,o),
(596,666,cs),
(613,666,o),
(618,677,o),
(618,689,cs),
(618,722,o),
(528,794,o),
(391,794,c)
);
},
{
closed = 1;
nodes = (
(81,340,l),
(80,332,o),
(80,325,o),
(80,319,cs),
(80,254,o),
(126,223,o),
(156,223,cs),
(168,223,o),
(174,229,o),
(183,237,cs),
(192,245,o),
(199,255,o),
(235,268,cs),
(274,283,o),
(513,347,o),
(683,369,cs),
(707,372,o),
(702,367,o),
(685,361,cs),
(545,310,o),
(339,194,o),
(302,174,cs),
(249,145,o),
(230,126,o),
(230,108,cs),
(230,94,o),
(241,87,o),
(253,87,cs),
(269,87,o),
(276,97,o),
(304,116,cs),
(360,154,o),
(415,223,o),
(550,223,cs),
(646,223,o),
(691,176,o),
(691,120,cs),
(691,49,o),
(608,4,o),
(499,4,cs),
(447,4,o),
(409,19,o),
(409,42,cs),
(409,65,o),
(432,87,o),
(479,87,cs),
(532,87,o),
(574,43,o),
(584,6,c),
(629,18,l),
(614,74,o),
(547,111,o),
(480,111,cs),
(415,111,o),
(380,81,o),
(380,41,cs),
(380,-6,o),
(433,-35,o),
(501,-35,cs),
(637,-35,o),
(743,33,o),
(743,119,cs),
(743,196,o),
(669,246,o),
(556,246,cs),
(540,246,o),
(525,244,o),
(510,242,cs),
(502,241,o),
(494,242,o),
(507,249,cs),
(622,307,o),
(769,372,o),
(811,372,cs),
(842,372,o),
(875,362,o),
(895,362,cs),
(915,362,o),
(922,366,o),
(922,382,cs),
(922,399,o),
(903,417,o),
(847,417,cs),
(793,417,o),
(737,405,o),
(658,395,cs),
(578,385,o),
(346,335,o),
(217,304,cs),
(174,293,o),
(158,289,o),
(140,289,cs),
(119,289,o),
(108,305,o),
(98,346,c)
);
}
);
width = 1000;
},
{
layerId = "027B829E-3619-44FF-8C68-78647B0AD671";
shapes = (
{
closed = 1;
nodes = (
(386,822,l),
(444,797,o),
(491,757,o),
(505,733,cs),
(514,718,o),
(509,700,o),
(489,693,cs),
(458,682,o),
(447,678,o),
(434,667,cs),
(421,656,o),
(418,649,o),
(418,643,cs),
(418,630,o),
(425,622,o),
(434,607,cs),
(448,582,o),
(458,555,o),
(458,513,cs),
(458,479,o),
(454,459,o),
(447,435,cs),
(440,413,o),
(433,411,o),
(425,411,cs),
(416,411,o),
(408,415,o),
(390,425,cs),
(368,438,o),
(350,451,o),
(327,468,cs),
(309,482,o),
(309,498,o),
(329,505,cs),
(381,525,o),
(487,542,o),
(566,542,cs),
(604,542,o),
(636,537,o),
(636,520,cs),
(636,499,o),
(543,470,o),
(493,452,c),
(500,447,l),
(701,456,o),
(834,491,o),
(834,535,cs),
(834,589,o),
(694,615,o),
(627,615,cs),
(432,615,o),
(299,580,o),
(232,556,cs),
(195,543,o),
(167,527,o),
(167,500,cs),
(167,473,o),
(188,463,o),
(237,447,cs),
(274,434,o),
(393,387,o),
(403,347,cs),
(410,315,o),
(420,285,o),
(440,285,cs),
(471,285,o),
(530,330,o),
(546,366,cs),
(561,402,o),
(575,449,o),
(575,504,cs),
(575,559,o),
(551,603,o),
(505,635,cs),
(487,649,o),
(482,662,o),
(497,664,cs),
(514,666,o),
(523,666,o),
(529,666,cs),
(556,666,o),
(581,638,o),
(619,638,cs),
(646,638,o),
(667,665,o),
(667,691,cs),
(667,756,o),
(559,831,o),
(392,831,c)
);
},
{
closed = 1;
nodes = (
(31,373,l),
(25,354,o),
(22,337,o),
(22,321,cs),
(22,251,o),
(74,207,o),
(118,207,cs),
(130,207,o),
(143,219,o),
(152,227,cs),
(161,235,o),
(185,252,o),
(222,265,cs),
(261,279,o),
(504,347,o),
(672,373,cs),
(701,378,o),
(697,372,o),
(673,365,cs),
(510,312,o),
(257,198,o),
(221,178,cs),
(181,156,o),
(178,129,o),
(178,111,cs),
(178,87,o),
(198,50,o),
(230,50,cs),
(256,50,o),
(276,72,o),
(306,99,cs),
(366,153,o),
(442,230,o),
(542,230,cs),
(629,230,o),
(667,180,o),
(667,123,cs),
(667,51,o),
(610,14,o),
(499,14,cs),
(455,14,o),
(388,29,o),
(388,63,cs),
(388,78,o),
(412,98,o),
(450,98,cs),
(504,98,o),
(547,35,o),
(547,-2,c),
(640,38,l),
(625,95,o),
(539,142,o),
(471,142,cs),
(405,142,o),
(347,102,o),
(347,43,cs),
(347,-5,o),
(404,-62,o),
(529,-62,cs),
(696,-62,o),
(794,6,o),
(794,113,cs),
(794,209,o),
(719,278,o),
(605,278,cs),
(598,278,o),
(592,278,o),
(585,277,cs),
(573,275,o),
(571,277,o),
(585,282,cs),
(687,319,o),
(822,350,o),
(865,350,cs),
(897,350,o),
(934,344,o),
(955,344,cs),
(975,344,o),
(981,366,o),
(981,383,cs),
(981,415,o),
(930,453,o),
(844,453,cs),
(819,453,o),
(808,442,o),
(757,435,cs),
(676,425,o),
(354,383,o),
(189,350,cs),
(146,341,o),
(109,331,o),
(91,331,cs),
(70,331,o),
(58,338,o),
(38,375,c)
);
}
);
width = 1000;
},
{
layerId = "22BF860B-E605-42C1-AA52-30D9AB94E7CE";
shapes = (
{
closed = 1;
nodes = (
(388,793,l),
(453,776,o),
(502,748,o),
(523,726,cs),
(535,712,o),
(527,702,o),
(507,689,cs),
(480,671,o),
(460,657,o),
(447,646,cs),
(434,635,o),
(431,628,o),
(431,621,cs),
(431,610,o),
(441,605,o),
(450,590,cs),
(464,565,o),
(473,539,o),
(473,497,cs),
(473,452,o),
(466,425,o),
(457,396,cs),
(450,377,o),
(442,369,o),
(437,369,cs),
(430,369,o),
(424,376,o),
(407,389,cs),
(386,406,o),
(364,424,o),
(335,447,cs),
(317,461,o),
(313,472,o),
(333,483,cs),
(374,504,o),
(487,531,o),
(565,531,cs),
(601,531,o),
(635,525,o),
(635,509,cs),
(635,486,o),
(542,453,o),
(493,440,c),
(494,425,l),
(614,435,o),
(741,472,o),
(741,516,cs),
(741,556,o),
(663,577,o),
(591,577,cs),
(462,577,o),
(328,541,o),
(279,520,cs),
(248,508,o),
(228,495,o),
(228,476,cs),
(228,453,o),
(248,454,o),
(281,436,cs),
(308,419,o),
(397,370,o),
(408,335,cs),
(418,304,o),
(421,282,o),
(441,282,cs),
(465,282,o),
(498,313,o),
(511,346,cs),
(524,379,o),
(539,438,o),
(539,487,cs),
(539,548,o),
(517,584,o),
(492,607,cs),
(480,620,o),
(473,630,o),
(493,643,cs),
(520,661,o),
(537,673,o),
(549,673,cs),
(570,673,o),
(579,656,o),
(605,656,cs),
(625,656,o),
(636,673,o),
(636,690,cs),
(636,735,o),
(540,808,o),
(391,808,c)
);
},
{
closed = 1;
nodes = (
(62,352,l),
(59,340,o),
(58,330,o),
(58,320,cs),
(58,253,o),
(107,217,o),
(142,217,cs),
(154,217,o),
(162,225,o),
(171,233,cs),
(180,241,o),
(194,254,o),
(230,267,cs),
(269,282,o),
(510,347,o),
(679,371,cs),
(705,374,o),
(700,369,o),
(681,363,cs),
(532,311,o),
(308,196,o),
(272,176,cs),
(224,149,o),
(211,127,o),
(211,109,cs),
(211,91,o),
(225,73,o),
(244,73,cs),
(264,73,o),
(276,88,o),
(305,110,cs),
(362,154,o),
(425,226,o),
(547,226,cs),
(640,226,o),
(682,178,o),
(682,121,cs),
(682,50,o),
(609,8,o),
(499,8,cs),
(450,8,o),
(401,23,o),
(401,50,cs),
(401,70,o),
(425,91,o),
(468,91,cs),
(522,91,o),
(564,40,o),
(570,3,c),
(633,26,l),
(618,82,o),
(544,123,o),
(477,123,cs),
(411,123,o),
(368,89,o),
(368,42,cs),
(368,-6,o),
(422,-45,o),
(512,-45,cs),
(659,-45,o),
(762,23,o),
(762,117,cs),
(762,201,o),
(688,258,o),
(574,258,cs),
(562,258,o),
(550,257,o),
(538,255,cs),
(529,254,o),
(523,255,o),
(536,261,cs),
(646,312,o),
(789,364,o),
(831,364,cs),
(863,364,o),
(897,355,o),
(918,355,cs),
(938,355,o),
(944,366,o),
(944,382,cs),
(944,405,o),
(913,431,o),
(846,431,cs),
(803,431,o),
(764,419,o),
(695,410,cs),
(615,400,o),
(349,353,o),
(207,321,cs),
(164,311,o),
(140,305,o),
(122,305,cs),
(101,305,o),
(89,317,o),
(76,357,c)
);
}
);
width = 1000;
}
);
production = u1B020;
script = hentaigana;
unicode = 110624;
}
{
category = Letter;
glyphname = "ka-11-kana";
layers = (
{
backgroundImage = {
imagePath = _sketch/u1B021.png;
locked = 1;
pos = (0,-120);
};
layerId = m01;
shapes = (
{
closed = 1;
nodes = (
(256,763,l),
(265,764,o),
(273,765,o),
(280,765,cs),
(302,765,o),
(315,757,o),
(315,739,cs),
(315,702,o),
(146,515,o),
(109,486,cs),
(91,472,o),
(86,461,o),
(86,443,cs),
(86,433,o),
(89,427,o),
(97,427,cs),
(103,427,o),
(111,430,o),
(123,440,cs),
(164,474,o),
(269,612,o),
(323,681,cs),
(335,696,o),
(348,712,o),
(357,724,cs),
(363,733,o),
(377,739,o),
(377,753,cs),
(377,769,o),
(340,792,o),
(301,792,cs),
(286,792,o),
(270,789,o),
(256,780,c)
);
},
{
closed = 1;
nodes = (
(86,708,l),
(87,686,o),
(92,665,o),
(100,649,cs),
(111,627,o),
(128,613,o),
(150,613,cs),
(171,613,o),
(182,632,o),
(208,643,cs),
(268,669,o),
(352,691,o),
(391,691,cs),
(416,691,o),
(438,685,o),
(438,654,cs),
(438,615,o),
(412,560,o),
(389,529,cs),
(370,504,o),
(357,493,o),
(341,493,cs),
(325,493,o),
(302,515,o),
(270,563,c),
(258,549,l),
(279,515,o),
(290,500,o),
(291,480,cs),
(291,471,o),
(290,461,o),
(290,452,cs),
(290,441,o),
(293,432,o),
(308,432,cs),
(397,432,o),
(474,597,o),
(474,652,cs),
(474,687,o),
(453,716,o),
(398,716,cs),
(333,716,o),
(170,662,o),
(143,662,cs),
(126,662,o),
(116,667,o),
(104,714,c)
);
},
{
closed = 1;
nodes = (
(515,734,l),
(557,700,o),
(577,647,o),
(582,628,cs),
(587,609,o),
(583,560,o),
(610,560,cs),
(627,560,o),
(633,568,o),
(634,585,cs),
(636,662,o),
(735,743,o),
(794,743,cs),
(834,743,o),
(869,724,o),
(869,680,cs),
(869,616,o),
(802,567,o),
(700,512,cs),
(588,452,o),
(469,394,o),
(366,362,cs),
(336,353,o),
(324,346,o),
(324,331,cs),
(324,316,o),
(334,310,o),
(350,310,cs),
(357,310,o),
(370,314,o),
(391,318,cs),
(417,323,o),
(454,328,o),
(509,328,cs),
(539,328,o),
(558,318,o),
(558,290,cs),
(558,249,o),
(546,217,o),
(546,195,cs),
(546,177,o),
(554,161,o),
(582,161,cs),
(586,161,o),
(592,162,o),
(598,163,cs),
(611,165,o),
(625,166,o),
(640,166,cs),
(686,166,o),
(733,153,o),
(733,110,cs),
(733,59,o),
(653,16,o),
(541,5,c),
(524,5,l),
(513,3,o),
(501,3,o),
(489,3,cs),
(396,3,o),
(349,26,o),
(349,49,cs),
(349,72,o),
(373,86,o),
(411,86,cs),
(485,86,o),
(506,33,o),
(516,-4,c),
(557,-3,l),
(543,63,o),
(498,109,o),
(411,109,cs),
(366,109,o),
(322,88,o),
(322,49,cs),
(322,2,o),
(385,-33,o),
(489,-33,cs),
(633,-33,o),
(780,25,o),
(780,110,cs),
(780,159,o),
(743,201,o),
(641,201,cs),
(628,201,o),
(613,200,o),
(598,199,cs),
(585,198,o),
(580,204,o),
(580,213,cs),
(580,233,o),
(601,269,o),
(601,306,cs),
(601,324,o),
(582,353,o),
(517,353,cs),
(465,353,o),
(415,347,o),
(382,342,c),
(378,332,l),
(496,389,o),
(535,398,o),
(715,485,cs),
(839,545,o),
(910,597,o),
(910,678,cs),
(910,729,o),
(861,766,o),
(794,766,cs),
(721,766,o),
(637,697,o),
(596,619,c),
(623,617,l),
(608,670,o),
(567,717,o),
(529,744,c)
);
}
);
width = 1000;
},
{
background = {
shapes = (
{
ref = "ka-8-kana";
}
);
};
layerId = "027B829E-3619-44FF-8C68-78647B0AD671";
shapes = (
{
closed = 1;
nodes = (
(227,780,l),
(230,780,o),
(232,781,o),
(235,781,cs),
(258,781,o),
(265,761,o),
(265,739,cs),
(265,702,o),
(129,560,o),
(92,532,cs),
(64,511,o),
(53,476,o),
(53,458,cs),
(53,435,o),
(68,387,o),
(100,387,cs),
(139,387,o),
(165,438,o),
(188,468,cs),
(220,510,o),
(275,601,o),
(325,665,cs),
(341,685,o),
(357,712,o),
(366,724,cs),
(372,733,o),
(399,763,o),
(399,780,cs),
(399,800,o),
(363,827,o),
(317,827,cs),
(289,827,o),
(257,817,o),
(226,791,c)
);
},
{
closed = 1;
nodes = (
(86,739,l),
(68,714,o),
(60,693,o),
(60,676,cs),
(60,637,o),
(97,616,o),
(124,616,cs),
(145,616,o),
(182,632,o),
(208,643,cs),
(268,669,o),
(341,680,o),
(360,680,cs),
(370,680,o),
(380,674,o),
(380,659,cs),
(380,630,o),
(369,595,o),
(346,566,cs),
(335,552,o),
(323,543,o),
(307,543,cs),
(291,543,o),
(280,559,o),
(253,590,c),
(250,587,l),
(258,551,o),
(271,522,o),
(271,483,cs),
(271,475,o),
(270,467,o),
(270,457,cs),
(270,438,o),
(283,417,o),
(308,417,cs),
(397,417,o),
(498,545,o),
(498,658,cs),
(498,693,o),
(497,741,o),
(411,741,cs),
(346,741,o),
(170,704,o),
(143,704,cs),
(118,704,o),
(106,712,o),
(94,741,c)
);
},
{
closed = 1;
nodes = (
(484,756,l),
(509,717,o),
(530,655,o),
(533,608,cs),
(536,559,o),
(556,502,o),
(613,502,cs),
(650,502,o),
(676,530,o),
(676,578,cs),
(676,655,o),
(718,731,o),
(759,731,cs),
(793,731,o),
(808,705,o),
(808,651,cs),
(808,595,o),
(786,537,o),
(674,487,cs),
(576,443,o),
(422,395,o),
(334,382,cs),
(303,377,o),
(265,342,o),
(265,302,cs),
(265,264,o),
(302,250,o),
(318,250,cs),
(332,250,o),
(340,258,o),
(356,269,cs),
(399,298,o),
(433,335,o),
(495,335,cs),
(526,335,o),
(530,325,o),
(530,306,cs),
(530,256,o),
(506,217,o),
(506,205,cs),
(506,194,o),
(530,155,o),
(557,163,cs),
(563,165,o),
(568,166,o),
(574,167,cs),
(581,168,o),
(588,169,o),
(595,169,cs),
(644,169,o),
(683,140,o),
(683,110,cs),
(683,64,o),
(648,34,o),
(564,27,c),
(515,23,l),
(497,22,o),
(480,21,o),
(464,21,cs),
(386,21,o),
(307,35,o),
(307,90,cs),
(307,118,o),
(333,133,o),
(371,133,cs),
(441,133,o),
(487,58,o),
(494,11,c),
(594,18,l),
(562,130,o),
(479,177,o),
(387,177,cs),
(315,177,o),
(262,138,o),
(262,84,cs),
(262,-9,o),
(385,-53,o),
(499,-53,cs),
(681,-53,o),
(830,-10,o),
(830,110,cs),
(830,179,o),
(782,240,o),
(676,240,cs),
(666,240,o),
(656,239,o),
(646,239,cs),
(636,239,o),
(636,243,o),
(636,246,cs),
(636,258,o),
(651,274,o),
(651,316,cs),
(651,365,o),
(603,388,o),
(548,388,cs),
(531,388,o),
(509,386,o),
(491,382,c),
(517,373,l),
(555,383,o),
(609,396,o),
(706,440,cs),
(862,509,o),
(941,540,o),
(941,641,cs),
(941,731,o),
(871,772,o),
(794,772,cs),
(703,772,o),
(646,720,o),
(617,640,c),
(646,638,l),
(620,706,o),
(545,751,o),
(487,763,c)
);
}
);
width = 1000;
},
{
layerId = "22BF860B-E605-42C1-AA52-30D9AB94E7CE";
shapes = (
{
closed = 1;
nodes = (
(245,769,l),
(252,770,o),
(258,771,o),
(263,771,cs),
(286,771,o),
(296,759,o),
(296,739,cs),
(296,702,o),
(140,532,o),
(103,503,cs),
(81,487,o),
(74,467,o),
(74,449,cs),
(74,434,o),
(81,412,o),
(98,412,cs),
(117,412,o),
(131,433,o),
(147,451,cs),
(185,488,o),
(271,608,o),
(324,675,cs),
(337,692,o),
(351,712,o),
(360,724,cs),
(366,733,o),
(385,748,o),
(385,763,cs),
(385,781,o),
(349,805,o),
(307,805,cs),
(287,805,o),
(265,800,o),
(245,784,c)
);
},
{
closed = 1;
nodes = (
(86,720,l),
(80,697,o),
(80,676,o),
(85,659,cs),
(92,631,o),
(116,614,o),
(140,614,cs),
(161,614,o),
(182,632,o),
(208,643,cs),
(268,669,o),
(348,687,o),
(379,687,cs),
(399,687,o),
(416,681,o),
(416,656,cs),
(416,621,o),
(396,573,o),
(373,543,cs),
(357,522,o),
(344,512,o),
(328,512,cs),
(312,512,o),
(294,532,o),
(264,573,c),
(255,563,l),
(271,529,o),
(283,508,o),
(284,481,cs),
(284,473,o),
(283,463,o),
(283,454,cs),
(283,440,o),
(289,426,o),
(308,426,cs),
(397,426,o),
(483,578,o),
(483,654,cs),
(483,689,o),
(470,725,o),
(403,725,cs),
(338,725,o),
(170,678,o),
(143,678,cs),
(123,678,o),
(112,684,o),
(100,724,c)
);
},
{
closed = 1;
nodes = (
(503,742,l),
(539,706,o),
(559,650,o),
(564,621,cs),
(568,590,o),
(573,538,o),
(611,538,cs),
(636,538,o),
(649,554,o),
(650,582,cs),
(651,659,o),
(729,739,o),
(781,739,cs),
(819,739,o),
(846,717,o),
(846,669,cs),
(846,608,o),
(796,556,o),
(690,503,cs),
(584,449,o),
(451,394,o),
(354,370,cs),
(324,362,o),
(302,345,o),
(302,320,cs),
(302,297,o),
(322,288,o),
(338,288,cs),
(348,288,o),
(359,293,o),
(378,300,cs),
(410,314,o),
(446,331,o),
(504,331,cs),
(534,331,o),
(548,321,o),
(548,296,cs),
(548,252,o),
(531,217,o),
(531,199,cs),
(531,183,o),
(545,159,o),
(573,162,cs),
(577,163,o),
(583,164,o),
(589,165,cs),
(600,166,o),
(611,167,o),
(623,167,cs),
(670,167,o),
(714,148,o),
(714,110,cs),
(714,61,o),
(651,23,o),
(550,13,c),
(521,12,l),
(507,10,o),
(493,10,o),
(480,10,cs),
(392,10,o),
(333,29,o),
(333,64,cs),
(333,89,o),
(358,104,o),
(396,104,cs),
(469,104,o),
(499,42,o),
(508,2,c),
(571,5,l),
(550,88,o),
(491,135,o),
(402,135,cs),
(347,135,o),
(300,107,o),
(300,62,cs),
(300,-2,o),
(385,-40,o),
(493,-40,cs),
(651,-40,o),
(799,12,o),
(799,110,cs),
(799,167,o),
(758,216,o),
(654,216,cs),
(642,216,o),
(629,215,o),
(616,214,cs),
(604,213,o),
(601,219,o),
(601,225,cs),
(601,242,o),
(620,271,o),
(620,310,cs),
(620,339,o),
(590,366,o),
(529,366,cs),
(490,366,o),
(450,362,o),
(423,357,c),
(430,347,l),
(518,387,o),
(563,397,o),
(712,468,cs),
(848,532,o),
(922,576,o),
(922,664,cs),
(922,730,o),
(865,768,o),
(794,768,cs),
(714,768,o),
(640,706,o),
(604,627,c),
(632,625,l),
(613,684,o),
(559,730,o),
(513,751,c)
);
}
);
width = 1000;
}
);
production = u1B021;
script = hentaigana;
unicode = 110625;
}
{
category = Letter;
glyphname = "ka-Ke-kana";
layers = (
{
backgroundImage = {
imagePath = "_sketch/u1B022.png";
locked = 1;
pos = (0,-120);
};
layerId = m01;
shapes = (
{
closed = 1;
nodes = (
(236,561,o),
(222,552,o),
(198,552,cs),
(174,552,o),
(143,579,o),
(123,624,c),
(103,612,l),
(107,586,o),
(119,562,o),
(134,543,cs),
(160,510,o),
(197,490,o),
(226,490,cs),
(242,490,o),
(251,494,o),
(269,515,cs),
(285,534,o),
(301,542,o),
(332,557,cs),
(423,602,o),
(549,674,o),
(699,674,cs),
(771,674,o),
(830,651,o),
(830,600,cs),
(830,561,o),
(784,530,o),
(730,530,cs),
(676,530,o),
(648,539,o),
(605,557,c),
(593,538,l),
(627,515,o),
(680,495,o),
(731,495,cs),
(819,495,o),
(878,535,o),
(878,600,cs),
(878,665,o),
(792,702,o),
(699,702,cs),
(562,702,o),
(424,641,o),
(296,586,cs)
);
},
{
closed = 1;
nodes = (
(417,758,l),
(425,761,o),
(436,765,o),
(448,765,cs),
(471,765,o),
(495,751,o),
(495,691,cs),
(495,610,o),
(469,503,o),
(427,439,cs),
(408,411,o),
(397,407,o),
(397,391,cs),
(397,383,o),
(401,375,o),
(415,375,cs),
(429,375,o),
(439,398,o),
(474,395,cs),
(504,392,o),
(535,383,o),
(535,285,cs),
(535,185,o),
(511,107,o),
(485,64,cs),
(473,43,o),
(460,31,o),
(450,31,cs),
(441,31,o),
(435,35,o),
(426,44,cs),
(403,67,o),
(375,103,o),
(355,134,c),
(338,119,l),
(372,68,o),
(403,28,o),
(404,8,cs),
(405,-12,o),
(403,-39,o),
(432,-39,cs),
(461,-39,o),
(490,-12,o),
(513,21,cs),
(536,54,o),
(578,151,o),
(578,280,cs),
(578,370,o),
(553,419,o),
(473,419,cs),
(461,419,o),
(448,414,o),
(433,410,c),
(439,403,l),
(492,470,o),
(535,611,o),
(535,707,cs),
(535,775,o),
(493,791,o),
(466,791,cs),
(439,791,o),
(423,788,o),
(404,779,c)
);
},
{
closed = 1;
nodes = (
(304,207,l),
(281,247,o),
(256,265,o),
(229,265,cs),
(180,265,o),
(113,154,o),
(113,87,cs),
(113,60,o),
(131,43,o),
(149,43,cs),
(167,43,o),
(170,63,o),
(191,75,cs),
(231,99,o),
(334,160,o),
(405,198,c),
(397,215,l),
(330,181,o),
(235,144,o),
(189,122,cs),
(183,119,o),
(178,118,o),
(175,118,cs),
(170,118,o),
(168,122,o),
(168,128,cs),
(168,178,o),
(205,232,o),
(236,232,cs),
(253,232,o),
(274,218,o),
(287,195,c)
);
},
{
closed = 1;
nodes = (
(666,304,l),
(698,320,o),
(735,333,o),
(766,333,cs),
(793,333,o),
(805,320,o),
(805,297,cs),
(805,258,o),
(765,214,o),
(718,187,cs),
(703,179,o),
(701,177,o),
(701,167,cs),
(701,157,o),
(711,158,o),
(728,148,cs),
(779,117,o),
(803,100,o),
(837,66,cs),
(856,47,o),
(883,13,o),
(898,13,cs),
(907,13,o),
(911,19,o),
(911,32,cs),
(911,40,o),
(906,62,o),
(883,83,cs),
(855,108,o),
(801,144,o),
(763,162,cs),
(749,168,o),
(743,171,o),
(743,173,cs),
(743,175,o),
(746,176,o),
(750,178,cs),
(808,205,o),
(852,250,o),
(852,297,cs),
(852,334,o),
(820,361,o),
(766,361,cs),
(732,361,o),
(694,345,o),
(659,322,c)
);
}
);
width = 1000;
},
{
layerId = "027B829E-3619-44FF-8C68-78647B0AD671";
shapes = (
{
closed = 1;
nodes = (
(235,605,o),
(205,589,o),
(181,589,cs),
(157,589,o),
(120,606,o),
(110,651,c),
(103,650,l),
(90,624,o),
(84,602,o),
(84,582,cs),
(84,498,o),
(176,450,o),
(213,450,cs),
(229,450,o),
(251,464,o),
(269,485,cs),
(285,504,o),
(289,511,o),
(315,536,cs),
(373,592,o),
(519,684,o),
(639,684,cs),
(721,684,o),
(760,651,o),
(760,610,cs),
(760,571,o),
(724,550,o),
(680,550,cs),
(655,550,o),
(627,557,o),
(599,574,c),
(593,568,l),
(620,514,o),
(670,475,o),
(761,475,cs),
(859,475,o),
(928,525,o),
(928,590,cs),
(928,665,o),
(832,722,o),
(649,722,cs),
(546,722,o),
(401,686,o),
(268,621,cs)
);
},
{
closed = 1;
nodes = (
(393,772,l),
(401,773,o),
(407,774,o),
(413,774,cs),
(434,774,o),
(445,762,o),
(445,691,cs),
(445,610,o),
(427,515,o),
(385,451,cs),
(366,423,o),
(347,417,o),
(347,391,cs),
(347,373,o),
(371,345,o),
(397,345,cs),
(419,345,o),
(429,375,o),
(454,375,cs),
(467,375,o),
(490,363,o),
(490,305,cs),
(490,248,o),
(480,191,o),
(454,148,cs),
(442,127,o),
(430,123,o),
(420,123,cs),
(411,123,o),
(406,125,o),
(392,132,cs),
(380,138,o),
(367,146,o),
(351,158,c),
(344,152,l),
(380,72,o),
(374,24,o),
(374,2,cs),
(374,-16,o),
(379,-59,o),
(432,-59,cs),
(479,-59,o),
(517,-31,o),
(541,1,cs),
(582,55,o),
(612,161,o),
(612,290,cs),
(612,380,o),
(553,439,o),
(473,439,cs),
(461,439,o),
(437,436,o),
(422,428,c),
(456,403,l),
(528,475,o),
(592,611,o),
(592,707,cs),
(592,775,o),
(557,821,o),
(486,821,cs),
(439,821,o),
(411,800,o),
(392,781,c)
);
},
{
closed = 1;
nodes = (
(314,207,l),
(301,257,o),
(266,285,o),
(239,285,cs),
(160,285,o),
(57,206,o),
(57,99,cs),
(57,52,o),
(100,8,o),
(148,8,cs),
(187,8,o),
(200,36,o),
(215,55,cs),
(255,107,o),
(327,170,o),
(378,208,c),
(377,215,l),
(320,191,o),
(290,177,o),
(258,165,cs),
(242,159,o),
(234,158,o),
(227,158,cs),
(216,158,o),
(208,162,o),
(208,168,cs),
(208,188,o),
(235,220,o),
(256,220,cs),
(273,220,o),
(295,212,o),
(308,199,c)
);
},
{
closed = 1;
nodes = (
(641,310,l),
(664,315,o),
(695,321,o),
(716,321,cs),
(763,321,o),
(773,307,o),
(773,294,cs),
(773,255,o),
(725,234,o),
(678,207,cs),
(663,199,o),
(651,197,o),
(651,187,cs),
(651,177,o),
(661,178,o),
(678,168,cs),
(749,127,o),
(803,37,o),
(837,-7,cs),
(853,-28,o),
(875,-47,o),
(900,-47,cs),
(919,-47,o),
(951,-31,o),
(951,22,cs),
(951,50,o),
(946,75,o),
(909,108,cs),
(875,138,o),
(811,164,o),
(735,187,cs),
(732,188,o),
(731,189,o),
(731,191,cs),
(731,193,o),
(734,196,o),
(740,198,cs),
(812,217,o),
(912,250,o),
(912,297,cs),
(912,354,o),
(840,409,o),
(786,409,cs),
(752,409,o),
(694,387,o),
(639,316,c)
);
}
);
width = 1000;
},
{
layerId = "22BF860B-E605-42C1-AA52-30D9AB94E7CE";
shapes = (
{
closed = 1;
nodes = (
(232,573,o),
(212,562,o),
(188,562,cs),
(164,562,o),
(134,589,o),
(118,634,c),
(103,626,l),
(101,600,o),
(106,577,o),
(115,558,cs),
(132,506,o),
(189,475,o),
(221,475,cs),
(237,475,o),
(251,483,o),
(269,504,cs),
(285,523,o),
(297,530,o),
(326,549,cs),
(404,598,o),
(538,678,o),
(677,678,cs),
(756,678,o),
(808,647,o),
(808,604,cs),
(808,565,o),
(765,538,o),
(715,538,cs),
(668,538,o),
(640,546,o),
(603,563,c),
(593,549,l),
(624,515,o),
(676,488,o),
(742,488,cs),
(834,488,o),
(893,537,o),
(893,598,cs),
(893,667,o),
(803,710,o),
(680,710,cs),
(556,710,o),
(412,655,o),
(282,595,cs)
);
},
{
closed = 1;
nodes = (
(408,763,l),
(416,766,o),
(425,768,o),
(435,768,cs),
(457,768,o),
(476,755,o),
(476,691,cs),
(476,610,o),
(453,508,o),
(411,444,cs),
(392,416,o),
(378,411,o),
(378,391,cs),
(378,379,o),
(390,364,o),
(408,364,cs),
(425,364,o),
(435,389,o),
(467,388,cs),
(490,386,o),
(519,376,o),
(519,293,cs),
(519,209,o),
(499,139,o),
(473,96,cs),
(461,75,o),
(449,66,o),
(439,66,cs),
(430,66,o),
(424,69,o),
(413,77,cs),
(394,94,o),
(372,119,o),
(354,143,c),
(340,131,l),
(375,70,o),
(392,27,o),
(393,6,cs),
(393,-13,o),
(394,-46,o),
(432,-46,cs),
(465,-46,o),
(497,-19,o),
(521,14,cs),
(550,54,o),
(589,155,o),
(589,284,cs),
(589,374,o),
(553,427,o),
(473,427,cs),
(461,427,o),
(444,422,o),
(429,417,c),
(445,403,l),
(506,472,o),
(556,611,o),
(556,707,cs),
(556,775,o),
(517,802,o),
(474,802,cs),
(439,802,o),
(419,793,o),
(400,780,c)
);
},
{
closed = 1;
nodes = (
(308,207,l),
(289,251,o),
(260,273,o),
(233,273,cs),
(173,273,o),
(94,169,o),
(94,87,cs),
(94,53,o),
(124,32,o),
(149,32,cs),
(175,32,o),
(181,53,o),
(200,68,cs),
(240,102,o),
(331,164,o),
(395,202,c),
(390,215,l),
(326,185,o),
(256,156,o),
(215,138,cs),
(205,134,o),
(199,133,o),
(195,133,cs),
(187,133,o),
(183,137,o),
(183,143,cs),
(183,182,o),
(216,228,o),
(244,228,cs),
(261,228,o),
(282,216,o),
(295,197,c)
);
},
{
closed = 1;
nodes = (
(657,306,l),
(685,318,o),
(720,329,o),
(747,329,cs),
(782,329,o),
(793,315,o),
(793,296,cs),
(793,257,o),
(750,222,o),
(703,195,cs),
(688,187,o),
(682,185,o),
(682,175,cs),
(682,165,o),
(692,166,o),
(709,156,cs),
(768,121,o),
(803,76,o),
(837,39,cs),
(855,19,o),
(880,-9,o),
(899,-9,cs),
(912,-9,o),
(926,0,o),
(926,25,cs),
(926,40,o),
(921,63,o),
(893,89,cs),
(863,116,o),
(805,152,o),
(753,171,cs),
(743,176,o),
(739,178,o),
(739,180,cs),
(739,182,o),
(742,183,o),
(746,186,cs),
(804,213,o),
(871,250,o),
(871,297,cs),
(871,342,o),
(828,379,o),
(774,379,cs),
(740,379,o),
(694,361,o),
(652,320,c)
);
}
);
width = 1000;
}
);
production = u1B022;
script = hentaigana;
unicode = 110626;
}
{
category = Letter;
glyphname = "ki-1-kana";
layers = (
{
backgroundImage = {
imagePath = _sketch/u1B023.png;
locked = 1;
pos = (0,-120);
};
layerId = m01;
shapes = (
{
closed = 1;
nodes = (
(318,-34,o),
(325,-7,o),
(345,12,cs),
(401,65,o),
(761,267,o),
(838,278,c),
(809,294,l),
(681,263,o),
(395,85,o),
(347,57,cs),
(328,46,o),
(317,42,o),
(310,42,cs),
(303,42,o),
(301,48,o),
(299,64,cs),
(296,84,o),
(295,127,o),
(295,172,cs),
(295,238,o),
(297,308,o),
(299,326,cs),
(301,346,o),
(303,359,o),
(311,359,cs),
(317,359,o),
(343,336,o),
(343,326,cs),
(343,316,o),
(336,314,o),
(326,306,cs),
(316,298,o),
(186,234,o),
(140,234,cs),
(134,234,o),
(121,237,o),
(118,269,c),
(100,265,l),
(99,254,o),
(99,237,o),
(105,222,cs),
(111,206,o),
(123,192,o),
(149,192,cs),
(198,192,o),
(337,265,o),
(364,283,cs),
(391,301,o),
(406,308,o),
(406,328,cs),
(406,346,o),
(387,345,o),
(370,345,cs),
(334,345,o),
(326,398,o),
(302,398,cs),
(278,398,o),
(262,380,o),
(260,330,cs),
(259,306,o),
(257,230,o),
(257,162,cs),
(257,119,o),
(258,78,o),
(260,58,cs),
(264,26,o),
(262,-34,o),
(300,-34,cs)
);
},
{
closed = 1;
nodes = (
(778,-12,o),
(851,-2,o),
(888,9,cs),
(907,14,o),
(919,20,o),
(919,33,cs),
(919,46,o),
(902,60,o),
(885,60,cs),
(868,60,o),
(811,34,o),
(690,34,cs),
(649,34,o),
(643,60,o),
(643,86,cs),
(643,172,o),
(643,327,o),
(643,342,c),
(631,342,l),
(680,302,o),
(726,274,o),
(834,274,cs),
(882,274,o),
(902,280,o),
(902,299,cs),
(902,315,o),
(886,325,o),
(872,325,cs),
(865,325,o),
(856,322,o),
(842,319,cs),
(828,315,o),
(808,311,o),
(783,311,cs),
(725,311,o),
(671,338,o),
(646,357,cs),
(638,363,o),
(627,396,o),
(611,396,cs),
(595,396,o),
(583,385,o),
(583,376,cs),
(583,367,o),
(604,360,o),
(604,324,cs),
(604,308,o),
(604,140,o),
(604,95,cs),
(604,10,o),
(630,-12,o),
(704,-12,cs)
);
},
{
closed = 1;
nodes = (
(482,416,o),
(627,472,o),
(667,472,cs),
(695,472,o),
(722,475,o),
(722,493,cs),
(722,511,o),
(707,522,o),
(677,522,cs),
(667,522,o),
(568,486,o),
(495,486,cs),
(452,486,o),
(415,505,o),
(415,543,cs),
(415,581,o),
(416,684,o),
(423,699,cs),
(430,714,o),
(437,724,o),
(437,735,cs),
(437,756,o),
(402,789,o),
(369,789,cs),
(350,789,o),
(337,786,o),
(327,781,c),
(325,765,l),
(363,760,o),
(381,749,o),
(381,725,cs),
(381,681,o),
(380,588,o),
(380,539,cs),
(380,483,o),
(421,458,o),
(497,454,cs),
(512,453,o),
(512,451,o),
(497,442,cs),
(465,425,o),
(435,408,o),
(430,403,c),
(441,386,l)
);
},
{
closed = 1;
nodes = (
(291,561,o),
(294,569,o),
(312,575,cs),
(330,581,o),
(345,581,o),
(398,593,cs),
(477,611,o),
(681,638,o),
(830,638,cs),
(848,638,o),
(852,645,o),
(852,653,cs),
(852,671,o),
(821,683,o),
(764,683,cs),
(747,683,o),
(732,669,o),
(697,665,cs),
(603,655,o),
(289,607,o),
(256,607,cs),
(230,607,o),
(202,621,o),
(178,658,c),
(163,651,l),
(162,645,o),
(161,640,o),
(161,632,cs),
(161,601,o),
(247,561,o),
(265,561,cs)
);
}
);
width = 1000;
},
{
layerId = "027B829E-3619-44FF-8C68-78647B0AD671";
shapes = (
{
closed = 1;
nodes = (
(315,-55,o),
(323,-32,o),
(359,2,cs),
(440,79,o),
(641,200,o),
(858,273,c),
(819,304,l),
(651,243,o),
(432,122,o),
(351,83,cs),
(344,80,o),
(339,79,o),
(335,79,cs),
(325,79,o),
(322,88,o),
(320,100,cs),
(315,132,o),
(313,170,o),
(313,213,cs),
(313,262,o),
(323,313,o),
(327,334,cs),
(329,343,o),
(333,360,o),
(348,360,cs),
(356,360,o),
(391,348,o),
(391,338,cs),
(391,332,o),
(376,325,o),
(366,322,cs),
(353,318,o),
(176,274,o),
(140,274,cs),
(114,274,o),
(111,288,o),
(108,320,c),
(103,321,l),
(74,297,o),
(53,261,o),
(53,229,cs),
(53,176,o),
(96,156,o),
(139,156,cs),
(188,156,o),
(382,215,o),
(411,228,cs),
(459,249,o),
(488,274,o),
(488,308,cs),
(488,365,o),
(412,374,o),
(371,385,cs),
(334,395,o),
(333,428,o),
(293,428,cs),
(249,428,o),
(205,378,o),
(198,338,cs),
(193,306,o),
(187,268,o),
(187,221,cs),
(187,146,o),
(189,106,o),
(191,78,cs),
(197,9,o),
(225,-55,o),
(277,-55,cs)
);
},
{
closed = 1;
nodes = (
(778,-42,o),
(849,-38,o),
(898,-29,cs),
(939,-22,o),
(957,4,o),
(957,26,cs),
(957,79,o),
(893,100,o),
(856,100,cs),
(839,100,o),
(809,76,o),
(730,76,cs),
(709,76,o),
(683,80,o),
(683,116,cs),
(683,178,o),
(687,276,o),
(690,325,c),
(681,316,l),
(710,286,o),
(777,271,o),
(835,271,cs),
(895,271,o),
(942,293,o),
(942,329,cs),
(942,368,o),
(900,395,o),
(860,395,cs),
(840,395,o),
(828,384,o),
(811,377,cs),
(786,365,o),
(755,344,o),
(720,344,cs),
(711,344,o),
(697,345,o),
(687,365,cs),
(677,385,o),
(667,413,o),
(631,413,cs),
(584,413,o),
(543,386,o),
(543,358,cs),
(543,341,o),
(551,331,o),
(551,294,cs),
(551,251,o),
(551,140,o),
(551,95,cs),
(551,0,o),
(620,-42,o),
(724,-42,cs)
);
},
{
closed = 1;
nodes = (
(466,428,o),
(647,442,o),
(687,442,cs),
(715,442,o),
(762,455,o),
(762,493,cs),
(762,511,o),
(737,552,o),
(667,552,cs),
(628,552,o),
(568,526,o),
(495,526,cs),
(470,526,o),
(465,535,o),
(465,563,cs),
(465,581,o),
(469,693,o),
(471,709,cs),
(473,725,o),
(487,744,o),
(487,755,cs),
(487,786,o),
(422,823,o),
(379,823,cs),
(350,823,o),
(312,803,o),
(301,780,c),
(302,772,l),
(329,767,o),
(331,749,o),
(331,725,cs),
(331,681,o),
(330,588,o),
(330,539,cs),
(330,484,o),
(338,449,o),
(427,442,cs),
(440,441,o),
(440,434,o),
(434,428,cs),
(425,419,o),
(417,410,o),
(410,403,c),
(415,398,l)
);
},
{
closed = 1;
nodes = (
(281,541,o),
(296,557,o),
(314,563,cs),
(332,569,o),
(357,570,o),
(412,579,cs),
(525,597,o),
(661,618,o),
(810,618,cs),
(852,618,o),
(885,627,o),
(885,659,cs),
(885,707,o),
(841,733,o),
(774,733,cs),
(747,733,o),
(724,719,o),
(689,714,cs),
(585,700,o),
(279,657,o),
(246,657,cs),
(210,657,o),
(188,655,o),
(170,693,c),
(159,691,l),
(152,674,o),
(149,660,o),
(149,647,cs),
(149,575,o),
(213,541,o),
(245,541,cs)
);
}
);
width = 1000;
},
{
layerId = "22BF860B-E605-42C1-AA52-30D9AB94E7CE";
shapes = (
{
closed = 1;
nodes = (
(317,-42,o),
(324,-16,o),
(350,8,cs),
(416,70,o),
(716,242,o),
(846,276,c),
(813,298,l),
(670,256,o),
(409,99,o),
(349,67,cs),
(334,59,o),
(325,56,o),
(319,56,cs),
(311,56,o),
(309,63,o),
(307,78,cs),
(303,102,o),
(302,143,o),
(302,187,cs),
(302,247,o),
(307,310,o),
(310,329,cs),
(312,345,o),
(314,359,o),
(325,359,cs),
(332,359,o),
(361,341,o),
(361,331,cs),
(361,322,o),
(351,318,o),
(341,312,cs),
(330,306,o),
(182,249,o),
(140,249,cs),
(127,249,o),
(117,256,o),
(114,288,c),
(101,286,l),
(90,270,o),
(82,246,o),
(86,225,cs),
(89,195,o),
(113,179,o),
(145,179,cs),
(194,179,o),
(354,246,o),
(382,262,cs),
(417,282,o),
(437,295,o),
(437,321,cs),
(437,353,o),
(396,356,o),
(370,360,cs),
(334,364,o),
(329,409,o),
(299,409,cs),
(267,409,o),
(241,379,o),
(237,333,cs),
(234,306,o),
(231,244,o),
(231,184,cs),
(231,129,o),
(232,89,o),
(234,66,cs),
(239,20,o),
(248,-42,o),
(291,-42,cs)
);
},
{
closed = 1;
nodes = (
(778,-23,o),
(850,-15,o),
(892,-5,cs),
(919,1,o),
(933,14,o),
(933,30,cs),
(933,58,o),
(899,75,o),
(874,75,cs),
(857,75,o),
(810,50,o),
(705,50,cs),
(672,50,o),
(658,68,o),
(658,97,cs),
(658,174,o),
(660,308,o),
(661,336,c),
(650,332,l),
(691,296,o),
(745,273,o),
(834,273,cs),
(887,273,o),
(917,285,o),
(917,310,cs),
(917,335,o),
(891,351,o),
(868,351,cs),
(856,351,o),
(846,345,o),
(830,341,cs),
(812,334,o),
(788,323,o),
(759,323,cs),
(720,323,o),
(681,341,o),
(661,360,cs),
(653,371,o),
(642,402,o),
(619,402,cs),
(591,402,o),
(568,385,o),
(568,369,cs),
(568,357,o),
(584,349,o),
(584,313,cs),
(584,287,o),
(584,140,o),
(584,95,cs),
(584,6,o),
(626,-23,o),
(712,-23,cs)
);
},
{
closed = 1;
nodes = (
(476,421,o),
(635,461,o),
(675,461,cs),
(703,461,o),
(737,468,o),
(737,493,cs),
(737,511,o),
(718,533,o),
(673,533,cs),
(652,533,o),
(568,501,o),
(495,501,cs),
(459,501,o),
(434,516,o),
(434,551,cs),
(434,581,o),
(436,687,o),
(441,703,cs),
(446,718,o),
(456,732,o),
(456,743,cs),
(456,767,o),
(410,802,o),
(373,802,cs),
(350,802,o),
(328,792,o),
(317,781,c),
(316,768,l),
(350,763,o),
(362,749,o),
(362,725,cs),
(362,681,o),
(361,588,o),
(361,539,cs),
(361,483,o),
(390,455,o),
(471,450,cs),
(485,449,o),
(485,445,o),
(473,437,cs),
(450,423,o),
(428,409,o),
(423,403,c),
(431,391,l)
);
},
{
closed = 1;
nodes = (
(287,554,o),
(295,565,o),
(313,571,cs),
(331,577,o),
(350,577,o),
(403,588,cs),
(495,606,o),
(674,631,o),
(823,631,cs),
(850,631,o),
(864,638,o),
(864,655,cs),
(864,685,o),
(829,702,o),
(768,702,cs),
(747,702,o),
(729,688,o),
(694,683,cs),
(596,672,o),
(285,626,o),
(252,626,cs),
(223,626,o),
(197,634,o),
(175,671,c),
(162,666,l),
(158,656,o),
(157,648,o),
(157,638,cs),
(157,591,o),
(234,554,o),
(258,554,cs)
);
}
);
width = 1000;
}
);
production = u1B023;
script = hentaigana;
unicode = 110627;
}
{
category = Letter;
glyphname = "ki-2-kana";
layers = (
{
backgroundImage = {
imagePath = _sketch/u1B024.png;
locked = 1;
pos = (0,-85);
scale = (1,0.9256);
};
layerId = m01;
shapes = (
{
closed = 1;
nodes = (
(272,777,l),
(287,769,o),
(300,769,o),
(300,755,cs),
(300,741,o),
(296,726,o),
(279,702,cs),
(249,659,o),
(190,590,o),
(139,541,c),
(153,533,l),
(213,563,o),
(315,692,o),
(326,703,cs),
(337,714,o),
(364,734,o),
(364,750,cs),
(364,760,o),
(345,776,o),
(321,785,cs),
(309,790,o),
(295,793,o),
(283,793,c)
);
},
{
closed = 1;
nodes = (
(116,560,o),
(109,548,o),
(109,539,cs),
(109,513,o),
(143,501,o),
(157,501,cs),
(171,501,o),
(173,513,o),
(196,522,cs),
(245,542,o),
(360,587,o),
(370,594,c),
(353,598,l),
(333,551,o),
(248,435,o),
(233,416,c),
(259,417,l),
(300,463,o),
(393,588,o),
(401,602,cs),
(409,616,o),
(436,614,o),
(436,627,cs),
(436,640,o),
(413,649,o),
(398,649,cs),
(383,649,o),
(381,639,o),
(367,631,cs),
(334,612,o),
(198,555,o),
(158,541,c),
(143,541,o),
(139,543,o),
(128,560,c)
);
},
{
closed = 1;
nodes = (
(176,420,l),
(185,401,o),
(212,381,o),
(233,381,cs),
(244,381,o),
(248,386,o),
(253,392,cs),
(288,428,o),
(357,463,o),
(451,543,c),
(441,560,l),
(354,501,o),
(286,450,o),
(236,432,cs),
(225,428,o),
(215,426,o),
(207,426,cs),
(197,426,o),
(189,428,o),
(182,433,c)
);
},
{
closed = 1;
nodes = (
(585,685,l),
(647,732,o),
(703,764,o),
(754,764,cs),
(775,764,o),
(781,759,o),
(781,749,cs),
(781,726,o),
(735,682,o),
(706,670,cs),
(677,657,o),
(664,655,o),
(650,652,cs),
(635,649,o),
(634,645,o),
(634,637,cs),
(634,630,o),
(636,618,o),
(652,618,cs),
(668,618,o),
(724,656,o),
(777,656,cs),
(800,656,o),
(810,645,o),
(810,631,cs),
(810,578,o),
(673,530,o),
(529,490,c),
(534,469,l),
(708,506,o),
(864,565,o),
(864,631,cs),
(864,668,o),
(813,677,o),
(786,677,cs),
(759,677,o),
(707,661,o),
(690,652,c),
(694,640,l),
(727,660,o),
(831,712,o),
(831,757,cs),
(831,783,o),
(812,797,o),
(771,797,cs),
(700,797,o),
(629,756,o),
(568,702,c)
);
},
{
closed = 1;
nodes = (
(88,374,l),
(91,358,o),
(99,344,o),
(108,334,cs),
(127,310,o),
(155,300,o),
(167,300,cs),
(195,300,o),
(190,306,o),
(218,313,cs),
(241,318,o),
(566,406,o),
(745,442,c),
(736,449,l),
(668,418,o),
(663,376,o),
(663,338,cs),
(663,311,o),
(669,151,o),
(669,80,cs),
(669,66,o),
(666,57,o),
(659,57,cs),
(656,57,o),
(653,59,o),
(649,61,cs),
(641,66,o),
(604,90,o),
(559,122,c),
(546,104,l),
(586,76,o),
(623,42,o),
(636,23,cs),
(649,4,o),
(655,-41,o),
(667,-41,cs),
(689,-41,o),
(694,-29,o),
(698,-13,cs),
(702,3,o),
(702,30,o),
(702,52,cs),
(702,74,o),
(692,253,o),
(692,350,cs),
(692,389,o),
(743,448,o),
(815,448,cs),
(864,448,o),
(866,439,o),
(886,439,cs),
(896,439,o),
(904,446,o),
(904,456,cs),
(904,479,o),
(841,494,o),
(796,494,cs),
(771,494,o),
(764,483,o),
(738,477,cs),
(666,461,o),
(352,379,o),
(274,363,cs),
(229,354,o),
(192,347,o),
(173,347,cs),
(154,347,o),
(120,348,o),
(101,390,c)
);
},
{
closed = 1;
nodes = (
(249,327,l),
(274,314,o),
(283,304,o),
(283,294,cs),
(283,284,o),
(209,186,o),
(143,133,c),
(162,121,l),
(233,176,o),
(298,260,o),
(310,272,cs),
(322,284,o),
(332,295,o),
(332,307,cs),
(332,316,o),
(312,330,o),
(283,337,cs),
(275,339,o),
(267,340,o),
(258,341,c)
);
},
{
closed = 1;
nodes = (
(121,158,o),
(115,146,o),
(115,134,cs),
(115,116,o),
(138,95,o),
(163,95,cs),
(176,95,o),
(182,109,o),
(206,122,cs),
(256,148,o),
(324,185,o),
(334,190,c),
(325,198,l),
(298,166,o),
(220,26,o),
(206,7,cs),
(200,-1,o),
(195,1,o),
(195,-11,cs),
(195,-23,o),
(220,-36,o),
(243,-36,cs),
(256,-36,o),
(260,-20,o),
(278,-3,cs),
(409,127,o),
(598,278,o),
(687,278,cs),
(824,278,o),
(862,171,o),
(865,87,cs),
(866,61,o),
(875,48,o),
(889,48,cs),
(903,48,o),
(910,60,o),
(910,85,cs),
(910,200,o),
(819,300,o),
(687,300,cs),
(592,300,o),
(405,157,o),
(226,-2,c),
(235,0,l),
(260,57,o),
(335,163,o),
(347,177,cs),
(363,196,o),
(371,195,o),
(371,205,cs),
(371,215,o),
(348,232,o),
(339,232,cs),
(330,232,o),
(324,222,o),
(318,212,c),
(306,202,o),
(230,156,o),
(168,139,cs),
(158,136,o),
(140,147,o),
(128,158,c)
);
}
);
width = 1000;
},
{
layerId = "027B829E-3619-44FF-8C68-78647B0AD671";
shapes = (
{
closed = 1;
nodes = (
(230,807,l),
(245,799,o),
(250,790,o),
(250,776,cs),
(250,762,o),
(244,749,o),
(233,721,cs),
(213,668,o),
(160,580,o),
(159,591,c),
(163,583,l),
(203,593,o),
(315,692,o),
(326,703,cs),
(357,734,o),
(383,734,o),
(383,750,cs),
(383,782,o),
(323,823,o),
(264,823,cs),
(253,823,o),
(242,821,o),
(231,818,c)
);
},
{
closed = 1;
nodes = (
(115,619,o),
(79,601,o),
(79,569,cs),
(79,543,o),
(149,501,o),
(163,501,cs),
(177,501,o),
(193,522,o),
(216,531,cs),
(265,551,o),
(359,604,o),
(390,624,c),
(333,628,l),
(313,581,o),
(238,465,o),
(223,446,c),
(239,447,l),
(280,493,o),
(442,598,o),
(450,603,cs),
(489,626,o),
(508,616,o),
(508,639,cs),
(508,685,o),
(443,701,o),
(428,701,cs),
(393,701,o),
(391,679,o),
(377,671,cs),
(344,652,o),
(208,615,o),
(168,601,c),
(153,601,o),
(138,602,o),
(127,619,c)
);
},
{
closed = 1;
nodes = (
(136,462,l),
(136,393,o),
(232,358,o),
(253,358,cs),
(264,358,o),
(267,366,o),
(283,382,cs),
(320,419,o),
(365,445,o),
(467,543,c),
(461,550,l),
(381,518,o),
(246,477,o),
(196,462,cs),
(187,459,o),
(179,458,o),
(172,458,cs),
(160,458,o),
(151,461,o),
(142,467,c)
);
},
{
closed = 1;
nodes = (
(565,705,l),
(607,732,o),
(640,749,o),
(681,749,cs),
(692,749,o),
(717,746,o),
(717,726,cs),
(717,711,o),
(699,695,o),
(669,679,cs),
(625,656,o),
(597,649,o),
(587,645,cs),
(576,640,o),
(565,637,o),
(565,620,cs),
(565,587,o),
(590,578,o),
(609,578,cs),
(627,578,o),
(693,636,o),
(728,636,cs),
(741,636,o),
(749,630,o),
(749,616,cs),
(749,573,o),
(655,515,o),
(523,467,c),
(524,459,l),
(768,496,o),
(884,565,o),
(884,631,cs),
(884,668,o),
(853,692,o),
(806,692,cs),
(749,692,o),
(677,661,o),
(660,652,c),
(664,650,l),
(737,660,o),
(846,706,o),
(846,761,cs),
(846,787,o),
(822,820,o),
(741,820,cs),
(650,820,o),
(599,776,o),
(558,712,c)
);
},
{
closed = 1;
nodes = (
(84,398,l),
(77,381,o),
(74,366,o),
(74,353,cs),
(74,294,o),
(134,260,o),
(157,260,cs),
(175,260,o),
(201,294,o),
(228,303,cs),
(271,318,o),
(556,396,o),
(735,422,c),
(736,449,l),
(668,418,o),
(619,386,o),
(619,318,cs),
(619,289,o),
(623,179,o),
(623,136,cs),
(623,121,o),
(612,118,o),
(604,118,cs),
(603,118,o),
(601,118,o),
(600,118,cs),
(573,120,o),
(549,127,o),
(519,135,c),
(516,127,l),
(556,86,o),
(603,32,o),
(616,-17,cs),
(622,-39,o),
(635,-61,o),
(667,-61,cs),
(699,-61,o),
(721,-40,o),
(733,-18,cs),
(743,0,o),
(748,30,o),
(748,52,cs),
(748,74,o),
(738,233,o),
(738,330,cs),
(738,369,o),
(763,428,o),
(835,428,cs),
(854,428,o),
(876,422,o),
(896,422,cs),
(916,422,o),
(927,436,o),
(927,456,cs),
(927,479,o),
(901,520,o),
(816,520,cs),
(791,520,o),
(733,496,o),
(716,492,cs),
(562,458,o),
(380,409,o),
(292,391,cs),
(257,384,o),
(182,367,o),
(163,367,cs),
(144,367,o),
(130,368,o),
(91,400,c)
);
},
{
closed = 1;
nodes = (
(199,337,l),
(224,324,o),
(233,324,o),
(233,314,cs),
(233,304,o),
(189,226,o),
(143,173,c),
(162,161,l),
(233,216,o),
(288,250,o),
(330,272,cs),
(358,287,o),
(382,287,o),
(382,302,cs),
(382,318,o),
(347,345,o),
(261,345,cs),
(243,345,o),
(222,344,o),
(198,341,c)
);
},
{
closed = 1;
nodes = (
(91,188,o),
(75,166,o),
(75,144,cs),
(75,116,o),
(118,75,o),
(143,75,cs),
(156,75,o),
(174,96,o),
(196,112,cs),
(246,148,o),
(324,185,o),
(334,190,c),
(275,188,l),
(258,146,o),
(223,73,o),
(203,36,cs),
(188,10,o),
(167,9,o),
(167,-13,cs),
(167,-35,o),
(220,-66,o),
(253,-66,cs),
(294,-66,o),
(293,-50,o),
(327,7,cs),
(414,153,o),
(570,291,o),
(679,291,cs),
(795,291,o),
(825,172,o),
(846,70,cs),
(851,44,o),
(875,18,o),
(899,18,cs),
(933,18,o),
(960,40,o),
(960,85,cs),
(960,200,o),
(819,320,o),
(687,320,cs),
(533,320,o),
(375,167,o),
(226,-2,c),
(245,-10,l),
(280,47,o),
(325,133,o),
(361,162,cs),
(387,183,o),
(401,198,o),
(401,208,cs),
(401,231,o),
(378,252,o),
(339,252,cs),
(320,252,o),
(316,241,o),
(303,227,cs),
(292,216,o),
(155,178,o),
(137,178,cs),
(128,178,o),
(116,180,o),
(108,188,c)
);
}
);
width = 1000;
},
{
layerId = "22BF860B-E605-42C1-AA52-30D9AB94E7CE";
shapes = (
{
closed = 1;
nodes = (
(256,788,l),
(271,780,o),
(281,777,o),
(281,763,cs),
(281,749,o),
(277,735,o),
(262,709,cs),
(236,662,o),
(179,586,o),
(147,560,c),
(157,552,l),
(209,574,o),
(315,692,o),
(326,703,cs),
(345,722,o),
(371,734,o),
(371,750,cs),
(371,768,o),
(337,794,o),
(300,799,cs),
(288,802,o),
(275,804,o),
(264,802,c)
);
},
{
closed = 1;
nodes = (
(116,582,o),
(98,568,o),
(98,550,cs),
(98,524,o),
(145,501,o),
(159,501,cs),
(173,501,o),
(181,516,o),
(204,525,cs),
(253,545,o),
(360,593,o),
(378,605,c),
(346,609,l),
(326,562,o),
(244,446,o),
(229,427,c),
(252,428,l),
(293,474,o),
(411,592,o),
(419,602,cs),
(439,620,o),
(463,615,o),
(463,632,cs),
(463,657,o),
(424,669,o),
(409,669,cs),
(387,669,o),
(385,654,o),
(371,646,cs),
(338,627,o),
(202,578,o),
(162,564,c),
(147,564,o),
(139,565,o),
(128,582,c)
);
},
{
closed = 1;
nodes = (
(161,436,l),
(167,398,o),
(220,372,o),
(241,372,cs),
(252,372,o),
(255,379,o),
(264,388,cs),
(300,425,o),
(360,456,o),
(457,543,c),
(449,556,l),
(364,507,o),
(271,460,o),
(221,443,cs),
(211,440,o),
(202,438,o),
(194,438,cs),
(183,438,o),
(175,440,o),
(167,446,c)
);
},
{
closed = 1;
nodes = (
(578,693,l),
(632,732,o),
(679,758,o),
(727,758,cs),
(744,758,o),
(757,754,o),
(757,740,cs),
(757,720,o),
(722,687,o),
(692,673,cs),
(658,657,o),
(639,653,o),
(626,649,cs),
(613,646,o),
(608,642,o),
(608,631,cs),
(608,614,o),
(619,603,o),
(636,603,cs),
(653,603,o),
(712,649,o),
(759,649,cs),
(778,649,o),
(787,639,o),
(787,625,cs),
(787,576,o),
(666,524,o),
(527,481,c),
(530,465,l),
(731,502,o),
(872,565,o),
(872,631,cs),
(872,668,o),
(828,683,o),
(794,683,cs),
(755,683,o),
(696,661,o),
(679,652,c),
(683,644,l),
(731,660,o),
(837,710,o),
(837,759,cs),
(837,785,o),
(816,806,o),
(760,806,cs),
(681,806,o),
(618,764,o),
(564,706,c)
);
},
{
closed = 1;
nodes = (
(87,383,l),
(86,367,o),
(90,352,o),
(95,341,cs),
(107,304,o),
(147,285,o),
(163,285,cs),
(188,285,o),
(194,302,o),
(222,309,cs),
(252,318,o),
(562,402,o),
(741,435,c),
(736,449,l),
(668,418,o),
(647,380,o),
(647,331,cs),
(647,303,o),
(652,162,o),
(652,101,cs),
(652,87,o),
(646,80,o),
(638,80,cs),
(636,80,o),
(634,81,o),
(631,82,cs),
(616,86,o),
(583,104,o),
(544,127,c),
(535,113,l),
(575,80,o),
(616,38,o),
(629,8,cs),
(639,-12,o),
(648,-48,o),
(667,-48,cs),
(693,-48,o),
(704,-33,o),
(711,-15,cs),
(717,2,o),
(719,30,o),
(719,52,cs),
(719,74,o),
(709,246,o),
(709,343,cs),
(709,382,o),
(751,441,o),
(823,441,cs),
(860,441,o),
(870,433,o),
(890,433,cs),
(904,433,o),
(913,442,o),
(913,456,cs),
(913,479,o),
(864,504,o),
(804,504,cs),
(779,504,o),
(752,488,o),
(730,483,cs),
(627,460,o),
(363,390,o),
(281,374,cs),
(240,365,o),
(188,355,o),
(169,355,cs),
(150,355,o),
(124,356,o),
(97,394,c)
);
},
{
closed = 1;
nodes = (
(230,331,l),
(255,318,o),
(264,312,o),
(264,302,cs),
(264,292,o),
(202,201,o),
(143,148,c),
(162,136,l),
(233,191,o),
(294,256,o),
(318,272,cs),
(336,285,o),
(351,292,o),
(351,305,cs),
(351,317,o),
(325,336,o),
(275,340,cs),
(263,341,o),
(250,342,o),
(236,341,c)
);
},
{
closed = 1;
nodes = (
(110,169,o),
(100,154,o),
(100,138,cs),
(100,116,o),
(131,88,o),
(156,88,cs),
(169,88,o),
(179,104,o),
(202,118,cs),
(252,148,o),
(324,185,o),
(334,190,c),
(306,194,l),
(283,159,o),
(221,44,o),
(205,18,cs),
(196,3,o),
(185,4,o),
(185,-12,cs),
(185,-27,o),
(220,-47,o),
(247,-47,cs),
(270,-47,o),
(272,-31,o),
(296,1,cs),
(411,137,o),
(588,283,o),
(684,283,cs),
(813,283,o),
(848,171,o),
(858,81,cs),
(860,55,o),
(875,37,o),
(893,37,cs),
(914,37,o),
(929,53,o),
(929,85,cs),
(929,200,o),
(819,308,o),
(687,308,cs),
(570,308,o),
(394,161,o),
(226,-2,c),
(239,-4,l),
(268,53,o),
(331,152,o),
(352,171,cs),
(372,191,o),
(382,196,o),
(382,206,cs),
(382,221,o),
(359,240,o),
(339,240,cs),
(326,240,o),
(321,229,o),
(312,218,c),
(301,207,o),
(202,164,o),
(156,154,cs),
(147,152,o),
(131,159,o),
(121,169,c)
);
}
);
width = 1000;
}
);
production = u1B024;
script = hentaigana;
unicode = 110628;
}
{
category = Letter;
glyphname = "ki-3-kana";
layers = (
{
backgroundImage = {
imagePath = _sketch/u1B025.png;
locked = 1;
pos = (0,-120);
};
layerId = m01;
shapes = (
{
closed = 1;
nodes = (
(175,632,l),
(182,608,o),
(195,588,o),
(210,572,cs),
(233,547,o),
(261,533,o),
(277,533,cs),
(303,533,o),
(312,540,o),
(327,553,cs),
(364,586,o),
(555,723,o),
(642,723,cs),
(661,723,o),
(684,719,o),
(684,695,cs),
(684,661,o),
(642,618,o),
(533,554,cs),
(456,509,o),
(266,421,o),
(163,368,cs),
(143,358,o),
(132,353,o),
(126,353,cs),
(116,353,o),
(102,356,o),
(93,359,c),
(85,359,l),
(85,342,o),
(100,295,o),
(123,296,c),
(136,300,o),
(148,308,o),
(161,312,cs),
(299,355,o),
(700,468,o),
(837,468,cs),
(854,468,o),
(870,459,o),
(888,459,cs),
(896,459,o),
(914,463,o),
(914,479,cs),
(914,495,o),
(888,507,o),
(865,514,cs),
(814,529,o),
(729,570,o),
(678,598,c),
(669,576,l),
(738,537,o),
(816,494,o),
(839,486,c),
(833,502,l),
(744,498,o),
(414,417,o),
(242,372,cs),
(239,371,o),
(228,372,o),
(239,378,cs),
(361,440,o),
(464,485,o),
(540,527,cs),
(643,584,o),
(735,647,o),
(735,697,cs),
(735,737,o),
(683,746,o),
(652,746,cs),
(541,746,o),
(384,636,o),
(333,610,cs),
(314,600,o),
(284,587,o),
(265,587,cs),
(236,587,o),
(209,611,o),
(191,642,c)
);
},
{
closed = 1;
nodes = (
(325,762,l),
(354,771,o),
(387,773,o),
(410,757,cs),
(433,741,o),
(443,723,o),
(503,572,cs),
(563,421,o),
(712,95,o),
(726,56,cs),
(732,40,o),
(728,38,o),
(714,50,cs),
(696,66,o),
(599,126,o),
(547,155,c),
(539,138,l),
(604,97,o),
(686,36,o),
(710,5,cs),
(734,-26,o),
(733,-35,o),
(758,-35,cs),
(780,-35,o),
(785,-3,o),
(785,9,cs),
(785,31,o),
(772,45,o),
(754,81,cs),
(704,180,o),
(676,237,o),
(592,448,cs),
(508,659,o),
(479,740,o),
(479,764,cs),
(479,786,o),
(429,804,o),
(383,804,cs),
(358,804,o),
(335,799,o),
(321,786,c)
);
},
{
closed = 1;
nodes = (
(215,266,l),
(234,250,o),
(243,234,o),
(243,206,cs),
(243,168,o),
(221,103,o),
(206,87,cs),
(191,71,o),
(176,57,o),
(176,44,cs),
(176,31,o),
(189,21,o),
(198,21,cs),
(214,21,o),
(211,24,o),
(246,57,cs),
(321,128,o),
(587,324,o),
(731,324,cs),
(785,324,o),
(816,302,o),
(816,267,cs),
(816,151,o),
(596,60,o),
(423,12,c),
(428,-3,l),
(550,20,o),
(862,119,o),
(862,260,cs),
(862,325,o),
(790,347,o),
(731,347,cs),
(574,347,o),
(308,156,o),
(203,70,c),
(217,56,l),
(258,119,o),
(279,165,o),
(279,208,cs),
(279,241,o),
(260,262,o),
(227,279,c)
);
}
);
width = 1000;
},
{
layerId = "027B829E-3619-44FF-8C68-78647B0AD671";
shapes = (
{
closed = 1;
nodes = (
(143,620,l),
(139,608,o),
(138,597,o),
(138,587,cs),
(138,517,o),
(204,473,o),
(247,473,cs),
(273,473,o),
(284,498,o),
(297,513,cs),
(334,556,o),
(527,723,o),
(604,723,cs),
(640,723,o),
(664,709,o),
(664,683,cs),
(664,649,o),
(611,609,o),
(516,554,cs),
(438,509,o),
(298,428,o),
(181,387,cs),
(160,380,o),
(129,371,o),
(111,371,cs),
(103,371,o),
(97,372,o),
(92,374,c),
(85,373,l),
(85,340,o),
(107,269,o),
(150,269,cs),
(163,269,o),
(193,278,o),
(206,285,cs),
(314,348,o),
(700,448,o),
(837,448,cs),
(854,448,o),
(870,446,o),
(888,446,cs),
(921,446,o),
(943,454,o),
(943,479,cs),
(943,510,o),
(911,540,o),
(865,540,cs),
(812,540,o),
(729,570,o),
(678,598,c),
(671,587,l),
(719,531,o),
(776,481,o),
(793,472,c),
(833,502,l),
(744,498,o),
(412,416,o),
(240,371,cs),
(228,368,o),
(232,372,o),
(237,374,cs),
(374,428,o),
(494,476,o),
(582,515,cs),
(708,571,o),
(805,597,o),
(805,677,cs),
(805,717,o),
(743,766,o),
(642,766,cs),
(521,766,o),
(380,673,o),
(291,622,cs),
(259,604,o),
(235,587,o),
(207,587,cs),
(187,587,o),
(169,591,o),
(151,622,c)
);
},
{
closed = 1;
nodes = (
(325,769,l),
(354,771,o),
(367,773,o),
(390,757,cs),
(413,741,o),
(425,723,o),
(483,572,cs),
(536,435,o),
(631,216,o),
(688,85,cs),
(691,79,o),
(687,76,o),
(682,77,cs),
(635,87,o),
(593,102,o),
(521,119,c),
(519,108,l),
(594,77,o),
(686,16,o),
(720,-27,cs),
(734,-46,o),
(753,-65,o),
(778,-65,cs),
(810,-65,o),
(835,-33,o),
(835,9,cs),
(835,31,o),
(802,65,o),
(784,101,cs),
(734,200,o),
(706,257,o),
(622,468,cs),
(531,696,o),
(529,750,o),
(529,774,cs),
(529,806,o),
(467,830,o),
(407,830,cs),
(374,830,o),
(341,816,o),
(321,776,c)
);
},
{
closed = 1;
nodes = (
(173,261,l),
(199,253,o),
(211,234,o),
(211,206,cs),
(211,168,o),
(201,133,o),
(176,97,cs),
(137,41,o),
(116,47,o),
(116,24,cs),
(116,2,o),
(146,-30,o),
(205,-30,cs),
(255,-30,o),
(254,10,o),
(288,44,cs),
(469,225,o),
(580,323,o),
(704,323,cs),
(754,323,o),
(786,302,o),
(786,247,cs),
(786,138,o),
(602,60,o),
(421,7,c),
(428,-3,l),
(650,0,o),
(922,77,o),
(922,240,cs),
(922,315,o),
(843,367,o),
(731,367,cs),
(574,367,o),
(377,239,o),
(193,40,c),
(227,26,l),
(298,109,o),
(339,177,o),
(339,220,cs),
(339,272,o),
(237,294,o),
(173,269,c)
);
}
);
width = 1000;
},
{
layerId = "22BF860B-E605-42C1-AA52-30D9AB94E7CE";
shapes = (
{
closed = 1;
nodes = (
(163,628,l),
(166,608,o),
(174,591,o),
(183,578,cs),
(197,536,o),
(240,511,o),
(266,511,cs),
(292,511,o),
(302,524,o),
(316,538,cs),
(353,575,o),
(545,723,o),
(628,723,cs),
(653,723,o),
(677,715,o),
(677,691,cs),
(677,657,o),
(630,615,o),
(527,554,cs),
(449,509,o),
(278,424,o),
(170,375,cs),
(149,366,o),
(131,360,o),
(120,360,cs),
(111,360,o),
(100,362,o),
(93,365,c),
(85,364,l),
(85,341,o),
(103,285,o),
(133,286,c),
(146,288,o),
(165,297,o),
(178,302,cs),
(305,352,o),
(700,461,o),
(837,461,cs),
(854,461,o),
(870,454,o),
(888,454,cs),
(905,454,o),
(925,460,o),
(925,479,cs),
(925,501,o),
(897,519,o),
(865,524,cs),
(813,533,o),
(729,570,o),
(678,598,c),
(670,580,l),
(731,535,o),
(801,489,o),
(822,481,c),
(833,502,l),
(744,498,o),
(413,417,o),
(241,372,cs),
(235,370,o),
(230,372,o),
(238,377,cs),
(366,436,o),
(475,482,o),
(556,523,cs),
(667,579,o),
(761,628,o),
(761,690,cs),
(761,730,o),
(706,754,o),
(648,754,cs),
(534,754,o),
(383,650,o),
(317,615,cs),
(293,602,o),
(266,587,o),
(243,587,cs),
(218,587,o),
(194,604,o),
(176,635,c)
);
},
{
closed = 1;
nodes = (
(325,765,l),
(354,771,o),
(380,773,o),
(403,757,cs),
(426,741,o),
(436,723,o),
(496,572,cs),
(553,426,o),
(692,130,o),
(722,57,cs),
(727,45,o),
(723,42,o),
(712,50,cs),
(683,64,o),
(607,97,o),
(557,122,c),
(552,107,l),
(610,70,o),
(686,29,o),
(714,-7,cs),
(734,-33,o),
(741,-46,o),
(766,-46,cs),
(791,-46,o),
(804,-14,o),
(804,9,cs),
(804,31,o),
(783,53,o),
(765,89,cs),
(715,188,o),
(687,245,o),
(603,456,cs),
(517,673,o),
(498,744,o),
(498,768,cs),
(498,794,o),
(443,814,o),
(392,814,cs),
(364,814,o),
(337,805,o),
(321,782,c)
);
},
{
closed = 1;
nodes = (
(199,264,l),
(221,251,o),
(231,234,o),
(231,206,cs),
(231,168,o),
(214,114,o),
(195,91,cs),
(171,60,o),
(154,53,o),
(154,37,cs),
(154,20,o),
(173,2,o),
(201,2,cs),
(229,2,o),
(227,19,o),
(262,52,cs),
(377,164,o),
(584,324,o),
(721,324,cs),
(773,324,o),
(805,302,o),
(805,260,cs),
(805,146,o),
(598,60,o),
(422,10,c),
(428,-3,l),
(588,13,o),
(885,103,o),
(885,253,cs),
(885,321,o),
(810,355,o),
(731,355,cs),
(574,355,o),
(334,187,o),
(199,59,c),
(221,45,l),
(273,115,o),
(302,170,o),
(302,213,cs),
(302,253,o),
(251,274,o),
(207,275,c)
);
}
);
width = 1000;
}
);
production = u1B025;
script = hentaigana;
unicode = 110629;
}
